{
.appVersion = "1141";
DisplayStrings = (
"/pha-ethiopic.001",
"/tsa-ethiopic.001",
"/tza-ethiopic.001",
"/fa-ethiopic.001",
"/pa-ethiopic.001",
"/hu-ethiopic.001",
"/ha-ethiopic.001/hi-ethiopic.001",
"/hi-ethiopic.001",
"/hee-ethiopic.001",
"/hee-ethiopic.001",
"/gyee-ethiopic",
"/xyee-ethiopic",
"/hee-ethiopic.001/haa-ethiopic.001",
"/haa-ethiopic.001",
"/hee-ethiopic",
"/haa-ethiopic.001",
"/hee-ethiopic.001",
"/he-ethiopic.001",
"/ho-ethiopic.001",
"/hoa-ethiopic/hoa-ethiopic.001",
"/hoa-ethiopic",
"/hoa-ethiopic.001",
"/lu-ethiopic.001/li-ethiopic.001/laa-ethiopic.001/lee-ethiopic.001/le-ethiopic.001/lo-ethiopic.001/lwa-ethiopic.001",
"/lu-ethiopic.001",
"/li-ethiopic.001",
"/laa-ethiopic.001",
"/lee-ethiopic.001",
"/le-ethiopic.001",
"/lo-ethiopic.001",
"/lwa-ethiopic.001",
"/_part.cap.la/lwa-ethiopic.001",
"/lwa-ethiopic.001",
"/hhu-ethiopic.001/hhi-ethiopic.001/hhaa-ethiopic.001/hhee-ethiopic.001/hhe-ethiopic.001/hho-ethiopic.001/hhwa-ethiopic.001",
"/hhu-ethiopic.001",
"/hhi-ethiopic.001",
"/hhaa-ethiopic.001",
"/hhaa-ethiopic.001",
"/hhee-ethiopic.001",
"/hhe-ethiopic.001",
"/hho-ethiopic.001",
"/hhwa-ethiopic.001",
"/hho-ethiopic.001"
);
copyright = "Copyright © 2018 by fasil fikreab. All rights reserved.";
customParameters = (
{
name = panose;
value = (
0,
0,
5,
0,
0,
0,
0,
0,
0,
0
);
},
{
name = unicodeRanges;
value = (
0
);
},
{
name = codePageRanges;
value = (
1252
);
},
{
name = unicodeRanges;
value = (
.notdef,
A,
B,
C,
D,
E,
F,
G,
H,
I,
J,
K,
L,
M,
N,
O,
P,
Q,
R,
S,
T,
U,
V,
W,
X,
Y,
Z,
a,
b,
c,
d,
e,
f,
g,
h,
i,
j,
k,
l,
m,
n,
o,
p,
q,
r,
s,
t,
u,
v,
w,
x,
y,
z,
uni1200,
uni1201,
uni1202,
uni1203,
uni1204,
uni1205,
uni1206,
uni1207,
uni1208,
uni1209,
uni120A,
uni120B,
uni120C,
uni120D,
uni120E,
uni120F,
uni1210,
uni1211,
uni1212,
uni1213,
uni1214,
uni1215,
uni1216,
uni1217,
uni1218,
uni1219,
uni121A,
uni121B,
uni121C,
uni121D,
uni121E,
uni121F,
uni1220,
uni1221,
uni1222,
uni1223,
uni1224,
uni1225,
uni1226,
uni1227,
uni1228,
uni1229,
uni122A,

glyphs = (
{
glyphname = A;
lastChange = "2018-10-24 01:43:00 +0000";
layers = (
{
layerId = "61E9F240-DCC1-4244-924B-01C71F2248F0";
paths = (
{
closed = 1;
nodes = (
"110 0 LINE",
"156 203 LINE",
"327 203 LINE",
"370 0 LINE",
"435 0 LINE",
"278 682 LINE",
"213 682 LINE",
"50 0 LINE"
);
},
{
closed = 1;
nodes = (
"245 579 LINE",
"308 278 LINE",
"173 278 LINE"
);
}
);
width = 485;
},
{
layerId = "994FE389-9D54-4FAA-B055-C46A67020E78";
paths = (
{
closed = 1;
nodes = (
"165 0 LINE",
"239 203 LINE",
"509 203 LINE",
"578 0 LINE",
"680 0 LINE",
"431 682 LINE",
"327 682 LINE",
"70 0 LINE"
);
},
{
closed = 1;
nodes = (
"377 579 LINE",
"479 278 LINE",
"265 278 LINE"
);
}
);
width = 750;
},
{
associatedMasterId = "61E9F240-DCC1-4244-924B-01C71F2248F0";
layerId = "F40E2F94-F4B3-4D3C-AA5D-04A91D7A3D3E";
paths = (
{
closed = 1;
nodes = (
"165 0 LINE",
"239 203 LINE",
"509 203 LINE",
"578 0 LINE",
"680 0 LINE",
"431 682 LINE",
"327 682 LINE",
"70 0 LINE"
);
},
{
closed = 1;
nodes = (
"377 579 LINE",
"479 278 LINE",
"265 278 LINE"
);
}
);
width = 750;
}
);
note = A;
unicode = 0041;
},
{
glyphname = B;
lastChange = "2018-10-24 01:43:00 +0000";
layers = (
{
layerId = "61E9F240-DCC1-4244-924B-01C71F2248F0";
paths = (
{
closed = 1;
nodes = (
"231 0 LINE SMOOTH",
"288 0 OFFCURVE",
"329 23 OFFCURVE",
"355 78 CURVE SMOOTH",
"372 113 OFFCURVE",
"382 152 OFFCURVE",
"382 198 CURVE SMOOTH",
"382 245 OFFCURVE",
"373 291 OFFCURVE",
"353 320 CURVE SMOOTH",
"342 336 OFFCURVE",
"325 352 OFFCURVE",
"305 366 CURVE",
"318 378 OFFCURVE",
"329 390 OFFCURVE",
"338 406 CURVE SMOOTH",
"356 438 OFFCURVE",
"360 476 OFFCURVE",
"360 511 CURVE SMOOTH",
"360 546 OFFCURVE",
"356 579 OFFCURVE",
"341 610 CURVE SMOOTH",
"321 652 OFFCURVE",
"285 679 OFFCURVE",
"234 679 CURVE SMOOTH",
"50 679 LINE",
"50 0 LINE"
);
},
{
closed = 1;
nodes = (
"108 318 LINE",
"222 318 LINE SMOOTH",
"253 318 OFFCURVE",
"272 311 OFFCURVE",
"284 303 CURVE SMOOTH",
"310 286 OFFCURVE",
"323 248 OFFCURVE",
"323 202 CURVE SMOOTH",
"323 179 OFFCURVE",
"320 148 OFFCURVE",
"309 128 CURVE SMOOTH",
"291 95 OFFCURVE",
"269 77 OFFCURVE",
"231 77 CURVE SMOOTH",
"108 77 LINE"
);
},
{
closed = 1;
nodes = (
"108 603 LINE",
"213 603 LINE SMOOTH",
"235 603 OFFCURVE",
"258 598 OFFCURVE",
"270 590 CURVE SMOOTH",
"291 576 OFFCURVE",
"304 544 OFFCURVE",
"304 500 CURVE SMOOTH",
"304 458 OFFCURVE",
"292 425 OFFCURVE",
"270 408 CURVE SMOOTH",
"256 397 OFFCURVE",
"240 392 OFFCURVE",
"213 392 CURVE SMOOTH",
"108 392 LINE"
);
}
);
width = 432;
},
{
layerId = "994FE389-9D54-4FAA-B055-C46A67020E78";
paths = (
{
closed = 1;
nodes = (
"358 0 LINE SMOOTH",
"448 0 OFFCURVE",
"513 24 OFFCURVE",
"553 77 CURVE SMOOTH",
"581 115 OFFCURVE",
"596 153 OFFCURVE",
"596 198 CURVE SMOOTH",
"596 250 OFFCURVE",
"580 291 OFFCURVE",
"549 321 CURVE SMOOTH",
"532 337 OFFCURVE",
"507 352 OFFCURVE",
"472 366 CURVE",
"495 378 OFFCURVE",
"513 392 OFFCURVE",
"526 406 CURVE SMOOTH",
"551 433 OFFCURVE",
"563 468 OFFCURVE",
"563 511 CURVE SMOOTH",
"563 547 OFFCURVE",
"555 580 OFFCURVE",
"532 608 CURVE SMOOTH",
"496 653 OFFCURVE",
"442 679 OFFCURVE",
"363 679 CURVE SMOOTH",
"70 679 LINE",
"70 0 LINE"
);
},
{
closed = 1;
nodes = (
"161 318 LINE",
"343 318 LINE SMOOTH",
"382 318 OFFCURVE",
"414 313 OFFCURVE",
"437 304 CURVE SMOOTH",
"481 286 OFFCURVE",
"503 252 OFFCURVE",
"503 202 CURVE SMOOTH",
"503 173 OFFCURVE",
"496 147 OFFCURVE",
"479 127 CURVE SMOOTH",
"450 92 OFFCURVE",
"412 77 OFFCURVE",
"358 77 CURVE SMOOTH",
"161 77 LINE"
);
},
{
closed = 1;
nodes = (
"161 603 LINE",
"327 603 LINE SMOOTH",
"365 603 OFFCURVE",
"396 598 OFFCURVE",
"417 590 CURVE SMOOTH",
"453 576 OFFCURVE",
"471 545 OFFCURVE",
"471 500 CURVE SMOOTH",
"471 456 OFFCURVE",
"452 425 OFFCURVE",
"419 408 CURVE SMOOTH",
"398 397 OFFCURVE",
"367 392 OFFCURVE",
"329 392 CURVE SMOOTH",
"161 392 LINE"
);
}
);
width = 666;
},
{
associatedMasterId = "61E9F240-DCC1-4244-924B-01C71F2248F0";
layerId = "F40E2F94-F4B3-4D3C-AA5D-04A91D7A3D3E";
paths = (
{
closed = 1;
nodes = (
"358 0 LINE SMOOTH",
"448 0 OFFCURVE",
"513 24 OFFCURVE",
"553 77 CURVE SMOOTH",
"581 115 OFFCURVE",
"596 153 OFFCURVE",
"596 198 CURVE SMOOTH",
"596 250 OFFCURVE",
"580 291 OFFCURVE",
"549 321 CURVE SMOOTH",
"535 335 OFFCURVE",
"507 352 OFFCURVE",
"472 366 CURVE",
"495 378 OFFCURVE",
"513 392 OFFCURVE",
"526 406 CURVE SMOOTH",
"551 433 OFFCURVE",
"563 468 OFFCURVE",
"563 511 CURVE SMOOTH",
"563 547 OFFCURVE",
"555 580 OFFCURVE",
"532 608 CURVE SMOOTH",
"496 653 OFFCURVE",
"442 679 OFFCURVE",
"363 679 CURVE SMOOTH",
"70 679 LINE",
"70 0 LINE"
);
},
{
closed = 1;
nodes = (
"161 318 LINE",
"343 318 LINE SMOOTH",
"382 318 OFFCURVE",
"414 313 OFFCURVE",
"437 304 CURVE SMOOTH",
"481 286 OFFCURVE",
"503 252 OFFCURVE",
"503 202 CURVE SMOOTH",
"503 173 OFFCURVE",
"496 147 OFFCURVE",
"479 127 CURVE SMOOTH",
"450 92 OFFCURVE",
"412 77 OFFCURVE",
"358 77 CURVE SMOOTH",
"161 77 LINE"
);
},
{
closed = 1;
nodes = (
"161 603 LINE",
"327 603 LINE SMOOTH",
"365 603 OFFCURVE",
"396 598 OFFCURVE",
"417 590 CURVE SMOOTH",
"453 576 OFFCURVE",
"471 545 OFFCURVE",
"471 500 CURVE SMOOTH",
"471 456 OFFCURVE",
"452 425 OFFCURVE",
"419 408 CURVE SMOOTH",
"398 397 OFFCURVE",
"367 392 OFFCURVE",
"329 392 CURVE SMOOTH",
"161 392 LINE"
);
}
);
width = 666;
}
);
note = B;
unicode = 0042;
},
{
glyphname = C;
lastChange = "2018-10-24 01:43:00 +0000";
layers = (
{
layerId = "61E9F240-DCC1-4244-924B-01C71F2248F0";
paths = (
{
closed = 1;
nodes = (
"293 -7 OFFCURVE",
"338 22 OFFCURVE",
"371 77 CURVE SMOOTH",
"399 123 OFFCURVE",
"414 182 OFFCURVE",
"419 253 CURVE",
"365 253 LINE",
"359 208 OFFCURVE",
"351 174 OFFCURVE",
"337 144 CURVE SMOOTH",
"316 97 OFFCURVE",
"283 71 OFFCURVE",
"245 71 CURVE SMOOTH",
"199 71 OFFCURVE",
"166 94 OFFCURVE",
"141 146 CURVE SMOOTH",
"119 191 OFFCURVE",
"108 259 OFFCURVE",
"108 332 CURVE SMOOTH",
"108 428 OFFCURVE",
"122 498 OFFCURVE",
"145 540 CURVE SMOOTH",
"169 584 OFFCURVE",
"200 609 OFFCURVE",
"244 609 CURVE SMOOTH",
"280 609 OFFCURVE",
"304 597 OFFCURVE",
"323 573 CURVE SMOOTH",
"343 547 OFFCURVE",
"354 514 OFFCURVE",
"360 471 CURVE",
"416 471 LINE",
"412 528 OFFCURVE",
"396 579 OFFCURVE",
"368 621 CURVE SMOOTH",
"338 666 OFFCURVE",
"297 687 OFFCURVE",
"245 687 CURVE SMOOTH",
"179 687 OFFCURVE",
"134 652 OFFCURVE",
"99 587 CURVE SMOOTH",
"66 525 OFFCURVE",
"50 445 OFFCURVE",
"50 347 CURVE SMOOTH",
"50 215 OFFCURVE",
"73 124 OFFCURVE",
"113 66 CURVE SMOOTH",
"148 16 OFFCURVE",
"185 -7 OFFCURVE",
"237 -7 CURVE SMOOTH"
);
}
);
width = 469;
},
{
layerId = "994FE389-9D54-4FAA-B055-C46A67020E78";
paths = (
{
closed = 1;
nodes = (
"455 -7 OFFCURVE",
"526 22 OFFCURVE",
"579 77 CURVE SMOOTH",
"623 124 OFFCURVE",
"648 183 OFFCURVE",
"655 253 CURVE",
"569 253 LINE",
"560 209 OFFCURVE",
"546 174 OFFCURVE",
"527 147 CURVE SMOOTH",
"491 97 OFFCURVE",
"443 71 OFFCURVE",
"377 71 CURVE SMOOTH",
"306 71 OFFCURVE",
"253 96 OFFCURVE",
"216 144 CURVE SMOOTH",
"180 191 OFFCURVE",
"161 254 OFFCURVE",
"161 332 CURVE SMOOTH",
"161 426 OFFCURVE",
"182 496 OFFCURVE",
"222 542 CURVE SMOOTH",
"262 587 OFFCURVE",
"314 609 OFFCURVE",
"378 609 CURVE SMOOTH",
"433 609 OFFCURVE",
"473 597 OFFCURVE",
"503 573 CURVE SMOOTH",
"532 549 OFFCURVE",
"553 514 OFFCURVE",
"563 471 CURVE",
"650 471 LINE",
"644 527 OFFCURVE",
"620 577 OFFCURVE",
"573 622 CURVE SMOOTH",
"525 667 OFFCURVE",
"458 687 OFFCURVE",
"377 687 CURVE SMOOTH",
"283 687 OFFCURVE",
"208 658 OFFCURVE",
"147 586 CURVE SMOOTH",
"91 520 OFFCURVE",
"70 439 OFFCURVE",
"70 347 CURVE SMOOTH",
"70 218 OFFCURVE",
"105 124 OFFCURVE",
"173 63 CURVE SMOOTH",
"225 16 OFFCURVE",
"290 -7 OFFCURVE",
"366 -7 CURVE SMOOTH"
);
}
);
width = 725;
},
{
associatedMasterId = "61E9F240-DCC1-4244-924B-01C71F2248F0";
layerId = "F40E2F94-F4B3-4D3C-AA5D-04A91D7A3D3E";
paths = (
{
closed = 1;
nodes = (
"455 -7 OFFCURVE",
"526 22 OFFCURVE",
"579 77 CURVE SMOOTH",
"623 124 OFFCURVE",
"648 183 OFFCURVE",
"655 253 CURVE",
"569 253 LINE",
"560 209 OFFCURVE",
"546 174 OFFCURVE",
"527 147 CURVE SMOOTH",
"491 97 OFFCURVE",
"443 71 OFFCURVE",
"377 71 CURVE SMOOTH",
"306 71 OFFCURVE",
"253 96 OFFCURVE",
"216 144 CURVE SMOOTH",
"180 191 OFFCURVE",
"161 254 OFFCURVE",
"161 332 CURVE SMOOTH",
"161 426 OFFCURVE",
"182 496 OFFCURVE",
"222 542 CURVE SMOOTH",
"262 587 OFFCURVE",
"314 609 OFFCURVE",
"378 609 CURVE SMOOTH",
"433 609 OFFCURVE",
"473 597 OFFCURVE",
"503 573 CURVE SMOOTH",
"532 549 OFFCURVE",
"553 514 OFFCURVE",
"563 471 CURVE",
"650 471 LINE",
"644 527 OFFCURVE",
"620 577 OFFCURVE",
"573 622 CURVE SMOOTH",
"525 667 OFFCURVE",
"458 687 OFFCURVE",
"377 687 CURVE SMOOTH",
"283 687 OFFCURVE",
"208 658 OFFCURVE",
"147 586 CURVE SMOOTH",
"91 520 OFFCURVE",
"70 439 OFFCURVE",
"70 347 CURVE SMOOTH",
"70 218 OFFCURVE",
"105 124 OFFCURVE",
"173 63 CURVE SMOOTH",
"225 16 OFFCURVE",
"290 -7 OFFCURVE",
"366 -7 CURVE SMOOTH"
);
}
);
width = 725;
}
);
note = C;
unicode = 0043;
},
{
glyphname = D;
lastChange = "2018-10-24 01:43:00 +0000";
layers = (
{
layerId = "61E9F240-DCC1-4244-924B-01C71F2248F0";
paths = (
{
closed = 1;
nodes = (
"225 1 LINE SMOOTH",
"292 1 OFFCURVE",
"347 48 OFFCURVE",
"379 154 CURVE SMOOTH",
"397 213 OFFCURVE",
"405 279 OFFCURVE",
"405 351 CURVE SMOOTH",
"405 452 OFFCURVE",
"390 524 OFFCURVE",
"359 583 CURVE SMOOTH",
"325 647 OFFCURVE",
"283 681 OFFCURVE",
"226 681 CURVE SMOOTH",
"50 681 LINE",
"50 1 LINE"
);
},
{
closed = 1;
nodes = (
"108 603 LINE",
"213 603 LINE SMOOTH",
"258 603 OFFCURVE",
"294 580 OFFCURVE",
"314 534 CURVE SMOOTH",
"336 483 OFFCURVE",
"346 418 OFFCURVE",
"346 336 CURVE SMOOTH",
"346 310 OFFCURVE",
"344 286 OFFCURVE",
"342 267 CURVE SMOOTH",
"337 219 OFFCURVE",
"328 189 OFFCURVE",
"315 157 CURVE SMOOTH",
"301 123 OFFCURVE",
"284 101 OFFCURVE",
"261 89 CURVE SMOOTH",
"249 83 OFFCURVE",
"232 78 OFFCURVE",
"212 78 CURVE SMOOTH",
"108 78 LINE"
);
}
);
width = 455;
},
{
layerId = "994FE389-9D54-4FAA-B055-C46A67020E78";
paths = (
{
closed = 1;
nodes = (
"346 1 LINE SMOOTH",
"461 1 OFFCURVE",
"543 53 OFFCURVE",
"592 156 CURVE SMOOTH",
"620 213 OFFCURVE",
"633 279 OFFCURVE",
"633 351 CURVE SMOOTH",
"633 449 OFFCURVE",
"609 523 OFFCURVE",
"562 581 CURVE SMOOTH",
"501 657 OFFCURVE",
"427 681 OFFCURVE",
"347 681 CURVE SMOOTH",
"70 681 LINE",
"70 1 LINE"
);
},
{
closed = 1;
nodes = (
"163 603 LINE",
"327 603 LINE SMOOTH",
"400 603 OFFCURVE",
"457 579 OFFCURVE",
"489 533 CURVE SMOOTH",
"521 486 OFFCURVE",
"539 420 OFFCURVE",
"539 336 CURVE SMOOTH",
"539 314 OFFCURVE",
"537 290 OFFCURVE",
"532 265 CURVE SMOOTH",
"524 220 OFFCURVE",
"510 186 OFFCURVE",
"492 159 CURVE SMOOTH",
"469 124 OFFCURVE",
"440 101 OFFCURVE",
"404 89 CURVE SMOOTH",
"385 83 OFFCURVE",
"357 78 OFFCURVE",
"328 78 CURVE SMOOTH",
"163 78 LINE"
);
}
);
width = 703;
},
{
associatedMasterId = "61E9F240-DCC1-4244-924B-01C71F2248F0";
layerId = "F40E2F94-F4B3-4D3C-AA5D-04A91D7A3D3E";
paths = (
{
closed = 1;
nodes = (
"346 1 LINE SMOOTH",
"461 1 OFFCURVE",
"543 53 OFFCURVE",
"592 156 CURVE SMOOTH",
"620 213 OFFCURVE",
"633 279 OFFCURVE",
"633 351 CURVE SMOOTH",
"633 449 OFFCURVE",
"609 523 OFFCURVE",
"562 581 CURVE SMOOTH",
"501 657 OFFCURVE",
"427 681 OFFCURVE",
"347 681 CURVE SMOOTH",
"70 681 LINE",
"70 1 LINE"
);
},
{
closed = 1;
nodes = (
"163 603 LINE",
"327 603 LINE SMOOTH",
"400 603 OFFCURVE",
"457 579 OFFCURVE",
"489 533 CURVE SMOOTH",
"521 486 OFFCURVE",
"539 420 OFFCURVE",
"539 336 CURVE SMOOTH",
"539 314 OFFCURVE",
"537 290 OFFCURVE",
"532 265 CURVE SMOOTH",
"524 220 OFFCURVE",
"510 186 OFFCURVE",
"492 159 CURVE SMOOTH",
"469 124 OFFCURVE",
"440 101 OFFCURVE",
"404 89 CURVE SMOOTH",
"385 83 OFFCURVE",
"357 78 OFFCURVE",
"328 78 CURVE SMOOTH",
"163 78 LINE"
);
}
);
width = 703;
}
);
note = D;
unicode = 0044;
},
{
glyphname = E;
lastChange = "2018-10-24 01:43:00 +0000";
layers = (
{
layerId = "61E9F240-DCC1-4244-924B-01C71F2248F0";
paths = (
{
closed = 1;
nodes = (
"369 0 LINE",
"369 80 LINE",
"107 80 LINE",
"107 313 LINE",
"344 313 LINE",
"344 391 LINE",
"107 391 LINE",
"107 598 LINE",
"364 598 LINE",
"364 682 LINE",
"50 682 LINE",
"50 0 LINE"
);
}
);
width = 419;
},
{
layerId = "994FE389-9D54-4FAA-B055-C46A67020E78";
paths = (
{
closed = 1;
nodes = (
"575 0 LINE",
"575 80 LINE",
"160 80 LINE",
"160 313 LINE",
"536 313 LINE",
"536 391 LINE",
"160 391 LINE",
"160 598 LINE",
"568 598 LINE",
"568 682 LINE",
"70 682 LINE",
"70 0 LINE"
);
}
);
width = 645;
},
{
associatedMasterId = "61E9F240-DCC1-4244-924B-01C71F2248F0";
layerId = "F40E2F94-F4B3-4D3C-AA5D-04A91D7A3D3E";
paths = (
{
closed = 1;
nodes = (
"575 0 LINE",
"575 80 LINE",
"160 80 LINE",
"160 313 LINE",
"536 313 LINE",
"536 391 LINE",
"160 391 LINE",
"160 598 LINE",
"568 598 LINE",
"568 682 LINE",
"70 682 LINE",
"70 0 LINE"
);
}
);
width = 645;
}
);
note = E;
unicode = 0045;
},
{
glyphname = F;
lastChange = "2018-10-24 01:43:00 +0000";
layers = (
{
layerId = "61E9F240-DCC1-4244-924B-01C71F2248F0";
paths = (
{
closed = 1;
nodes = (
"109 0 LINE",
"109 309 LINE",
"319 309 LINE",
"319 391 LINE",
"109 391 LINE",
"109 597 LINE",
"349 597 LINE",
"349 681 LINE",
"50 681 LINE",
"50 0 LINE"
);
}
);
width = 399;
},
{
layerId = "994FE389-9D54-4FAA-B055-C46A67020E78";
paths = (
{
closed = 1;
nodes = (
"162 0 LINE",
"162 309 LINE",
"496 309 LINE",
"496 391 LINE",
"162 391 LINE",
"162 597 LINE",
"542 597 LINE",
"542 681 LINE",
"70 681 LINE",
"70 0 LINE"
);
}
);
width = 612;
},
{
associatedMasterId = "61E9F240-DCC1-4244-924B-01C71F2248F0";
layerId = "F40E2F94-F4B3-4D3C-AA5D-04A91D7A3D3E";
paths = (
{
closed = 1;
nodes = (
"162 0 LINE",
"162 309 LINE",
"496 309 LINE",
"496 391 LINE",
"162 391 LINE",
"162 597 LINE",
"542 597 LINE",
"542 681 LINE",
"70 681 LINE",
"70 0 LINE"
);
}
);
width = 612;
}
);
note = F;
unicode = 0046;
},
{
glyphname = G;
lastChange = "2018-10-24 01:43:00 +0000";
layers = (
{
layerId = "61E9F240-DCC1-4244-924B-01C71F2248F0";
paths = (
{
closed = 1;
nodes = (
"276 -11 OFFCURVE",
"307 -2 OFFCURVE",
"334 23 CURVE SMOOTH",
"347 35 OFFCURVE",
"367 62 OFFCURVE",
"385 92 CURVE",
"399 6 LINE",
"435 6 LINE",
"435 364 LINE",
"250 364 LINE",
"250 288 LINE",
"381 288 LINE",
"381 213 OFFCURVE",
"367 153 OFFCURVE",
"344 119 CURVE SMOOTH",
"318 81 OFFCURVE",
"285 66 OFFCURVE",
"249 66 CURVE SMOOTH",
"199 66 OFFCURVE",
"163 93 OFFCURVE",
"141 143 CURVE SMOOTH",
"121 189 OFFCURVE",
"109 251 OFFCURVE",
"109 336 CURVE SMOOTH",
"109 425 OFFCURVE",
"121 498 OFFCURVE",
"149 543 CURVE SMOOTH",
"176 587 OFFCURVE",
"210 613 OFFCURVE",
"248 613 CURVE SMOOTH",
"276 613 OFFCURVE",
"308 601 OFFCURVE",
"329 579 CURVE SMOOTH",
"351 557 OFFCURVE",
"366 514 OFFCURVE",
"372 472 CURVE",
"428 472 LINE",
"418 560 OFFCURVE",
"395 620 OFFCURVE",
"350 656 CURVE SMOOTH",
"320 680 OFFCURVE",
"287 692 OFFCURVE",
"249 692 CURVE SMOOTH",
"194 692 OFFCURVE",
"147 665 OFFCURVE",
"108 597 CURVE SMOOTH",
"70 530 OFFCURVE",
"50 446 OFFCURVE",
"50 331 CURVE SMOOTH",
"50 219 OFFCURVE",
"69 130 OFFCURVE",
"108 66 CURVE",
"145 15 OFFCURVE",
"187 -11 OFFCURVE",
"237 -11 CURVE SMOOTH"
);
}
);
width = 485;
},
{
layerId = "994FE389-9D54-4FAA-B055-C46A67020E78";
paths = (
{
closed = 1;
nodes = (
"429 -11 OFFCURVE",
"478 -2 OFFCURVE",
"520 23 CURVE SMOOTH",
"541 36 OFFCURVE",
"569 59 OFFCURVE",
"600 92 CURVE",
"622 6 LINE",
"680 6 LINE",
"680 364 LINE",
"386 364 LINE",
"386 288 LINE",
"595 288 LINE",
"594 210 OFFCURVE",
"574 155 OFFCURVE",
"535 118 CURVE SMOOTH",
"496 82 OFFCURVE",
"445 66 OFFCURVE",
"385 66 CURVE SMOOTH",
"306 66 OFFCURVE",
"249 93 OFFCURVE",
"215 142 CURVE SMOOTH",
"180 192 OFFCURVE",
"162 256 OFFCURVE",
"162 336 CURVE SMOOTH",
"162 430 OFFCURVE",
"184 499 OFFCURVE",
"226 543 CURVE SMOOTH",
"269 588 OFFCURVE",
"324 613 OFFCURVE",
"382 613 CURVE SMOOTH",
"434 613 OFFCURVE",
"477 601 OFFCURVE",
"511 579 CURVE SMOOTH",
"546 557 OFFCURVE",
"568 521 OFFCURVE",
"580 472 CURVE",
"669 472 LINE",
"654 560 OFFCURVE",
"614 621 OFFCURVE",
"548 655 CURVE SMOOTH",
"501 679 OFFCURVE",
"450 692 OFFCURVE",
"385 692 CURVE SMOOTH",
"292 692 OFFCURVE",
"218 661 OFFCURVE",
"161 597 CURVE SMOOTH",
"101 530 OFFCURVE",
"70 443 OFFCURVE",
"70 331 CURVE SMOOTH",
"70 217 OFFCURVE",
"101 130 OFFCURVE",
"163 66 CURVE",
"220 15 OFFCURVE",
"288 -11 OFFCURVE",
"368 -11 CURVE SMOOTH"
);
}
);
width = 750;
},
{
associatedMasterId = "61E9F240-DCC1-4244-924B-01C71F2248F0";
layerId = "F40E2F94-F4B3-4D3C-AA5D-04A91D7A3D3E";
paths = (
{
closed = 1;
nodes = (
"429 -11 OFFCURVE",
"478 -2 OFFCURVE",
"520 23 CURVE SMOOTH",
"541 36 OFFCURVE",
"569 59 OFFCURVE",
"600 92 CURVE",
"622 6 LINE",
"680 6 LINE",
"680 364 LINE",
"386 364 LINE",
"386 288 LINE",
"595 288 LINE",
"594 210 OFFCURVE",
"574 155 OFFCURVE",
"535 118 CURVE SMOOTH",
"496 82 OFFCURVE",
"445 66 OFFCURVE",
"385 66 CURVE SMOOTH",
"306 66 OFFCURVE",
"249 93 OFFCURVE",
"215 142 CURVE SMOOTH",
"180 192 OFFCURVE",
"162 256 OFFCURVE",
"162 336 CURVE SMOOTH",
"162 430 OFFCURVE",
"184 499 OFFCURVE",
"226 543 CURVE SMOOTH",
"269 588 OFFCURVE",
"324 613 OFFCURVE",
"382 613 CURVE SMOOTH",
"434 613 OFFCURVE",
"477 601 OFFCURVE",
"511 579 CURVE SMOOTH",
"546 557 OFFCURVE",
"568 521 OFFCURVE",
"580 472 CURVE",
"669 472 LINE",
"654 560 OFFCURVE",
"614 621 OFFCURVE",
"548 655 CURVE SMOOTH",
"501 679 OFFCURVE",
"450 692 OFFCURVE",
"385 692 CURVE SMOOTH",
"292 692 OFFCURVE",
"218 661 OFFCURVE",
"161 597 CURVE SMOOTH",
"101 530 OFFCURVE",
"70 443 OFFCURVE",
"70 331 CURVE SMOOTH",
"70 217 OFFCURVE",
"101 130 OFFCURVE",
"163 66 CURVE",
"220 15 OFFCURVE",
"288 -11 OFFCURVE",
"368 -11 CURVE SMOOTH"
);
}
);
width = 750;
}
);
note = G;
unicode = 0047;
},
{
glyphname = H;
lastChange = "2018-10-24 01:43:00 +0000";
layers = (
{
layerId = "61E9F240-DCC1-4244-924B-01C71F2248F0";
paths = (
{
closed = 1;
nodes = (
"108 0 LINE",
"108 317 LINE",
"332 317 LINE",
"332 0 LINE",
"391 0 LINE",
"391 680 LINE",
"332 680 LINE",
"332 399 LINE",
"108 399 LINE",
"108 680 LINE",
"50 680 LINE",
"50 0 LINE"
);
}
);
width = 441;
},
{
layerId = "994FE389-9D54-4FAA-B055-C46A67020E78";
paths = (
{
closed = 1;
nodes = (
"163 0 LINE",
"163 317 LINE",
"516 317 LINE",
"516 0 LINE",
"610 0 LINE",
"610 680 LINE",
"516 680 LINE",
"516 399 LINE",
"163 399 LINE",
"163 680 LINE",
"70 680 LINE",
"70 0 LINE"
);
}
);
width = 680;
},
{
associatedMasterId = "61E9F240-DCC1-4244-924B-01C71F2248F0";
layerId = "F40E2F94-F4B3-4D3C-AA5D-04A91D7A3D3E";
paths = (
{
closed = 1;
nodes = (
"163 0 LINE",
"163 317 LINE",
"516 317 LINE",
"516 0 LINE",
"610 0 LINE",
"610 680 LINE",
"516 680 LINE",
"516 399 LINE",
"163 399 LINE",
"163 680 LINE",
"70 680 LINE",
"70 0 LINE"
);
}
);
width = 680;
}
);
note = H;
unicode = 0048;
},
{
glyphname = I;
lastChange = "2018-10-24 01:43:00 +0000";
layers = (
{
layerId = "61E9F240-DCC1-4244-924B-01C71F2248F0";
paths = (
{
closed = 1;
nodes = (
"108 0 LINE",
"108 683 LINE",
"50 683 LINE",
"50 0 LINE"
);
}
);
width = 158;
},
{
layerId = "994FE389-9D54-4FAA-B055-C46A67020E78";
paths = (
{
closed = 1;
nodes = (
"163 0 LINE",
"163 683 LINE",
"70 683 LINE",
"70 0 LINE"
);
}
);
width = 233;
},
{
associatedMasterId = "61E9F240-DCC1-4244-924B-01C71F2248F0";
layerId = "F40E2F94-F4B3-4D3C-AA5D-04A91D7A3D3E";
paths = (
{
closed = 1;
nodes = (
"163 0 LINE",
"163 683 LINE",
"70 683 LINE",
"70 0 LINE"
);
}
);
width = 233;
}
);
note = I;
unicode = 0049;
},
{
glyphname = J;
lastChange = "2018-10-24 01:43:00 +0000";
layers = (
{
layerId = "61E9F240-DCC1-4244-924B-01C71F2248F0";
paths = (
{
closed = 1;
nodes = (
"221 -8 OFFCURVE",
"256 19 OFFCURVE",
"277 77 CURVE SMOOTH",
"292 117 OFFCURVE",
"294 161 OFFCURVE",
"294 210 CURVE SMOOTH",
"294 682 LINE",
"237 682 LINE",
"237 234 LINE SMOOTH",
"237 177 OFFCURVE",
"233 137 OFFCURVE",
"228 118 CURVE SMOOTH",
"219 86 OFFCURVE",
"202 67 OFFCURVE",
"169 67 CURVE SMOOTH",
"147 67 OFFCURVE",
"131 77 OFFCURVE",
"120 95 CURVE SMOOTH",
"108 115 OFFCURVE",
"105 146 OFFCURVE",
"105 179 CURVE SMOOTH",
"105 227 LINE",
"50 227 LINE",
"50 179 LINE SMOOTH",
"50 111 OFFCURVE",
"62 61 OFFCURVE",
"83 34 CURVE SMOOTH",
"106 5 OFFCURVE",
"134 -8 OFFCURVE",
"166 -8 CURVE SMOOTH"
);
}
);
width = 344;
},
{
layerId = "994FE389-9D54-4FAA-B055-C46A67020E78";
paths = (
{
closed = 1;
nodes = (
"335 -8 OFFCURVE",
"395 16 OFFCURVE",
"430 77 CURVE SMOOTH",
"450 112 OFFCURVE",
"456 156 OFFCURVE",
"456 210 CURVE SMOOTH",
"456 682 LINE",
"366 682 LINE",
"366 234 LINE SMOOTH",
"366 177 OFFCURVE",
"360 137 OFFCURVE",
"352 118 CURVE SMOOTH",
"338 84 OFFCURVE",
"305 67 OFFCURVE",
"257 67 CURVE SMOOTH",
"222 67 OFFCURVE",
"197 77 OFFCURVE",
"180 96 CURVE SMOOTH",
"163 115 OFFCURVE",
"156 142 OFFCURVE",
"156 179 CURVE SMOOTH",
"156 227 LINE",
"70 227 LINE",
"70 179 LINE SMOOTH",
"70 109 OFFCURVE",
"89 61 OFFCURVE",
"124 33 CURVE SMOOTH",
"160 5 OFFCURVE",
"202 -8 OFFCURVE",
"252 -8 CURVE SMOOTH"
);
}
);
width = 526;
},
{
associatedMasterId = "61E9F240-DCC1-4244-924B-01C71F2248F0";
layerId = "F40E2F94-F4B3-4D3C-AA5D-04A91D7A3D3E";
paths = (
{
closed = 1;
nodes = (
"335 -8 OFFCURVE",
"395 16 OFFCURVE",
"430 77 CURVE SMOOTH",
"450 112 OFFCURVE",
"456 156 OFFCURVE",
"456 210 CURVE SMOOTH",
"456 682 LINE",
"366 682 LINE",
"366 234 LINE SMOOTH",
"366 177 OFFCURVE",
"360 137 OFFCURVE",
"352 118 CURVE SMOOTH",
"338 84 OFFCURVE",
"305 67 OFFCURVE",
"257 67 CURVE SMOOTH",
"222 67 OFFCURVE",
"197 77 OFFCURVE",
"180 96 CURVE SMOOTH",
"163 115 OFFCURVE",
"156 142 OFFCURVE",
"156 179 CURVE SMOOTH",
"156 227 LINE",
"70 227 LINE",
"70 179 LINE SMOOTH",
"70 109 OFFCURVE",
"89 61 OFFCURVE",
"124 33 CURVE SMOOTH",
"160 5 OFFCURVE",
"202 -8 OFFCURVE",
"252 -8 CURVE SMOOTH"
);
}
);
width = 526;
}
);
note = J;
unicode = 004A;
},
{
glyphname = K;
lastChange = "2018-10-24 01:43:00 +0000";
layers = (
{
layerId = "61E9F240-DCC1-4244-924B-01C71F2248F0";
paths = (
{
closed = 1;
nodes = (
"107 0 LINE",
"107 237 LINE",
"174 342 LINE",
"326 0 LINE",
"401 0 LINE",
"219 406 LINE",
"397 681 LINE",
"316 681 LINE",
"107 349 LINE",
"107 681 LINE",
"50 681 LINE",
"50 0 LINE"
);
}
);
width = 451;
},
{
layerId = "994FE389-9D54-4FAA-B055-C46A67020E78";
paths = (
{
closed = 1;
nodes = (
"160 0 LINE",
"160 237 LINE",
"268 342 LINE",
"508 0 LINE",
"628 0 LINE",
"337 406 LINE",
"620 681 LINE",
"493 681 LINE",
"160 349 LINE",
"160 681 LINE",
"70 681 LINE",
"70 0 LINE"
);
}
);
width = 698;
},
{
associatedMasterId = "61E9F240-DCC1-4244-924B-01C71F2248F0";
layerId = "F40E2F94-F4B3-4D3C-AA5D-04A91D7A3D3E";
paths = (
{
closed = 1;
nodes = (
"160 0 LINE",
"160 237 LINE",
"268 342 LINE",
"508 0 LINE",
"628 0 LINE",
"337 406 LINE",
"620 681 LINE",
"493 681 LINE",
"160 349 LINE",
"160 681 LINE",
"70 681 LINE",
"70 0 LINE"
);
}
);
width = 698;
}
);
note = K;
unicode = 004B;
},
{
glyphname = L;
lastChange = "2018-10-24 01:43:00 +0000";
layers = (
{
layerId = "61E9F240-DCC1-4244-924B-01C71F2248F0";
paths = (
{
closed = 1;
nodes = (
"326 0 LINE",
"326 82 LINE",
"109 82 LINE",
"109 679 LINE",
"50 679 LINE",
"50 0 LINE"
);
}
);
width = 376;
},
{
layerId = "994FE389-9D54-4FAA-B055-C46A67020E78";
paths = (
{
closed = 1;
nodes = (
"506 0 LINE",
"506 82 LINE",
"162 82 LINE",
"162 679 LINE",
"70 679 LINE",
"70 0 LINE"
);
}
);
width = 576;
},
{
associatedMasterId = "61E9F240-DCC1-4244-924B-01C71F2248F0";
layerId = "F40E2F94-F4B3-4D3C-AA5D-04A91D7A3D3E";
paths = (
{
closed = 1;
nodes = (
"506 0 LINE",
"506 82 LINE",
"162 82 LINE",
"162 679 LINE",
"70 679 LINE",
"70 0 LINE"
);
}
);
width = 576;
}
);
note = L;
unicode = 004C;
},
{
glyphname = M;
lastChange = "2018-10-24 01:43:00 +0000";
layers = (
{
layerId = "61E9F240-DCC1-4244-924B-01C71F2248F0";
paths = (
{
closed = 1;
nodes = (
"105 1 LINE",
"105 402 LINE SMOOTH",
"105 416 OFFCURVE",
"105 464 OFFCURVE",
"105 477 CURVE SMOOTH",
"105 516 OFFCURVE",
"104 535 OFFCURVE",
"104 554 CURVE SMOOTH",
"104 576 LINE",
"229 1 LINE",
"285 1 LINE",
"408 576 LINE",
"408 472 LINE SMOOTH",
"408 439 OFFCURVE",
"409 416 OFFCURVE",
"409 402 CURVE SMOOTH",
"409 1 LINE",
"461 1 LINE",
"461 681 LINE",
"379 681 LINE",
"256 106 LINE",
"134 681 LINE",
"50 681 LINE",
"50 1 LINE"
);
}
);
width = 511;
},
{
layerId = "994FE389-9D54-4FAA-B055-C46A67020E78";
paths = (
{
closed = 1;
nodes = (
"158 1 LINE",
"158 402 LINE SMOOTH",
"158 418 OFFCURVE",
"158 444 OFFCURVE",
"157 478 CURVE SMOOTH",
"156 512 OFFCURVE",
"155 537 OFFCURVE",
"155 554 CURVE SMOOTH",
"155 576 LINE",
"352 1 LINE",
"443 1 LINE",
"638 576 LINE",
"638 472 LINE SMOOTH",
"638 439 OFFCURVE",
"637 416 OFFCURVE",
"637 402 CURVE SMOOTH",
"637 1 LINE",
"723 1 LINE",
"723 681 LINE",
"593 681 LINE",
"398 106 LINE",
"202 681 LINE",
"70 681 LINE",
"70 1 LINE"
);
}
);
width = 793;
},
{
associatedMasterId = "61E9F240-DCC1-4244-924B-01C71F2248F0";
layerId = "F40E2F94-F4B3-4D3C-AA5D-04A91D7A3D3E";
paths = (
{
closed = 1;
nodes = (
"158 1 LINE",
"158 402 LINE SMOOTH",
"158 418 OFFCURVE",
"158 444 OFFCURVE",
"157 478 CURVE SMOOTH",
"156 512 OFFCURVE",
"155 537 OFFCURVE",
"155 554 CURVE SMOOTH",
"155 576 LINE",
"352 1 LINE",
"443 1 LINE",
"638 576 LINE",
"638 472 LINE SMOOTH",
"638 439 OFFCURVE",
"637 416 OFFCURVE",
"637 402 CURVE SMOOTH",
"637 1 LINE",
"723 1 LINE",
"723 681 LINE",
"593 681 LINE",
"398 106 LINE",
"202 681 LINE",
"70 681 LINE",
"70 1 LINE"
);
}
);
width = 793;
}
);
note = M;
unicode = 004D;
},
{
glyphname = N;
lastChange = "2018-10-24 01:43:00 +0000";
layers = (
{
layerId = "61E9F240-DCC1-4244-924B-01C71F2248F0";
paths = (
{
closed = 1;
nodes = (
"106 -2 LINE",
"106 551 LINE",
"327 -2 LINE",
"393 -2 LINE",
"393 682 LINE",
"337 682 LINE",
"337 128 LINE",
"119 682 LINE",
"50 682 LINE",
"50 -2 LINE"
);
}
);
width = 443;
},
{
layerId = "994FE389-9D54-4FAA-B055-C46A67020E78";
paths = (
{
closed = 1;
nodes = (
"159 -2 LINE",
"159 551 LINE",
"509 -2 LINE",
"612 -2 LINE",
"612 682 LINE",
"525 682 LINE",
"525 128 LINE",
"180 682 LINE",
"70 682 LINE",
"70 -2 LINE"
);
}
);
width = 682;
},
{
associatedMasterId = "61E9F240-DCC1-4244-924B-01C71F2248F0";
layerId = "F40E2F94-F4B3-4D3C-AA5D-04A91D7A3D3E";
paths = (
{
closed = 1;
nodes = (
"159 -2 LINE",
"159 551 LINE",
"509 -2 LINE",
"612 -2 LINE",
"612 682 LINE",
"525 682 LINE",
"525 128 LINE",
"180 682 LINE",
"70 682 LINE",
"70 -2 LINE"
);
}
);
width = 682;
}
);
note = N;
unicode = 004E;
},
{
glyphname = O;
lastChange = "2018-10-24 01:43:00 +0000";
layers = (
{
layerId = "61E9F240-DCC1-4244-924B-01C71F2248F0";
paths = (
{
closed = 1;
nodes = (
"321 -10 OFFCURVE",
"371 31 OFFCURVE",
"407 106 CURVE SMOOTH",
"435 165 OFFCURVE",
"453 242 OFFCURVE",
"454 349 CURVE SMOOTH",
"455 434 OFFCURVE",
"439 517 OFFCURVE",
"413 571 CURVE SMOOTH",
"375 650 OFFCURVE",
"319 685 OFFCURVE",
"251 685 CURVE SMOOTH",
"183 685 OFFCURVE",
"128 644 OFFCURVE",
"91 562 CURVE SMOOTH",
"66 505 OFFCURVE",
"50 430 OFFCURVE",
"50 335 CURVE SMOOTH",
"50 235 OFFCURVE",
"66 156 OFFCURVE",
"99 90 CURVE",
"135 24 OFFCURVE",
"185 -10 OFFCURVE",
"249 -10 CURVE SMOOTH"
);
},
{
closed = 1;
nodes = (
"204 70 OFFCURVE",
"167 95 OFFCURVE",
"143 144 CURVE SMOOTH",
"119 194 OFFCURVE",
"109 253 OFFCURVE",
"109 328 CURVE SMOOTH",
"109 422 OFFCURVE",
"121 490 OFFCURVE",
"148 535 CURVE SMOOTH",
"177 583 OFFCURVE",
"212 606 OFFCURVE",
"253 606 CURVE SMOOTH",
"303 606 OFFCURVE",
"335 577 OFFCURVE",
"359 533 CURVE SMOOTH",
"383 488 OFFCURVE",
"395 427 OFFCURVE",
"395 348 CURVE SMOOTH",
"395 277 OFFCURVE",
"385 210 OFFCURVE",
"364 156 CURVE SMOOTH",
"341 97 OFFCURVE",
"305 70 OFFCURVE",
"256 70 CURVE SMOOTH"
);
}
);
width = 504;
},
{
layerId = "994FE389-9D54-4FAA-B055-C46A67020E78";
paths = (
{
closed = 1;
nodes = (
"492 -10 OFFCURVE",
"576 29 OFFCURVE",
"634 104 CURVE SMOOTH",
"686 171 OFFCURVE",
"709 252 OFFCURVE",
"710 349 CURVE SMOOTH",
"711 423 OFFCURVE",
"688 515 OFFCURVE",
"645 572 CURVE SMOOTH",
"588 646 OFFCURVE",
"503 685 OFFCURVE",
"387 685 CURVE SMOOTH",
"279 685 OFFCURVE",
"193 644 OFFCURVE",
"135 562 CURVE SMOOTH",
"91 499 OFFCURVE",
"70 423 OFFCURVE",
"70 335 CURVE SMOOTH",
"70 236 OFFCURVE",
"95 156 OFFCURVE",
"147 90 CURVE",
"205 24 OFFCURVE",
"285 -10 OFFCURVE",
"385 -10 CURVE SMOOTH"
);
},
{
closed = 1;
nodes = (
"314 70 OFFCURVE",
"255 95 OFFCURVE",
"217 144 CURVE SMOOTH",
"179 194 OFFCURVE",
"162 254 OFFCURVE",
"162 328 CURVE SMOOTH",
"162 415 OFFCURVE",
"182 488 OFFCURVE",
"226 536 CURVE SMOOTH",
"269 583 OFFCURVE",
"328 606 OFFCURVE",
"393 606 CURVE SMOOTH",
"463 606 OFFCURVE",
"517 581 OFFCURVE",
"558 535 CURVE SMOOTH",
"599 488 OFFCURVE",
"618 426 OFFCURVE",
"618 348 CURVE SMOOTH",
"618 275 OFFCURVE",
"601 211 OFFCURVE",
"566 155 CURVE SMOOTH",
"531 97 OFFCURVE",
"474 70 OFFCURVE",
"396 70 CURVE SMOOTH"
);
}
);
width = 780;
},
{
associatedMasterId = "61E9F240-DCC1-4244-924B-01C71F2248F0";
layerId = "F40E2F94-F4B3-4D3C-AA5D-04A91D7A3D3E";
paths = (
{
closed = 1;
nodes = (
"492 -10 OFFCURVE",
"576 29 OFFCURVE",
"634 104 CURVE SMOOTH",
"686 171 OFFCURVE",
"709 252 OFFCURVE",
"710 349 CURVE SMOOTH",
"711 423 OFFCURVE",
"688 515 OFFCURVE",
"645 572 CURVE SMOOTH",
"588 646 OFFCURVE",
"503 685 OFFCURVE",
"387 685 CURVE SMOOTH",
"279 685 OFFCURVE",
"193 644 OFFCURVE",
"135 562 CURVE SMOOTH",
"91 499 OFFCURVE",
"70 423 OFFCURVE",
"70 335 CURVE SMOOTH",
"70 236 OFFCURVE",
"95 156 OFFCURVE",
"147 90 CURVE",
"205 24 OFFCURVE",
"285 -10 OFFCURVE",
"385 -10 CURVE SMOOTH"
);
},
{
closed = 1;
nodes = (
"314 70 OFFCURVE",
"255 95 OFFCURVE",
"217 144 CURVE SMOOTH",
"179 194 OFFCURVE",
"162 254 OFFCURVE",
"162 328 CURVE SMOOTH",
"162 415 OFFCURVE",
"182 488 OFFCURVE",
"226 536 CURVE SMOOTH",
"269 583 OFFCURVE",
"328 606 OFFCURVE",
"393 606 CURVE SMOOTH",
"463 606 OFFCURVE",
"517 581 OFFCURVE",
"558 535 CURVE SMOOTH",
"599 488 OFFCURVE",
"618 426 OFFCURVE",
"618 348 CURVE SMOOTH",
"618 275 OFFCURVE",
"601 211 OFFCURVE",
"566 155 CURVE SMOOTH",
"531 97 OFFCURVE",
"474 70 OFFCURVE",
"396 70 CURVE SMOOTH"
);
}
);
width = 780;
}
);
note = O;
unicode = 004F;
},
{
glyphname = P;
lastChange = "2018-10-24 01:43:00 +0000";
layers = (
{
layerId = "61E9F240-DCC1-4244-924B-01C71F2248F0";
paths = (
{
closed = 1;
nodes = (
"109 0 LINE",
"109 288 LINE",
"245 288 LINE SMOOTH",
"286 288 OFFCURVE",
"320 307 OFFCURVE",
"340 346 CURVE SMOOTH",
"362 388 OFFCURVE",
"372 435 OFFCURVE",
"372 486 CURVE SMOOTH",
"372 542 OFFCURVE",
"362 593 OFFCURVE",
"338 629 CURVE SMOOTH",
"308 674 OFFCURVE",
"275 682 OFFCURVE",
"245 682 CURVE SMOOTH",
"50 682 LINE",
"50 0 LINE"
);
},
{
closed = 1;
nodes = (
"109 603 LINE",
"225 603 LINE SMOOTH",
"247 603 OFFCURVE",
"265 597 OFFCURVE",
"278 588 CURVE SMOOTH",
"299 573 OFFCURVE",
"313 541 OFFCURVE",
"313 486 CURVE SMOOTH",
"313 442 OFFCURVE",
"304 410 OFFCURVE",
"288 392 CURVE SMOOTH",
"272 373 OFFCURVE",
"253 366 OFFCURVE",
"225 366 CURVE SMOOTH",
"109 366 LINE"
);
}
);
width = 422;
},
{
layerId = "994FE389-9D54-4FAA-B055-C46A67020E78";
paths = (
{
closed = 1;
nodes = (
"162 0 LINE",
"162 288 LINE",
"377 288 LINE SMOOTH",
"446 288 OFFCURVE",
"497 307 OFFCURVE",
"530 347 CURVE SMOOTH",
"562 386 OFFCURVE",
"580 433 OFFCURVE",
"580 486 CURVE SMOOTH",
"580 548 OFFCURVE",
"561 596 OFFCURVE",
"524 631 CURVE SMOOTH",
"487 666 OFFCURVE",
"438 682 OFFCURVE",
"377 682 CURVE SMOOTH",
"70 682 LINE",
"70 0 LINE"
);
},
{
closed = 1;
nodes = (
"162 603 LINE",
"346 603 LINE SMOOTH",
"382 603 OFFCURVE",
"410 597 OFFCURVE",
"431 588 CURVE SMOOTH",
"468 572 OFFCURVE",
"486 536 OFFCURVE",
"486 486 CURVE SMOOTH",
"486 441 OFFCURVE",
"472 410 OFFCURVE",
"448 392 CURVE SMOOTH",
"423 374 OFFCURVE",
"388 366 OFFCURVE",
"346 366 CURVE SMOOTH",
"162 366 LINE"
);
}
);
width = 650;
},
{
associatedMasterId = "61E9F240-DCC1-4244-924B-01C71F2248F0";
layerId = "F40E2F94-F4B3-4D3C-AA5D-04A91D7A3D3E";
paths = (
{
closed = 1;
nodes = (
"162 0 LINE",
"162 288 LINE",
"377 288 LINE SMOOTH",
"446 288 OFFCURVE",
"497 307 OFFCURVE",
"530 347 CURVE SMOOTH",
"562 386 OFFCURVE",
"580 433 OFFCURVE",
"580 486 CURVE SMOOTH",
"580 548 OFFCURVE",
"561 596 OFFCURVE",
"524 631 CURVE SMOOTH",
"487 666 OFFCURVE",
"438 682 OFFCURVE",
"377 682 CURVE SMOOTH",
"70 682 LINE",
"70 0 LINE"
);
},
{
closed = 1;
nodes = (
"162 603 LINE",
"346 603 LINE SMOOTH",
"382 603 OFFCURVE",
"410 597 OFFCURVE",
"431 588 CURVE SMOOTH",
"468 572 OFFCURVE",
"486 536 OFFCURVE",
"486 486 CURVE SMOOTH",
"486 441 OFFCURVE",
"472 410 OFFCURVE",
"448 392 CURVE SMOOTH",
"423 374 OFFCURVE",
"388 366 OFFCURVE",
"346 366 CURVE SMOOTH",
"162 366 LINE"
);
}
);
width = 650;
}
);
note = P;
unicode = 0050;
},
{
glyphname = Q;
lastChange = "2018-10-24 01:43:00 +0000";
layers = (
{
layerId = "61E9F240-DCC1-4244-924B-01C71F2248F0";
paths = (
{
closed = 1;
nodes = (
"451 15 LINE",
"394 84 LINE",
"418 122 OFFCURVE",
"435 175 OFFCURVE",
"444 228 CURVE SMOOTH",
"451 269 OFFCURVE",
"453 306 OFFCURVE",
"453 352 CURVE SMOOTH",
"453 443 OFFCURVE",
"440 515 OFFCURVE",
"412 576 CURVE SMOOTH",
"379 648 OFFCURVE",
"328 686 OFFCURVE",
"251 686 CURVE SMOOTH",
"178 686 OFFCURVE",
"126 644 OFFCURVE",
"92 565 CURVE SMOOTH",
"65 501 OFFCURVE",
"50 434 OFFCURVE",
"50 337 CURVE SMOOTH",
"50 238 OFFCURVE",
"67 157 OFFCURVE",
"98 93 CURVE",
"134 26 OFFCURVE",
"188 -7 OFFCURVE",
"250 -7 CURVE SMOOTH",
"268 -7 OFFCURVE",
"288 -5 OFFCURVE",
"308 6 CURVE SMOOTH",
"326 16 OFFCURVE",
"339 21 OFFCURVE",
"357 37 CURVE",
"422 -40 LINE"
);
},
{
closed = 1;
nodes = (
"208 72 OFFCURVE",
"172 94 OFFCURVE",
"145 145 CURVE SMOOTH",
"121 190 OFFCURVE",
"107 261 OFFCURVE",
"108 331 CURVE SMOOTH",
"109 425 OFFCURVE",
"123 498 OFFCURVE",
"147 539 CURVE SMOOTH",
"176 588 OFFCURVE",
"212 607 OFFCURVE",
"253 607 CURVE SMOOTH",
"294 607 OFFCURVE",
"331 586 OFFCURVE",
"357 538 CURVE SMOOTH",
"381 492 OFFCURVE",
"396 431 OFFCURVE",
"396 350 CURVE SMOOTH",
"396 314 OFFCURVE",
"392 266 OFFCURVE",
"388 241 CURVE SMOOTH",
"382 204 OFFCURVE",
"369 163 OFFCURVE",
"352 136 CURVE",
"297 203 LINE",
"270 147 LINE",
"316 91 LINE",
"308 85 OFFCURVE",
"302 79 OFFCURVE",
"288 76 CURVE",
"278 74 OFFCURVE",
"267 72 OFFCURVE",
"256 72 CURVE SMOOTH"
);
}
);
width = 503;
},
{
layerId = "994FE389-9D54-4FAA-B055-C46A67020E78";
paths = (
{
closed = 1;
nodes = (
"705 15 LINE",
"615 84 LINE",
"652 122 OFFCURVE",
"679 170 OFFCURVE",
"695 230 CURVE SMOOTH",
"705 268 OFFCURVE",
"709 307 OFFCURVE",
"709 352 CURVE SMOOTH",
"709 447 OFFCURVE",
"684 521 OFFCURVE",
"646 573 CURVE SMOOTH",
"589 651 OFFCURVE",
"504 686 OFFCURVE",
"387 686 CURVE SMOOTH",
"276 686 OFFCURVE",
"193 646 OFFCURVE",
"136 565 CURVE SMOOTH",
"92 501 OFFCURVE",
"70 426 OFFCURVE",
"70 337 CURVE SMOOTH",
"70 239 OFFCURVE",
"96 157 OFFCURVE",
"146 93 CURVE",
"204 26 OFFCURVE",
"285 -7 OFFCURVE",
"386 -7 CURVE SMOOTH",
"419 -7 OFFCURVE",
"451 -4 OFFCURVE",
"479 6 CURVE SMOOTH",
"506 15 OFFCURVE",
"534 24 OFFCURVE",
"558 37 CURVE",
"660 -40 LINE"
);
},
{
closed = 1;
nodes = (
"319 72 OFFCURVE",
"261 96 OFFCURVE",
"222 143 CURVE SMOOTH",
"183 190 OFFCURVE",
"162 252 OFFCURVE",
"163 331 CURVE SMOOTH",
"164 425 OFFCURVE",
"183 494 OFFCURVE",
"224 539 CURVE SMOOTH",
"266 585 OFFCURVE",
"322 607 OFFCURVE",
"393 607 CURVE SMOOTH",
"466 607 OFFCURVE",
"519 582 OFFCURVE",
"558 536 CURVE SMOOTH",
"598 490 OFFCURVE",
"619 427 OFFCURVE",
"619 350 CURVE SMOOTH",
"619 315 OFFCURVE",
"614 278 OFFCURVE",
"605 240 CURVE SMOOTH",
"595 201 OFFCURVE",
"576 166 OFFCURVE",
"549 136 CURVE",
"463 203 LINE",
"419 147 LINE",
"491 91 LINE",
"478 84 OFFCURVE",
"464 79 OFFCURVE",
"448 76 CURVE",
"433 74 OFFCURVE",
"414 72 OFFCURVE",
"396 72 CURVE SMOOTH"
);
}
);
width = 779;
},
{
associatedMasterId = "61E9F240-DCC1-4244-924B-01C71F2248F0";
layerId = "F40E2F94-F4B3-4D3C-AA5D-04A91D7A3D3E";
paths = (
{
closed = 1;
nodes = (
"705 15 LINE",
"615 84 LINE",
"652 122 OFFCURVE",
"679 170 OFFCURVE",
"695 230 CURVE SMOOTH",
"705 268 OFFCURVE",
"709 307 OFFCURVE",
"709 352 CURVE SMOOTH",
"709 447 OFFCURVE",
"684 521 OFFCURVE",
"646 573 CURVE SMOOTH",
"589 651 OFFCURVE",
"504 686 OFFCURVE",
"387 686 CURVE SMOOTH",
"276 686 OFFCURVE",
"193 646 OFFCURVE",
"136 565 CURVE SMOOTH",
"92 501 OFFCURVE",
"70 426 OFFCURVE",
"70 337 CURVE SMOOTH",
"70 239 OFFCURVE",
"96 157 OFFCURVE",
"146 93 CURVE",
"204 26 OFFCURVE",
"285 -7 OFFCURVE",
"386 -7 CURVE SMOOTH",
"419 -7 OFFCURVE",
"451 -4 OFFCURVE",
"479 6 CURVE SMOOTH",
"506 15 OFFCURVE",
"534 24 OFFCURVE",
"558 37 CURVE",
"660 -40 LINE"
);
},
{
closed = 1;
nodes = (
"319 72 OFFCURVE",
"261 96 OFFCURVE",
"222 143 CURVE SMOOTH",
"183 190 OFFCURVE",
"162 252 OFFCURVE",
"163 331 CURVE SMOOTH",
"164 425 OFFCURVE",
"183 494 OFFCURVE",
"224 539 CURVE SMOOTH",
"266 585 OFFCURVE",
"322 607 OFFCURVE",
"393 607 CURVE SMOOTH",
"466 607 OFFCURVE",
"519 582 OFFCURVE",
"558 536 CURVE SMOOTH",
"598 490 OFFCURVE",
"619 427 OFFCURVE",
"619 350 CURVE SMOOTH",
"619 315 OFFCURVE",
"614 278 OFFCURVE",
"605 240 CURVE SMOOTH",
"595 201 OFFCURVE",
"576 166 OFFCURVE",
"549 136 CURVE",
"463 203 LINE",
"419 147 LINE",
"491 91 LINE",
"478 84 OFFCURVE",
"464 79 OFFCURVE",
"448 76 CURVE",
"433 74 OFFCURVE",
"414 72 OFFCURVE",
"396 72 CURVE SMOOTH"
);
}
);
width = 779;
}
);
note = Q;
unicode = 0051;
},
{
glyphname = R;
lastChange = "2018-10-24 01:43:00 +0000";
layers = (
{
layerId = "61E9F240-DCC1-4244-924B-01C71F2248F0";
paths = (
{
closed = 1;
nodes = (
"108 0 LINE",
"108 293 LINE",
"241 293 LINE SMOOTH",
"263 293 OFFCURVE",
"282 288 OFFCURVE",
"295 280 CURVE SMOOTH",
"314 267 OFFCURVE",
"323 234 OFFCURVE",
"325 190 CURVE SMOOTH",
"329 76 LINE SMOOTH",
"330 34 OFFCURVE",
"332 30 OFFCURVE",
"332 23 CURVE",
"332 20 OFFCURVE",
"333 7 OFFCURVE",
"335 0 CURVE",
"408 0 LINE",
"408 16 LINE",
"398 22 OFFCURVE",
"390 32 OFFCURVE",
"389 56 CURVE",
"384 75 OFFCURVE",
"383 90 OFFCURVE",
"383 116 CURVE SMOOTH",
"382 206 LINE",
"382 248 OFFCURVE",
"377 275 OFFCURVE",
"369 293 CURVE",
"360 309 OFFCURVE",
"347 324 OFFCURVE",
"330 334 CURVE",
"350 350 OFFCURVE",
"364 371 OFFCURVE",
"375 397 CURVE SMOOTH",
"385 421 OFFCURVE",
"391 459 OFFCURVE",
"391 496 CURVE SMOOTH",
"391 572 OFFCURVE",
"371 628 OFFCURVE",
"330 659 CURVE SMOOTH",
"302 680 OFFCURVE",
"268 680 OFFCURVE",
"250 680 CURVE SMOOTH",
"50 680 LINE",
"50 0 LINE"
);
},
{
closed = 1;
nodes = (
"108 601 LINE",
"250 601 LINE SMOOTH",
"270 601 OFFCURVE",
"287 596 OFFCURVE",
"299 587 CURVE",
"322 573 OFFCURVE",
"332 537 OFFCURVE",
"332 487 CURVE SMOOTH",
"332 445 OFFCURVE",
"324 412 OFFCURVE",
"308 394 CURVE SMOOTH",
"289 372 OFFCURVE",
"265 369 OFFCURVE",
"244 369 CURVE SMOOTH",
"108 369 LINE"
);
}
);
width = 458;
},
{
layerId = "994FE389-9D54-4FAA-B055-C46A67020E78";
paths = (
{
closed = 1;
nodes = (
"163 0 LINE",
"163 293 LINE",
"373 293 LINE SMOOTH",
"410 293 OFFCURVE",
"437 288 OFFCURVE",
"457 280 CURVE SMOOTH",
"489 267 OFFCURVE",
"504 234 OFFCURVE",
"506 190 CURVE SMOOTH",
"511 76 LINE SMOOTH",
"513 31 OFFCURVE",
"515 31 OFFCURVE",
"516 23 CURVE",
"517 14 OFFCURVE",
"520 6 OFFCURVE",
"523 0 CURVE",
"636 0 LINE",
"636 16 LINE",
"621 22 OFFCURVE",
"611 34 OFFCURVE",
"606 56 CURVE",
"602 69 OFFCURVE",
"600 89 OFFCURVE",
"599 116 CURVE SMOOTH",
"596 206 LINE",
"596 245 OFFCURVE",
"589 275 OFFCURVE",
"575 293 CURVE",
"561 309 OFFCURVE",
"541 324 OFFCURVE",
"514 334 CURVE",
"545 350 OFFCURVE",
"568 371 OFFCURVE",
"584 396 CURVE SMOOTH",
"601 423 OFFCURVE",
"610 457 OFFCURVE",
"610 496 CURVE SMOOTH",
"610 575 OFFCURVE",
"577 628 OFFCURVE",
"514 659 CURVE SMOOTH",
"480 676 OFFCURVE",
"433 680 OFFCURVE",
"386 680 CURVE SMOOTH",
"70 680 LINE",
"70 0 LINE"
);
},
{
closed = 1;
nodes = (
"163 601 LINE",
"388 601 LINE SMOOTH",
"419 601 OFFCURVE",
"445 596 OFFCURVE",
"465 587 CURVE",
"501 573 OFFCURVE",
"516 537 OFFCURVE",
"516 487 CURVE SMOOTH",
"516 444 OFFCURVE",
"504 412 OFFCURVE",
"479 394 CURVE SMOOTH",
"455 376 OFFCURVE",
"419 369 OFFCURVE",
"376 369 CURVE SMOOTH",
"163 369 LINE"
);
}
);
width = 706;
},
{
associatedMasterId = "61E9F240-DCC1-4244-924B-01C71F2248F0";
layerId = "F40E2F94-F4B3-4D3C-AA5D-04A91D7A3D3E";
paths = (
{
closed = 1;
nodes = (
"163 0 LINE",
"163 293 LINE",
"373 293 LINE SMOOTH",
"410 293 OFFCURVE",
"437 288 OFFCURVE",
"457 280 CURVE SMOOTH",
"489 267 OFFCURVE",
"504 234 OFFCURVE",
"506 190 CURVE SMOOTH",
"511 76 LINE SMOOTH",
"513 31 OFFCURVE",
"515 30 OFFCURVE",
"516 23 CURVE",
"517 14 OFFCURVE",
"520 6 OFFCURVE",
"523 0 CURVE",
"636 0 LINE",
"636 16 LINE",
"621 22 OFFCURVE",
"611 34 OFFCURVE",
"606 56 CURVE",
"602 69 OFFCURVE",
"600 89 OFFCURVE",
"599 116 CURVE SMOOTH",
"596 206 LINE",
"596 245 OFFCURVE",
"589 275 OFFCURVE",
"575 293 CURVE",
"561 309 OFFCURVE",
"541 324 OFFCURVE",
"514 334 CURVE",
"545 350 OFFCURVE",
"568 371 OFFCURVE",
"584 396 CURVE SMOOTH",
"601 423 OFFCURVE",
"610 457 OFFCURVE",
"610 496 CURVE SMOOTH",
"610 575 OFFCURVE",
"577 628 OFFCURVE",
"514 659 CURVE SMOOTH",
"480 676 OFFCURVE",
"433 680 OFFCURVE",
"386 680 CURVE SMOOTH",
"70 680 LINE",
"70 0 LINE"
);
},
{
closed = 1;
nodes = (
"163 601 LINE",
"388 601 LINE SMOOTH",
"419 601 OFFCURVE",
"445 596 OFFCURVE",
"465 587 CURVE",
"501 573 OFFCURVE",
"516 537 OFFCURVE",
"516 487 CURVE SMOOTH",
"516 444 OFFCURVE",
"504 412 OFFCURVE",
"479 394 CURVE SMOOTH",
"455 376 OFFCURVE",
"419 369 OFFCURVE",
"376 369 CURVE SMOOTH",
"163 369 LINE"
);
}
);
width = 706;
}
);
note = R;
unicode = 0052;
},
{
glyphname = S;
lastChange = "2018-10-24 01:43:00 +0000";
layers = (
{
layerId = "61E9F240-DCC1-4244-924B-01C71F2248F0";
paths = (
{
closed = 1;
nodes = (
"266 -9 OFFCURVE",
"305 10 OFFCURVE",
"334 36 CURVE SMOOTH",
"370 68 OFFCURVE",
"386 124 OFFCURVE",
"386 197 CURVE SMOOTH",
"386 255 OFFCURVE",
"375 300 OFFCURVE",
"347 331 CURVE SMOOTH",
"326 354 OFFCURVE",
"309 366 OFFCURVE",
"279 376 CURVE SMOOTH",
"221 396 LINE SMOOTH",
"198 404 OFFCURVE",
"161 421 OFFCURVE",
"145 433 CURVE SMOOTH",
"128 447 OFFCURVE",
"117 470 OFFCURVE",
"117 505 CURVE SMOOTH",
"117 535 OFFCURVE",
"126 564 OFFCURVE",
"139 582 CURVE SMOOTH",
"158 609 OFFCURVE",
"184 617 OFFCURVE",
"213 617 CURVE SMOOTH",
"254 617 OFFCURVE",
"285 597 OFFCURVE",
"301 566 CURVE",
"311 547 OFFCURVE",
"316 520 OFFCURVE",
"319 483 CURVE",
"373 483 LINE",
"373 558 OFFCURVE",
"358 612 OFFCURVE",
"328 645 CURVE",
"296 676 OFFCURVE",
"258 696 OFFCURVE",
"216 696 CURVE SMOOTH",
"166 696 OFFCURVE",
"129 676 OFFCURVE",
"103 637 CURVE SMOOTH",
"79 601 OFFCURVE",
"65 552 OFFCURVE",
"65 489 CURVE SMOOTH",
"65 438 OFFCURVE",
"77 392 OFFCURVE",
"106 366 CURVE",
"122 349 OFFCURVE",
"145 334 OFFCURVE",
"184 320 CURVE SMOOTH",
"240 300 LINE SMOOTH",
"277 287 OFFCURVE",
"293 283 OFFCURVE",
"310 260 CURVE SMOOTH",
"322 244 OFFCURVE",
"331 221 OFFCURVE",
"331 183 CURVE SMOOTH",
"331 138 OFFCURVE",
"318 105 OFFCURVE",
"279 83 CURVE SMOOTH",
"262 73 OFFCURVE",
"243 67 OFFCURVE",
"221 67 CURVE SMOOTH",
"173 67 OFFCURVE",
"139 88 OFFCURVE",
"121 132 CURVE SMOOTH",
"111 158 OFFCURVE",
"105 185 OFFCURVE",
"105 226 CURVE",
"50 226 LINE",
"50 155 OFFCURVE",
"64 96 OFFCURVE",
"94 55 CURVE SMOOTH",
"125 12 OFFCURVE",
"167 -9 OFFCURVE",
"216 -9 CURVE SMOOTH"
);
}
);
width = 436;
},
{
layerId = "994FE389-9D54-4FAA-B055-C46A67020E78";
paths = (
{
closed = 1;
nodes = (
"406 -9 OFFCURVE",
"468 7 OFFCURVE",
"522 37 CURVE SMOOTH",
"576 68 OFFCURVE",
"603 123 OFFCURVE",
"603 197 CURVE SMOOTH",
"603 257 OFFCURVE",
"582 302 OFFCURVE",
"539 333 CURVE SMOOTH",
"513 352 OFFCURVE",
"480 366 OFFCURVE",
"434 376 CURVE SMOOTH",
"341 397 LINE SMOOTH",
"278 411 OFFCURVE",
"237 424 OFFCURVE",
"220 433 CURVE SMOOTH",
"192 447 OFFCURVE",
"178 473 OFFCURVE",
"178 505 CURVE SMOOTH",
"178 536 OFFCURVE",
"189 561 OFFCURVE",
"213 583 CURVE SMOOTH",
"239 606 OFFCURVE",
"275 617 OFFCURVE",
"329 617 CURVE SMOOTH",
"394 617 OFFCURVE",
"441 598 OFFCURVE",
"469 566 CURVE",
"484 547 OFFCURVE",
"493 519 OFFCURVE",
"498 483 CURVE",
"583 483 LINE",
"583 557 OFFCURVE",
"559 612 OFFCURVE",
"510 645 CURVE",
"460 676 OFFCURVE",
"402 696 OFFCURVE",
"332 696 CURVE SMOOTH",
"255 696 OFFCURVE",
"196 676 OFFCURVE",
"155 638 CURVE SMOOTH",
"112 598 OFFCURVE",
"92 549 OFFCURVE",
"92 489 CURVE SMOOTH",
"92 435 OFFCURVE",
"114 392 OFFCURVE",
"157 366 CURVE",
"181 350 OFFCURVE",
"222 333 OFFCURVE",
"281 320 CURVE SMOOTH",
"372 300 LINE SMOOTH",
"415 291 OFFCURVE",
"447 283 OFFCURVE",
"482 259 CURVE SMOOTH",
"501 247 OFFCURVE",
"515 220 OFFCURVE",
"515 183 CURVE SMOOTH",
"515 134 OFFCURVE",
"487 102 OFFCURVE",
"434 83 CURVE SMOOTH",
"406 73 OFFCURVE",
"374 67 OFFCURVE",
"341 67 CURVE SMOOTH",
"264 67 OFFCURVE",
"211 88 OFFCURVE",
"182 133 CURVE SMOOTH",
"166 158 OFFCURVE",
"158 188 OFFCURVE",
"156 226 CURVE",
"70 226 LINE",
"70 155 OFFCURVE",
"92 96 OFFCURVE",
"140 55 CURVE SMOOTH",
"187 14 OFFCURVE",
"252 -9 OFFCURVE",
"334 -9 CURVE SMOOTH"
);
}
);
width = 673;
},
{
associatedMasterId = "61E9F240-DCC1-4244-924B-01C71F2248F0";
layerId = "F40E2F94-F4B3-4D3C-AA5D-04A91D7A3D3E";
paths = (
{
closed = 1;
nodes = (
"406 -9 OFFCURVE",
"468 7 OFFCURVE",
"522 37 CURVE SMOOTH",
"576 68 OFFCURVE",
"603 123 OFFCURVE",
"603 197 CURVE SMOOTH",
"603 257 OFFCURVE",
"582 302 OFFCURVE",
"539 333 CURVE SMOOTH",
"513 352 OFFCURVE",
"480 366 OFFCURVE",
"434 376 CURVE SMOOTH",
"341 397 LINE SMOOTH",
"278 411 OFFCURVE",
"237 424 OFFCURVE",
"220 433 CURVE SMOOTH",
"192 447 OFFCURVE",
"178 473 OFFCURVE",
"178 505 CURVE SMOOTH",
"178 536 OFFCURVE",
"189 561 OFFCURVE",
"213 583 CURVE SMOOTH",
"239 606 OFFCURVE",
"275 617 OFFCURVE",
"329 617 CURVE SMOOTH",
"394 617 OFFCURVE",
"441 598 OFFCURVE",
"469 566 CURVE",
"484 547 OFFCURVE",
"493 519 OFFCURVE",
"498 483 CURVE",
"583 483 LINE",
"583 557 OFFCURVE",
"559 612 OFFCURVE",
"510 645 CURVE",
"460 676 OFFCURVE",
"402 696 OFFCURVE",
"332 696 CURVE SMOOTH",
"255 696 OFFCURVE",
"196 676 OFFCURVE",
"155 638 CURVE SMOOTH",
"112 598 OFFCURVE",
"92 549 OFFCURVE",
"92 489 CURVE SMOOTH",
"92 435 OFFCURVE",
"114 392 OFFCURVE",
"157 366 CURVE",
"181 350 OFFCURVE",
"222 333 OFFCURVE",
"281 320 CURVE SMOOTH",
"372 300 LINE SMOOTH",
"415 291 OFFCURVE",
"447 283 OFFCURVE",
"482 259 CURVE SMOOTH",
"501 247 OFFCURVE",
"515 220 OFFCURVE",
"515 183 CURVE SMOOTH",
"515 134 OFFCURVE",
"487 102 OFFCURVE",
"434 83 CURVE SMOOTH",
"406 73 OFFCURVE",
"374 67 OFFCURVE",
"341 67 CURVE SMOOTH",
"264 67 OFFCURVE",
"211 88 OFFCURVE",
"182 133 CURVE SMOOTH",
"166 158 OFFCURVE",
"158 188 OFFCURVE",
"156 226 CURVE",
"70 226 LINE",
"70 155 OFFCURVE",
"92 96 OFFCURVE",
"140 55 CURVE SMOOTH",
"187 14 OFFCURVE",
"252 -9 OFFCURVE",
"334 -9 CURVE SMOOTH"
);
}
);
width = 673;
}
);
note = S;
unicode = 0053;
},
{
glyphname = T;
lastChange = "2018-10-24 01:43:00 +0000";
layers = (
{
layerId = "61E9F240-DCC1-4244-924B-01C71F2248F0";
paths = (
{
closed = 1;
nodes = (
"253 1 LINE",
"253 600 LINE",
"398 600 LINE",
"398 681 LINE",
"50 681 LINE",
"50 600 LINE",
"195 600 LINE",
"195 1 LINE"
);
}
);
width = 448;
},
{
layerId = "994FE389-9D54-4FAA-B055-C46A67020E78";
paths = (
{
closed = 1;
nodes = (
"391 1 LINE",
"391 600 LINE",
"621 600 LINE",
"621 681 LINE",
"70 681 LINE",
"70 600 LINE",
"300 600 LINE",
"300 1 LINE"
);
}
);
width = 691;
},
{
associatedMasterId = "61E9F240-DCC1-4244-924B-01C71F2248F0";
layerId = "F40E2F94-F4B3-4D3C-AA5D-04A91D7A3D3E";
paths = (
{
closed = 1;
nodes = (
"391 1 LINE",
"391 600 LINE",
"621 600 LINE",
"621 681 LINE",
"70 681 LINE",
"70 600 LINE",
"300 600 LINE",
"300 1 LINE"
);
}
);
width = 691;
}
);
note = T;
unicode = 0054;
},
{
glyphname = U;
lastChange = "2018-10-24 01:43:00 +0000";
layers = (
{
layerId = "61E9F240-DCC1-4244-924B-01C71F2248F0";
paths = (
{
closed = 1;
nodes = (
"276 -5 OFFCURVE",
"323 34 OFFCURVE",
"347 111 CURVE SMOOTH",
"360 152 OFFCURVE",
"367 214 OFFCURVE",
"367 291 CURVE SMOOTH",
"367 648 LINE",
"311 648 LINE",
"311 255 LINE SMOOTH",
"311 216 OFFCURVE",
"308 177 OFFCURVE",
"297 145 CURVE SMOOTH",
"281 98 OFFCURVE",
"251 70 OFFCURVE",
"204 70 CURVE SMOOTH",
"163 70 OFFCURVE",
"138 93 OFFCURVE",
"121 141 CURVE SMOOTH",
"108 178 OFFCURVE",
"106 222 OFFCURVE",
"106 255 CURVE SMOOTH",
"106 648 LINE",
"50 648 LINE",
"50 291 LINE SMOOTH",
"50 243 OFFCURVE",
"50 176 OFFCURVE",
"70 110 CURVE SMOOTH",
"92 38 OFFCURVE",
"134 -5 OFFCURVE",
"208 -5 CURVE SMOOTH"
);
}
);
width = 417;
},
{
layerId = "994FE389-9D54-4FAA-B055-C46A67020E78";
paths = (
{
closed = 1;
nodes = (
"428 -5 OFFCURVE",
"502 34 OFFCURVE",
"540 110 CURVE SMOOTH",
"561 152 OFFCURVE",
"571 212 OFFCURVE",
"571 291 CURVE SMOOTH",
"571 648 LINE",
"484 648 LINE",
"484 255 LINE SMOOTH",
"484 208 OFFCURVE",
"476 172 OFFCURVE",
"462 146 CURVE SMOOTH",
"435 96 OFFCURVE",
"386 70 OFFCURVE",
"314 70 CURVE SMOOTH",
"253 70 OFFCURVE",
"208 93 OFFCURVE",
"183 140 CURVE SMOOTH",
"166 170 OFFCURVE",
"157 208 OFFCURVE",
"157 255 CURVE SMOOTH",
"157 648 LINE",
"70 648 LINE",
"70 291 LINE SMOOTH",
"70 237 OFFCURVE",
"70 174 OFFCURVE",
"101 110 CURVE SMOOTH",
"138 33 OFFCURVE",
"214 -5 OFFCURVE",
"320 -5 CURVE SMOOTH"
);
}
);
width = 641;
},
{
associatedMasterId = "61E9F240-DCC1-4244-924B-01C71F2248F0";
layerId = "F40E2F94-F4B3-4D3C-AA5D-04A91D7A3D3E";
paths = (
{
closed = 1;
nodes = (
"428 -5 OFFCURVE",
"502 34 OFFCURVE",
"540 110 CURVE SMOOTH",
"561 152 OFFCURVE",
"571 212 OFFCURVE",
"571 291 CURVE SMOOTH",
"571 648 LINE",
"484 648 LINE",
"484 255 LINE SMOOTH",
"484 208 OFFCURVE",
"476 172 OFFCURVE",
"462 146 CURVE SMOOTH",
"435 96 OFFCURVE",
"386 70 OFFCURVE",
"314 70 CURVE SMOOTH",
"253 70 OFFCURVE",
"208 93 OFFCURVE",
"183 140 CURVE SMOOTH",
"166 170 OFFCURVE",
"157 208 OFFCURVE",
"157 255 CURVE SMOOTH",
"157 648 LINE",
"70 648 LINE",
"70 291 LINE SMOOTH",
"70 238 OFFCURVE",
"70 174 OFFCURVE",
"101 110 CURVE SMOOTH",
"138 33 OFFCURVE",
"214 -5 OFFCURVE",
"320 -5 CURVE SMOOTH"
);
}
);
width = 641;
}
);
note = U;
unicode = 0055;
},
{
glyphname = V;
lastChange = "2018-10-24 01:43:00 +0000";
layers = (
{
layerId = "61E9F240-DCC1-4244-924B-01C71F2248F0";
paths = (
{
closed = 1;
nodes = (
"266 0 LINE",
"424 680 LINE",
"358 680 LINE",
"236 102 LINE",
"114 680 LINE",
"50 680 LINE",
"207 0 LINE"
);
}
);
width = 474;
},
{
layerId = "994FE389-9D54-4FAA-B055-C46A67020E78";
paths = (
{
closed = 1;
nodes = (
"413 0 LINE",
"662 680 LINE",
"559 680 LINE",
"365 102 LINE",
"171 680 LINE",
"70 680 LINE",
"317 0 LINE"
);
}
);
width = 732;
},
{
associatedMasterId = "61E9F240-DCC1-4244-924B-01C71F2248F0";
layerId = "F40E2F94-F4B3-4D3C-AA5D-04A91D7A3D3E";
paths = (
{
closed = 1;
nodes = (
"413 0 LINE",
"662 680 LINE",
"559 680 LINE",
"365 102 LINE",
"171 680 LINE",
"70 680 LINE",
"317 0 LINE"
);
}
);
width = 732;
}
);
note = V;
unicode = 0056;
},
{
glyphname = W;
lastChange = "2018-10-24 01:43:00 +0000";
layers = (
{
layerId = "61E9F240-DCC1-4244-924B-01C71F2248F0";
paths = (
{
closed = 1;
nodes = (
"225 0 LINE",
"324 566 LINE",
"424 0 LINE",
"485 0 LINE",
"599 684 LINE",
"534 684 LINE",
"453 128 LINE",
"356 684 LINE",
"291 684 LINE",
"195 128 LINE",
"113 684 LINE",
"50 684 LINE",
"164 0 LINE"
);
}
);
width = 649;
},
{
layerId = "994FE389-9D54-4FAA-B055-C46A67020E78";
paths = (
{
closed = 1;
nodes = (
"346 0 LINE",
"504 566 LINE",
"662 0 LINE",
"760 0 LINE",
"940 684 LINE",
"838 684 LINE",
"709 128 LINE",
"555 684 LINE",
"453 684 LINE",
"300 128 LINE",
"170 684 LINE",
"70 684 LINE",
"250 0 LINE"
);
}
);
width = 1010;
},
{
associatedMasterId = "61E9F240-DCC1-4244-924B-01C71F2248F0";
layerId = "F40E2F94-F4B3-4D3C-AA5D-04A91D7A3D3E";
paths = (
{
closed = 1;
nodes = (
"346 0 LINE",
"504 566 LINE",
"662 0 LINE",
"760 0 LINE",
"940 684 LINE",
"838 684 LINE",
"709 128 LINE",
"555 684 LINE",
"453 684 LINE",
"300 128 LINE",
"170 684 LINE",
"70 684 LINE",
"250 0 LINE"
);
}
);
width = 1010;
}
);
note = W;
unicode = 0057;
},
{
glyphname = X;
lastChange = "2018-10-24 01:43:00 +0000";
layers = (
{
layerId = "61E9F240-DCC1-4244-924B-01C71F2248F0";
paths = (
{
closed = 1;
nodes = (
"121 0 LINE",
"241 283 LINE",
"358 0 LINE",
"430 0 LINE",
"278 351 LINE",
"423 686 LINE",
"354 686 LINE",
"245 424 LINE",
"133 686 LINE",
"60 686 LINE",
"207 351 LINE",
"50 0 LINE"
);
}
);
width = 480;
},
{
layerId = "994FE389-9D54-4FAA-B055-C46A67020E78";
paths = (
{
closed = 1;
nodes = (
"182 0 LINE",
"373 283 LINE",
"557 0 LINE",
"673 0 LINE",
"431 351 LINE",
"661 686 LINE",
"551 686 LINE",
"377 424 LINE",
"201 686 LINE",
"85 686 LINE",
"317 351 LINE",
"70 0 LINE"
);
}
);
width = 743;
},
{
associatedMasterId = "61E9F240-DCC1-4244-924B-01C71F2248F0";
layerId = "F40E2F94-F4B3-4D3C-AA5D-04A91D7A3D3E";
paths = (
{
closed = 1;
nodes = (
"182 0 LINE",
"373 283 LINE",
"557 0 LINE",
"673 0 LINE",
"431 351 LINE",
"661 686 LINE",
"551 686 LINE",
"377 424 LINE",
"201 686 LINE",
"85 686 LINE",
"317 351 LINE",
"70 0 LINE"
);
}
);
width = 743;
}
);
note = X;
unicode = 0058;
},
{
glyphname = Y;
lastChange = "2018-10-24 01:43:00 +0000";
layers = (
{
layerId = "61E9F240-DCC1-4244-924B-01C71F2248F0";
paths = (
{
closed = 1;
nodes = (
"260 0 LINE",
"260 262 LINE",
"414 649 LINE",
"349 649 LINE",
"232 337 LINE",
"114 649 LINE",
"50 649 LINE",
"204 262 LINE",
"204 0 LINE"
);
}
);
width = 464;
},
{
layerId = "994FE389-9D54-4FAA-B055-C46A67020E78";
paths = (
{
closed = 1;
nodes = (
"402 0 LINE",
"402 262 LINE",
"648 649 LINE",
"544 649 LINE",
"359 337 LINE",
"173 649 LINE",
"70 649 LINE",
"314 262 LINE",
"314 0 LINE"
);
}
);
width = 718;
},
{
associatedMasterId = "61E9F240-DCC1-4244-924B-01C71F2248F0";
layerId = "F40E2F94-F4B3-4D3C-AA5D-04A91D7A3D3E";
paths = (
{
closed = 1;
nodes = (
"402 0 LINE",
"402 262 LINE",
"648 649 LINE",
"544 649 LINE",
"359 337 LINE",
"173 649 LINE",
"70 649 LINE",
"314 262 LINE",
"314 0 LINE"
);
}
);
width = 718;
}
);
note = Y;
unicode = 0059;
},
{
glyphname = Z;
lastChange = "2018-10-24 01:43:00 +0000";
layers = (
{
layerId = "61E9F240-DCC1-4244-924B-01C71F2248F0";
paths = (
{
closed = 1;
nodes = (
"389 1 LINE",
"389 83 LINE",
"124 83 LINE",
"389 602 LINE",
"389 681 LINE",
"69 681 LINE",
"69 600 LINE",
"314 600 LINE",
"50 78 LINE",
"50 1 LINE"
);
}
);
width = 439;
},
{
layerId = "994FE389-9D54-4FAA-B055-C46A67020E78";
paths = (
{
closed = 1;
nodes = (
"606 1 LINE",
"606 83 LINE",
"186 83 LINE",
"606 602 LINE",
"606 681 LINE",
"100 681 LINE",
"100 600 LINE",
"487 600 LINE",
"70 78 LINE",
"70 1 LINE"
);
}
);
width = 676;
},
{
associatedMasterId = "61E9F240-DCC1-4244-924B-01C71F2248F0";
layerId = "F40E2F94-F4B3-4D3C-AA5D-04A91D7A3D3E";
paths = (
{
closed = 1;
nodes = (
"606 1 LINE",
"606 83 LINE",
"186 83 LINE",
"606 602 LINE",
"606 681 LINE",
"100 681 LINE",
"100 600 LINE",
"487 600 LINE",
"70 78 LINE",
"70 1 LINE"
);
}
);
width = 676;
}
);
note = Z;
unicode = 005A;
},
{
glyphname = a;
lastChange = "2018-10-24 01:43:00 +0000";
layers = (
{
layerId = "61E9F240-DCC1-4244-924B-01C71F2248F0";
paths = (
{
closed = 1;
nodes = (
"179 -11 OFFCURVE",
"199 -2 OFFCURVE",
"222 17 CURVE SMOOTH",
"250 40 OFFCURVE",
"259 49 OFFCURVE",
"270 76 CURVE",
"272 59 OFFCURVE",
"275 41 OFFCURVE",
"280 29 CURVE SMOOTH",
"289 8 OFFCURVE",
"304 -3 OFFCURVE",
"321 -3 CURVE SMOOTH",
"333 -3 OFFCURVE",
"335 -2 OFFCURVE",
"339 -2 CURVE SMOOTH",
"341 -2 OFFCURVE",
"352 1 OFFCURVE",
"360 6 CURVE",
"360 70 LINE",
"350 67 LINE SMOOTH",
"347 66 OFFCURVE",
"345 66 OFFCURVE",
"341 66 CURVE SMOOTH",
"331 66 OFFCURVE",
"326 73 OFFCURVE",
"325 75 CURVE SMOOTH",
"322 80 OFFCURVE",
"323 91 OFFCURVE",
"323 96 CURVE SMOOTH",
"323 395 LINE SMOOTH",
"323 445 OFFCURVE",
"312 483 OFFCURVE",
"288 505 CURVE SMOOTH",
"264 526 OFFCURVE",
"230 541 OFFCURVE",
"193 541 CURVE SMOOTH",
"161 541 OFFCURVE",
"131 526 OFFCURVE",
"105 502 CURVE SMOOTH",
"82 480 OFFCURVE",
"66 433 OFFCURVE",
"66 369 CURVE",
"118 369 LINE",
"119 393 OFFCURVE",
"124 415 OFFCURVE",
"131 430 CURVE SMOOTH",
"142 453 OFFCURVE",
"163 466 OFFCURVE",
"193 466 CURVE SMOOTH",
"218 466 OFFCURVE",
"236 459 OFFCURVE",
"251 446 CURVE",
"263 435 OFFCURVE",
"269 410 OFFCURVE",
"269 382 CURVE SMOOTH",
"269 370 OFFCURVE",
"268 358 OFFCURVE",
"266 348 CURVE",
"263 332 OFFCURVE",
"254 323 OFFCURVE",
"242 321 CURVE SMOOTH",
"152 303 LINE SMOOTH",
"114 295 OFFCURVE",
"102 293 OFFCURVE",
"77 255 CURVE SMOOTH",
"60 230 OFFCURVE",
"50 192 OFFCURVE",
"50 142 CURVE SMOOTH",
"50 106 OFFCURVE",
"57 64 OFFCURVE",
"78 36 CURVE",
"98 6 OFFCURVE",
"125 -11 OFFCURVE",
"153 -11 CURVE SMOOTH"
);
},
{
closed = 1;
nodes = (
"151 64 OFFCURVE",
"137 70 OFFCURVE",
"125 85 CURVE SMOOTH",
"112 101 OFFCURVE",
"106 123 OFFCURVE",
"106 145 CURVE SMOOTH",
"106 178 OFFCURVE",
"116 203 OFFCURVE",
"133 216 CURVE",
"146 227 OFFCURVE",
"156 232 OFFCURVE",
"177 237 CURVE SMOOTH",
"213 246 LINE",
"221 247 OFFCURVE",
"233 252 OFFCURVE",
"243 255 CURVE",
"254 258 OFFCURVE",
"261 264 OFFCURVE",
"268 273 CURVE",
"268 203 LINE SMOOTH",
"268 148 OFFCURVE",
"252 110 OFFCURVE",
"224 86 CURVE SMOOTH",
"206 70 OFFCURVE",
"185 64 OFFCURVE",
"165 64 CURVE SMOOTH"
);
}
);
width = 410;
},
{
layerId = "994FE389-9D54-4FAA-B055-C46A67020E78";
paths = (
{
closed = 1;
nodes = (
"273 -11 OFFCURVE",
"308 -1 OFFCURVE",
"344 17 CURVE SMOOTH",
"359 25 OFFCURVE",
"404 53 OFFCURVE",
"419 76 CURVE",
"422 56 OFFCURVE",
"428 40 OFFCURVE",
"435 29 CURVE SMOOTH",
"449 8 OFFCURVE",
"470 -3 OFFCURVE",
"500 -3 CURVE SMOOTH",
"513 -3 OFFCURVE",
"522 -3 OFFCURVE",
"529 -2 CURVE SMOOTH",
"536 -1 OFFCURVE",
"549 1 OFFCURVE",
"561 6 CURVE",
"561 70 LINE",
"545 67 LINE SMOOTH",
"540 66 OFFCURVE",
"537 66 OFFCURVE",
"533 66 CURVE SMOOTH",
"520 66 OFFCURVE",
"512 70 OFFCURVE",
"507 75 CURVE SMOOTH",
"501 81 OFFCURVE",
"502 87 OFFCURVE",
"502 96 CURVE SMOOTH",
"502 395 LINE SMOOTH",
"502 446 OFFCURVE",
"485 483 OFFCURVE",
"446 505 CURVE SMOOTH",
"408 526 OFFCURVE",
"359 541 OFFCURVE",
"298 541 CURVE SMOOTH",
"243 541 OFFCURVE",
"198 526 OFFCURVE",
"158 502 CURVE SMOOTH",
"118 478 OFFCURVE",
"97 433 OFFCURVE",
"95 369 CURVE",
"177 369 LINE",
"180 394 OFFCURVE",
"187 415 OFFCURVE",
"198 429 CURVE SMOOTH",
"217 454 OFFCURVE",
"248 466 OFFCURVE",
"296 466 CURVE SMOOTH",
"335 466 OFFCURVE",
"365 459 OFFCURVE",
"387 446 CURVE",
"408 435 OFFCURVE",
"418 410 OFFCURVE",
"418 382 CURVE SMOOTH",
"418 368 OFFCURVE",
"415 356 OFFCURVE",
"411 348 CURVE",
"407 331 OFFCURVE",
"393 324 OFFCURVE",
"373 321 CURVE SMOOTH",
"233 303 LINE SMOOTH",
"193 298 OFFCURVE",
"152 292 OFFCURVE",
"114 256 CURVE SMOOTH",
"86 230 OFFCURVE",
"70 196 OFFCURVE",
"70 142 CURVE SMOOTH",
"70 100 OFFCURVE",
"84 62 OFFCURVE",
"115 36 CURVE",
"148 6 OFFCURVE",
"185 -11 OFFCURVE",
"234 -11 CURVE SMOOTH"
);
},
{
closed = 1;
nodes = (
"229 64 OFFCURVE",
"207 70 OFFCURVE",
"188 86 CURVE SMOOTH",
"169 101 OFFCURVE",
"159 120 OFFCURVE",
"159 145 CURVE SMOOTH",
"159 179 OFFCURVE",
"175 203 OFFCURVE",
"201 216 CURVE",
"217 225 OFFCURVE",
"241 232 OFFCURVE",
"271 237 CURVE SMOOTH",
"327 246 LINE",
"341 247 OFFCURVE",
"358 251 OFFCURVE",
"375 255 CURVE",
"392 258 OFFCURVE",
"407 265 OFFCURVE",
"415 273 CURVE",
"415 203 LINE SMOOTH",
"415 147 OFFCURVE",
"391 111 OFFCURVE",
"343 85 CURVE SMOOTH",
"316 70 OFFCURVE",
"285 64 OFFCURVE",
"253 64 CURVE SMOOTH"
);
}
);
width = 631;
},
{
associatedMasterId = "61E9F240-DCC1-4244-924B-01C71F2248F0";
layerId = "F40E2F94-F4B3-4D3C-AA5D-04A91D7A3D3E";
paths = (
{
closed = 1;
nodes = (
"273 -11 OFFCURVE",
"308 -1 OFFCURVE",
"344 17 CURVE SMOOTH",
"359 25 OFFCURVE",
"404 53 OFFCURVE",
"419 76 CURVE",
"422 56 OFFCURVE",
"428 40 OFFCURVE",
"435 29 CURVE SMOOTH",
"449 8 OFFCURVE",
"470 -3 OFFCURVE",
"500 -3 CURVE SMOOTH",
"513 -3 OFFCURVE",
"522 -3 OFFCURVE",
"529 -2 CURVE SMOOTH",
"536 -1 OFFCURVE",
"549 1 OFFCURVE",
"561 6 CURVE",
"561 70 LINE",
"545 67 LINE SMOOTH",
"540 66 OFFCURVE",
"537 66 OFFCURVE",
"533 66 CURVE SMOOTH",
"520 66 OFFCURVE",
"512 70 OFFCURVE",
"507 75 CURVE SMOOTH",
"501 81 OFFCURVE",
"502 87 OFFCURVE",
"502 96 CURVE SMOOTH",
"502 395 LINE SMOOTH",
"502 446 OFFCURVE",
"485 483 OFFCURVE",
"446 505 CURVE SMOOTH",
"408 526 OFFCURVE",
"359 541 OFFCURVE",
"298 541 CURVE SMOOTH",
"243 541 OFFCURVE",
"198 526 OFFCURVE",
"158 502 CURVE SMOOTH",
"118 478 OFFCURVE",
"97 433 OFFCURVE",
"95 369 CURVE",
"177 369 LINE",
"180 394 OFFCURVE",
"187 415 OFFCURVE",
"198 429 CURVE SMOOTH",
"217 454 OFFCURVE",
"248 466 OFFCURVE",
"296 466 CURVE SMOOTH",
"335 466 OFFCURVE",
"365 459 OFFCURVE",
"387 446 CURVE",
"408 435 OFFCURVE",
"418 410 OFFCURVE",
"418 382 CURVE SMOOTH",
"418 368 OFFCURVE",
"415 356 OFFCURVE",
"411 348 CURVE",
"407 331 OFFCURVE",
"393 324 OFFCURVE",
"373 321 CURVE SMOOTH",
"233 303 LINE SMOOTH",
"193 298 OFFCURVE",
"152 292 OFFCURVE",
"114 256 CURVE SMOOTH",
"86 230 OFFCURVE",
"70 196 OFFCURVE",
"70 142 CURVE SMOOTH",
"70 100 OFFCURVE",
"84 62 OFFCURVE",
"115 36 CURVE",
"148 6 OFFCURVE",
"185 -11 OFFCURVE",
"234 -11 CURVE SMOOTH"
);
},
{
closed = 1;
nodes = (
"229 64 OFFCURVE",
"207 70 OFFCURVE",
"188 86 CURVE SMOOTH",
"169 101 OFFCURVE",
"159 120 OFFCURVE",
"159 145 CURVE SMOOTH",
"159 179 OFFCURVE",
"175 203 OFFCURVE",
"201 216 CURVE",
"217 225 OFFCURVE",
"241 232 OFFCURVE",
"271 237 CURVE SMOOTH",
"327 246 LINE",
"341 247 OFFCURVE",
"358 251 OFFCURVE",
"375 255 CURVE",
"392 258 OFFCURVE",
"407 265 OFFCURVE",
"415 273 CURVE",
"415 203 LINE SMOOTH",
"415 147 OFFCURVE",
"391 111 OFFCURVE",
"343 85 CURVE SMOOTH",
"316 70 OFFCURVE",
"285 64 OFFCURVE",
"253 64 CURVE SMOOTH"
);
}
);
width = 631;
}
);
note = a;
unicode = 0061;
},
{
glyphname = b;
lastChange = "2018-10-24 01:43:00 +0000";
layers = (
{
layerId = "61E9F240-DCC1-4244-924B-01C71F2248F0";
paths = (
{
closed = 1;
nodes = (
"245 -16 OFFCURVE",
"281 10 OFFCURVE",
"305 65 CURVE SMOOTH",
"330 123 OFFCURVE",
"344 187 OFFCURVE",
"344 274 CURVE SMOOTH",
"344 363 OFFCURVE",
"332 431 OFFCURVE",
"308 472 CURVE SMOOTH",
"281 517 OFFCURVE",
"252 542 OFFCURVE",
"206 542 CURVE SMOOTH",
"185 542 OFFCURVE",
"167 535 OFFCURVE",
"150 522 CURVE SMOOTH",
"131 508 OFFCURVE",
"120 495 OFFCURVE",
"105 465 CURVE",
"105 727 LINE",
"50 727 LINE",
"50 0 LINE",
"102 0 LINE",
"102 69 LINE",
"119 36 OFFCURVE",
"122 29 OFFCURVE",
"136 12 CURVE",
"154 -8 OFFCURVE",
"175 -16 OFFCURVE",
"200 -16 CURVE SMOOTH"
);
},
{
closed = 1;
nodes = (
"158 63 OFFCURVE",
"129 91 OFFCURVE",
"114 147 CURVE SMOOTH",
"104 183 OFFCURVE",
"102 228 OFFCURVE",
"102 270 CURVE SMOOTH",
"102 339 OFFCURVE",
"113 387 OFFCURVE",
"132 420 CURVE SMOOTH",
"149 450 OFFCURVE",
"175 464 OFFCURVE",
"199 464 CURVE SMOOTH",
"224 464 OFFCURVE",
"248 450 OFFCURVE",
"265 409 CURVE SMOOTH",
"281 372 OFFCURVE",
"288 328 OFFCURVE",
"288 270 CURVE SMOOTH",
"288 205 OFFCURVE",
"280 156 OFFCURVE",
"266 118 CURVE SMOOTH",
"251 79 OFFCURVE",
"230 63 OFFCURVE",
"197 63 CURVE SMOOTH"
);
}
);
width = 394;
},
{
layerId = "994FE389-9D54-4FAA-B055-C46A67020E78";
paths = (
{
closed = 1;
nodes = (
"381 -16 OFFCURVE",
"436 10 OFFCURVE",
"476 67 CURVE SMOOTH",
"514 123 OFFCURVE",
"536 190 OFFCURVE",
"536 274 CURVE SMOOTH",
"536 366 OFFCURVE",
"516 433 OFFCURVE",
"476 475 CURVE SMOOTH",
"433 520 OFFCURVE",
"380 542 OFFCURVE",
"316 542 CURVE SMOOTH",
"285 542 OFFCURVE",
"255 535 OFFCURVE",
"227 522 CURVE SMOOTH",
"200 509 OFFCURVE",
"176 491 OFFCURVE",
"158 465 CURVE",
"158 727 LINE",
"70 727 LINE",
"70 0 LINE",
"152 0 LINE",
"152 69 LINE",
"172 43 OFFCURVE",
"190 24 OFFCURVE",
"206 12 CURVE",
"235 -8 OFFCURVE",
"268 -16 OFFCURVE",
"309 -16 CURVE SMOOTH"
);
},
{
closed = 1;
nodes = (
"239 63 OFFCURVE",
"195 91 OFFCURVE",
"171 148 CURVE SMOOTH",
"158 179 OFFCURVE",
"152 219 OFFCURVE",
"152 270 CURVE SMOOTH",
"152 338 OFFCURVE",
"169 387 OFFCURVE",
"198 418 CURVE SMOOTH",
"228 450 OFFCURVE",
"265 464 OFFCURVE",
"306 464 CURVE SMOOTH",
"353 464 OFFCURVE",
"387 446 OFFCURVE",
"412 408 CURVE SMOOTH",
"436 372 OFFCURVE",
"446 326 OFFCURVE",
"446 270 CURVE SMOOTH",
"446 207 OFFCURVE",
"435 156 OFFCURVE",
"412 117 CURVE SMOOTH",
"389 79 OFFCURVE",
"352 63 OFFCURVE",
"304 63 CURVE SMOOTH"
);
}
);
width = 606;
},
{
associatedMasterId = "61E9F240-DCC1-4244-924B-01C71F2248F0";
layerId = "F40E2F94-F4B3-4D3C-AA5D-04A91D7A3D3E";
paths = (
{
closed = 1;
nodes = (
"381 -16 OFFCURVE",
"436 10 OFFCURVE",
"476 67 CURVE SMOOTH",
"514 123 OFFCURVE",
"536 190 OFFCURVE",
"536 274 CURVE SMOOTH",
"536 366 OFFCURVE",
"516 433 OFFCURVE",
"476 475 CURVE SMOOTH",
"433 520 OFFCURVE",
"380 542 OFFCURVE",
"316 542 CURVE SMOOTH",
"285 542 OFFCURVE",
"255 535 OFFCURVE",
"227 522 CURVE SMOOTH",
"200 509 OFFCURVE",
"176 491 OFFCURVE",
"158 465 CURVE",
"158 727 LINE",
"70 727 LINE",
"70 0 LINE",
"152 0 LINE",
"152 69 LINE",
"172 43 OFFCURVE",
"190 24 OFFCURVE",
"206 12 CURVE",
"235 -8 OFFCURVE",
"268 -16 OFFCURVE",
"309 -16 CURVE SMOOTH"
);
},
{
closed = 1;
nodes = (
"239 63 OFFCURVE",
"195 91 OFFCURVE",
"171 148 CURVE SMOOTH",
"158 179 OFFCURVE",
"152 219 OFFCURVE",
"152 270 CURVE SMOOTH",
"152 338 OFFCURVE",
"169 387 OFFCURVE",
"198 418 CURVE SMOOTH",
"228 450 OFFCURVE",
"265 464 OFFCURVE",
"306 464 CURVE SMOOTH",
"353 464 OFFCURVE",
"387 446 OFFCURVE",
"412 408 CURVE SMOOTH",
"436 372 OFFCURVE",
"446 326 OFFCURVE",
"446 270 CURVE SMOOTH",
"446 207 OFFCURVE",
"435 156 OFFCURVE",
"412 117 CURVE SMOOTH",
"389 79 OFFCURVE",
"352 63 OFFCURVE",
"304 63 CURVE SMOOTH"
);
}
);
width = 606;
}
);
leftKerningGroup = b;
note = b;
rightKerningGroup = o;
unicode = 0062;
},
{
glyphname = c;
lastChange = "2018-10-24 01:43:00 +0000";
layers = (
{
layerId = "61E9F240-DCC1-4244-924B-01C71F2248F0";
paths = (
{
closed = 1;
nodes = (
"230 -9 OFFCURVE",
"261 6 OFFCURVE",
"286 39 CURVE SMOOTH",
"311 72 OFFCURVE",
"326 130 OFFCURVE",
"331 190 CURVE",
"277 190 LINE",
"273 155 OFFCURVE",
"262 120 OFFCURVE",
"249 98 CURVE SMOOTH",
"236 76 OFFCURVE",
"217 66 OFFCURVE",
"195 66 CURVE SMOOTH",
"162 66 OFFCURVE",
"140 88 OFFCURVE",
"129 117 CURVE SMOOTH",
"115 155 OFFCURVE",
"109 202 OFFCURVE",
"109 250 CURVE SMOOTH",
"109 308 OFFCURVE",
"115 351 OFFCURVE",
"123 380 CURVE SMOOTH",
"139 436 OFFCURVE",
"163 463 OFFCURVE",
"198 463 CURVE SMOOTH",
"223 463 OFFCURVE",
"243 451 OFFCURVE",
"255 430 CURVE SMOOTH",
"267 410 OFFCURVE",
"273 386 OFFCURVE",
"277 351 CURVE",
"331 351 LINE",
"325 426 OFFCURVE",
"314 465 OFFCURVE",
"287 500 CURVE SMOOTH",
"263 531 OFFCURVE",
"234 540 OFFCURVE",
"198 540 CURVE SMOOTH",
"150 540 OFFCURVE",
"117 513 OFFCURVE",
"92 467 CURVE SMOOTH",
"62 413 OFFCURVE",
"50 348 OFFCURVE",
"50 251 CURVE SMOOTH",
"50 173 OFFCURVE",
"62 114 OFFCURVE",
"88 66 CURVE SMOOTH",
"114 17 OFFCURVE",
"147 -9 OFFCURVE",
"191 -9 CURVE SMOOTH"
);
}
);
width = 381;
},
{
layerId = "994FE389-9D54-4FAA-B055-C46A67020E78";
paths = (
{
closed = 1;
nodes = (
"355 -9 OFFCURVE",
"404 6 OFFCURVE",
"442 38 CURVE SMOOTH",
"481 71 OFFCURVE",
"506 120 OFFCURVE",
"515 190 CURVE",
"430 190 LINE",
"422 152 OFFCURVE",
"406 121 OFFCURVE",
"386 99 CURVE SMOOTH",
"365 76 OFFCURVE",
"335 66 OFFCURVE",
"300 66 CURVE SMOOTH",
"258 66 OFFCURVE",
"217 81 OFFCURVE",
"195 118 CURVE SMOOTH",
"175 151 OFFCURVE",
"162 197 OFFCURVE",
"162 250 CURVE SMOOTH",
"162 302 OFFCURVE",
"171 346 OFFCURVE",
"186 381 CURVE SMOOTH",
"211 436 OFFCURVE",
"250 463 OFFCURVE",
"305 463 CURVE SMOOTH",
"345 463 OFFCURVE",
"375 451 OFFCURVE",
"395 430 CURVE SMOOTH",
"414 410 OFFCURVE",
"425 383 OFFCURVE",
"430 351 CURVE",
"515 351 LINE",
"508 421 OFFCURVE",
"484 469 OFFCURVE",
"448 499 CURVE SMOOTH",
"415 528 OFFCURVE",
"365 540 OFFCURVE",
"305 540 CURVE SMOOTH",
"239 540 OFFCURVE",
"181 517 OFFCURVE",
"135 466 CURVE SMOOTH",
"92 418 OFFCURVE",
"70 346 OFFCURVE",
"70 251 CURVE SMOOTH",
"70 176 OFFCURVE",
"89 114 OFFCURVE",
"130 66 CURVE SMOOTH",
"171 17 OFFCURVE",
"226 -9 OFFCURVE",
"294 -9 CURVE SMOOTH"
);
}
);
width = 585;
},
{
associatedMasterId = "61E9F240-DCC1-4244-924B-01C71F2248F0";
layerId = "F40E2F94-F4B3-4D3C-AA5D-04A91D7A3D3E";
paths = (
{
closed = 1;
nodes = (
"355 -9 OFFCURVE",
"404 6 OFFCURVE",
"442 38 CURVE SMOOTH",
"481 71 OFFCURVE",
"506 120 OFFCURVE",
"515 190 CURVE",
"430 190 LINE",
"422 152 OFFCURVE",
"406 121 OFFCURVE",
"386 99 CURVE SMOOTH",
"365 76 OFFCURVE",
"335 66 OFFCURVE",
"300 66 CURVE SMOOTH",
"258 66 OFFCURVE",
"217 81 OFFCURVE",
"195 118 CURVE SMOOTH",
"175 151 OFFCURVE",
"162 197 OFFCURVE",
"162 250 CURVE SMOOTH",
"162 302 OFFCURVE",
"171 346 OFFCURVE",
"186 381 CURVE SMOOTH",
"211 436 OFFCURVE",
"250 463 OFFCURVE",
"305 463 CURVE SMOOTH",
"345 463 OFFCURVE",
"375 451 OFFCURVE",
"395 430 CURVE SMOOTH",
"414 410 OFFCURVE",
"425 383 OFFCURVE",
"430 351 CURVE",
"515 351 LINE",
"508 421 OFFCURVE",
"484 469 OFFCURVE",
"448 499 CURVE SMOOTH",
"415 528 OFFCURVE",
"365 540 OFFCURVE",
"305 540 CURVE SMOOTH",
"239 540 OFFCURVE",
"181 517 OFFCURVE",
"135 466 CURVE SMOOTH",
"92 418 OFFCURVE",
"70 346 OFFCURVE",
"70 251 CURVE SMOOTH",
"70 176 OFFCURVE",
"89 114 OFFCURVE",
"130 66 CURVE SMOOTH",
"171 17 OFFCURVE",
"226 -9 OFFCURVE",
"294 -9 CURVE SMOOTH"
);
}
);
width = 585;
}
);
leftKerningGroup = o;
note = c;
rightKerningGroup = o;
unicode = 0063;
},
{
glyphname = d;
lastChange = "2018-10-24 01:43:01 +0000";
layers = (
{
layerId = "61E9F240-DCC1-4244-924B-01C71F2248F0";
paths = (
{
closed = 1;
nodes = (
"209 -17 OFFCURVE",
"232 -12 OFFCURVE",
"249 5 CURVE",
"266 20 OFFCURVE",
"279 41 OFFCURVE",
"295 76 CURVE",
"295 0 LINE",
"345 0 LINE",
"345 726 LINE",
"292 726 LINE",
"292 460 LINE",
"275 487 OFFCURVE",
"270 497 OFFCURVE",
"257 513 CURVE SMOOTH",
"242 532 OFFCURVE",
"215 536 OFFCURVE",
"193 536 CURVE SMOOTH",
"149 536 OFFCURVE",
"113 510 OFFCURVE",
"88 454 CURVE SMOOTH",
"60 392 OFFCURVE",
"50 327 OFFCURVE",
"50 255 CURVE SMOOTH",
"50 173 OFFCURVE",
"65 106 OFFCURVE",
"91 57 CURVE SMOOTH",
"118 7 OFFCURVE",
"149 -17 OFFCURVE",
"188 -17 CURVE SMOOTH"
);
},
{
closed = 1;
nodes = (
"171 60 OFFCURVE",
"146 80 OFFCURVE",
"133 115 CURVE SMOOTH",
"115 164 OFFCURVE",
"108 211 OFFCURVE",
"108 259 CURVE SMOOTH",
"108 330 OFFCURVE",
"118 375 OFFCURVE",
"136 411 CURVE SMOOTH",
"156 451 OFFCURVE",
"182 460 OFFCURVE",
"205 460 CURVE SMOOTH",
"229 460 OFFCURVE",
"250 444 OFFCURVE",
"266 414 CURVE SMOOTH",
"284 381 OFFCURVE",
"294 343 OFFCURVE",
"294 265 CURVE SMOOTH",
"294 193 OFFCURVE",
"283 146 OFFCURVE",
"268 114 CURVE SMOOTH",
"247 69 OFFCURVE",
"224 60 OFFCURVE",
"205 60 CURVE SMOOTH"
);
}
);
width = 395;
},
{
layerId = "994FE389-9D54-4FAA-B055-C46A67020E78";
paths = (
{
closed = 1;
nodes = (
"325 -17 OFFCURVE",
"357 -12 OFFCURVE",
"385 5 CURVE",
"413 20 OFFCURVE",
"436 42 OFFCURVE",
"459 76 CURVE",
"459 0 LINE",
"537 0 LINE",
"537 726 LINE",
"452 726 LINE",
"452 460 LINE",
"436 479 OFFCURVE",
"416 500 OFFCURVE",
"398 513 CURVE SMOOTH",
"374 531 OFFCURVE",
"334 536 OFFCURVE",
"296 536 CURVE SMOOTH",
"225 536 OFFCURVE",
"170 510 OFFCURVE",
"130 454 CURVE SMOOTH",
"89 396 OFFCURVE",
"70 332 OFFCURVE",
"70 255 CURVE SMOOTH",
"70 173 OFFCURVE",
"94 106 OFFCURVE",
"135 57 CURVE SMOOTH",
"177 7 OFFCURVE",
"229 -17 OFFCURVE",
"287 -17 CURVE SMOOTH"
);
},
{
closed = 1;
nodes = (
"262 60 OFFCURVE",
"223 79 OFFCURVE",
"201 117 CURVE SMOOTH",
"178 157 OFFCURVE",
"163 203 OFFCURVE",
"163 259 CURVE SMOOTH",
"163 324 OFFCURVE",
"178 376 OFFCURVE",
"204 409 CURVE SMOOTH",
"233 446 OFFCURVE",
"270 460 OFFCURVE",
"315 460 CURVE SMOOTH",
"354 460 OFFCURVE",
"386 444 OFFCURVE",
"414 413 CURVE SMOOTH",
"443 381 OFFCURVE",
"456 332 OFFCURVE",
"456 265 CURVE SMOOTH",
"456 200 OFFCURVE",
"441 148 OFFCURVE",
"416 114 CURVE SMOOTH",
"390 77 OFFCURVE",
"356 60 OFFCURVE",
"315 60 CURVE SMOOTH"
);
}
);
width = 607;
},
{
associatedMasterId = "61E9F240-DCC1-4244-924B-01C71F2248F0";
layerId = "F40E2F94-F4B3-4D3C-AA5D-04A91D7A3D3E";
paths = (
{
closed = 1;
nodes = (
"325 -17 OFFCURVE",
"357 -12 OFFCURVE",
"385 5 CURVE",
"413 20 OFFCURVE",
"436 42 OFFCURVE",
"459 76 CURVE",
"459 0 LINE",
"537 0 LINE",
"537 726 LINE",
"452 726 LINE",
"452 460 LINE",
"436 479 OFFCURVE",
"416 500 OFFCURVE",
"398 513 CURVE SMOOTH",
"374 531 OFFCURVE",
"334 536 OFFCURVE",
"296 536 CURVE SMOOTH",
"225 536 OFFCURVE",
"170 510 OFFCURVE",
"130 454 CURVE SMOOTH",
"89 396 OFFCURVE",
"70 332 OFFCURVE",
"70 255 CURVE SMOOTH",
"70 173 OFFCURVE",
"94 106 OFFCURVE",
"135 57 CURVE SMOOTH",
"177 7 OFFCURVE",
"229 -17 OFFCURVE",
"287 -17 CURVE SMOOTH"
);
},
{
closed = 1;
nodes = (
"262 60 OFFCURVE",
"223 79 OFFCURVE",
"201 117 CURVE SMOOTH",
"178 157 OFFCURVE",
"163 203 OFFCURVE",
"163 259 CURVE SMOOTH",
"163 324 OFFCURVE",
"178 376 OFFCURVE",
"204 409 CURVE SMOOTH",
"233 446 OFFCURVE",
"270 460 OFFCURVE",
"315 460 CURVE SMOOTH",
"354 460 OFFCURVE",
"386 444 OFFCURVE",
"414 413 CURVE SMOOTH",
"443 381 OFFCURVE",
"456 332 OFFCURVE",
"456 265 CURVE SMOOTH",
"456 200 OFFCURVE",
"441 148 OFFCURVE",
"416 114 CURVE SMOOTH",
"390 77 OFFCURVE",
"356 60 OFFCURVE",
"315 60 CURVE SMOOTH"
);
}
);
width = 607;
}
);
leftKerningGroup = o;
note = d;
rightKerningGroup = d;
unicode = 0064;
},
{
glyphname = e;
lastChange = "2018-10-24 01:43:01 +0000";
layers = (
{
layerId = "61E9F240-DCC1-4244-924B-01C71F2248F0";
paths = (
{
closed = 1;
nodes = (
"212 -9 OFFCURVE",
"226 -7 OFFCURVE",
"240 -2 CURVE SMOOTH",
"266 8 OFFCURVE",
"283 23 OFFCURVE",
"301 50 CURVE",
"311 66 OFFCURVE",
"321 85 OFFCURVE",
"328 105 CURVE SMOOTH",
"335 125 OFFCURVE",
"341 154 OFFCURVE",
"341 172 CURVE",
"288 172 LINE",
"285 147 OFFCURVE",
"277 126 OFFCURVE",
"267 108 CURVE SMOOTH",
"251 80 OFFCURVE",
"227 66 OFFCURVE",
"200 66 CURVE SMOOTH",
"165 66 OFFCURVE",
"145 84 OFFCURVE",
"132 112 CURVE SMOOTH",
"116 146 OFFCURVE",
"108 190 OFFCURVE",
"109 240 CURVE",
"347 240 LINE",
"347 294 OFFCURVE",
"345 330 OFFCURVE",
"342 353 CURVE",
"338 392 OFFCURVE",
"331 420 OFFCURVE",
"321 443 CURVE SMOOTH",
"305 480 OFFCURVE",
"293 495 OFFCURVE",
"271 511 CURVE SMOOTH",
"250 527 OFFCURVE",
"225 536 OFFCURVE",
"203 536 CURVE SMOOTH",
"156 536 OFFCURVE",
"121 511 OFFCURVE",
"92 458 CURVE SMOOTH",
"65 408 OFFCURVE",
"50 345 OFFCURVE",
"50 257 CURVE SMOOTH",
"50 168 OFFCURVE",
"65 106 OFFCURVE",
"91 62 CURVE SMOOTH",
"120 14 OFFCURVE",
"154 -9 OFFCURVE",
"195 -9 CURVE SMOOTH"
);
},
{
closed = 1;
nodes = (
"111 356 OFFCURVE",
"121 388 OFFCURVE",
"139 420 CURVE SMOOTH",
"154 447 OFFCURVE",
"177 460 OFFCURVE",
"199 460 CURVE SMOOTH",
"237 460 OFFCURVE",
"262 438 OFFCURVE",
"275 401 CURVE SMOOTH",
"284 375 OFFCURVE",
"289 341 OFFCURVE",
"292 309 CURVE",
"109 309 LINE"
);
}
);
width = 397;
},
{
layerId = "994FE389-9D54-4FAA-B055-C46A67020E78";
paths = (
{
closed = 1;
nodes = (
"326 -9 OFFCURVE",
"349 -7 OFFCURVE",
"372 -2 CURVE SMOOTH",
"410 7 OFFCURVE",
"442 24 OFFCURVE",
"469 50 CURVE",
"484 66 OFFCURVE",
"499 84 OFFCURVE",
"511 106 CURVE SMOOTH",
"524 130 OFFCURVE",
"531 152 OFFCURVE",
"533 172 CURVE",
"448 172 LINE",
"442 148 OFFCURVE",
"431 127 OFFCURVE",
"416 110 CURVE SMOOTH",
"389 80 OFFCURVE",
"352 66 OFFCURVE",
"307 66 CURVE SMOOTH",
"259 66 OFFCURVE",
"222 82 OFFCURVE",
"200 113 CURVE SMOOTH",
"175 147 OFFCURVE",
"163 187 OFFCURVE",
"162 240 CURVE",
"540 240 LINE",
"540 291 OFFCURVE",
"538 329 OFFCURVE",
"532 353 CURVE",
"527 387 OFFCURVE",
"517 418 OFFCURVE",
"499 444 CURVE SMOOTH",
"480 472 OFFCURVE",
"455 495 OFFCURVE",
"420 511 CURVE SMOOTH",
"386 527 OFFCURVE",
"349 536 OFFCURVE",
"313 536 CURVE SMOOTH",
"240 536 OFFCURVE",
"182 511 OFFCURVE",
"137 459 CURVE SMOOTH",
"92 408 OFFCURVE",
"70 339 OFFCURVE",
"70 257 CURVE SMOOTH",
"70 173 OFFCURVE",
"92 106 OFFCURVE",
"136 61 CURVE SMOOTH",
"181 14 OFFCURVE",
"236 -9 OFFCURVE",
"300 -9 CURVE SMOOTH"
);
},
{
closed = 1;
nodes = (
"166 353 OFFCURVE",
"181 388 OFFCURVE",
"209 418 CURVE SMOOTH",
"236 447 OFFCURVE",
"268 460 OFFCURVE",
"308 460 CURVE SMOOTH",
"365 460 OFFCURVE",
"407 438 OFFCURVE",
"428 399 CURVE SMOOTH",
"438 381 OFFCURVE",
"448 347 OFFCURVE",
"452 309 CURVE",
"164 309 LINE"
);
}
);
width = 610;
},
{
associatedMasterId = "61E9F240-DCC1-4244-924B-01C71F2248F0";
layerId = "F40E2F94-F4B3-4D3C-AA5D-04A91D7A3D3E";
paths = (
{
closed = 1;
nodes = (
"326 -9 OFFCURVE",
"349 -7 OFFCURVE",
"372 -2 CURVE SMOOTH",
"410 7 OFFCURVE",
"442 24 OFFCURVE",
"469 50 CURVE",
"484 66 OFFCURVE",
"499 84 OFFCURVE",
"511 106 CURVE SMOOTH",
"524 130 OFFCURVE",
"531 152 OFFCURVE",
"533 172 CURVE",
"448 172 LINE",
"442 148 OFFCURVE",
"431 127 OFFCURVE",
"416 110 CURVE SMOOTH",
"389 80 OFFCURVE",
"352 66 OFFCURVE",
"307 66 CURVE SMOOTH",
"259 66 OFFCURVE",
"222 82 OFFCURVE",
"200 113 CURVE SMOOTH",
"175 147 OFFCURVE",
"163 187 OFFCURVE",
"162 240 CURVE",
"540 240 LINE",
"540 291 OFFCURVE",
"538 329 OFFCURVE",
"532 353 CURVE",
"527 387 OFFCURVE",
"517 418 OFFCURVE",
"499 444 CURVE SMOOTH",
"480 472 OFFCURVE",
"455 495 OFFCURVE",
"420 511 CURVE SMOOTH",
"386 527 OFFCURVE",
"349 536 OFFCURVE",
"313 536 CURVE SMOOTH",
"240 536 OFFCURVE",
"182 511 OFFCURVE",
"137 459 CURVE SMOOTH",
"92 408 OFFCURVE",
"70 339 OFFCURVE",
"70 257 CURVE SMOOTH",
"70 173 OFFCURVE",
"92 106 OFFCURVE",
"136 61 CURVE SMOOTH",
"181 14 OFFCURVE",
"236 -9 OFFCURVE",
"300 -9 CURVE SMOOTH"
);
},
{
closed = 1;
nodes = (
"166 353 OFFCURVE",
"181 388 OFFCURVE",
"209 418 CURVE SMOOTH",
"236 447 OFFCURVE",
"268 460 OFFCURVE",
"308 460 CURVE SMOOTH",
"365 460 OFFCURVE",
"407 438 OFFCURVE",
"428 399 CURVE SMOOTH",
"439 378 OFFCURVE",
"448 347 OFFCURVE",
"452 309 CURVE",
"164 309 LINE"
);
}
);
width = 610;
}
);
leftKerningGroup = o;
note = e;
rightKerningGroup = o;
unicode = 0065;
},
{
glyphname = f;
lastChange = "2018-10-24 01:43:01 +0000";
layers = (
{
layerId = "61E9F240-DCC1-4244-924B-01C71F2248F0";
paths = (
{
closed = 1;
nodes = (
"150 0 LINE",
"150 448 LINE",
"206 448 LINE",
"206 518 LINE",
"151 518 LINE",
"151 584 OFFCURVE",
"153 609 OFFCURVE",
"156 624 CURVE",
"162 639 OFFCURVE",
"169 646 OFFCURVE",
"187 646 CURVE SMOOTH",
"194 646 LINE SMOOTH",
"198 646 OFFCURVE",
"200 645 OFFCURVE",
"206 644 CURVE",
"206 724 LINE",
"200 725 OFFCURVE",
"196 724 OFFCURVE",
"194 726 CURVE",
"190 727 OFFCURVE",
"187 726 OFFCURVE",
"181 726 CURVE SMOOTH",
"144 726 OFFCURVE",
"121 710 OFFCURVE",
"107 678 CURVE SMOOTH",
"101 665 OFFCURVE",
"98 640 OFFCURVE",
"95 599 CURVE",
"95 518 LINE",
"50 518 LINE",
"50 448 LINE",
"95 448 LINE",
"95 0 LINE"
);
}
);
width = 256;
},
{
layerId = "994FE389-9D54-4FAA-B055-C46A67020E78";
paths = (
{
closed = 1;
nodes = (
"229 0 LINE",
"229 448 LINE",
"318 448 LINE",
"318 518 LINE",
"230 518 LINE",
"230 575 OFFCURVE",
"232 608 OFFCURVE",
"239 624 CURVE",
"247 639 OFFCURVE",
"259 646 OFFCURVE",
"286 646 CURVE SMOOTH",
"297 646 LINE SMOOTH",
"302 646 OFFCURVE",
"309 645 OFFCURVE",
"318 644 CURVE",
"318 724 LINE",
"309 725 OFFCURVE",
"303 724 OFFCURVE",
"297 726 CURVE",
"291 727 OFFCURVE",
"286 726 OFFCURVE",
"279 726 CURVE SMOOTH",
"221 726 OFFCURVE",
"182 710 OFFCURVE",
"162 680 CURVE SMOOTH",
"151 664 OFFCURVE",
"145 637 OFFCURVE",
"143 599 CURVE",
"143 518 LINE",
"70 518 LINE",
"70 448 LINE",
"143 448 LINE",
"143 0 LINE"
);
}
);
width = 388;
},
{
associatedMasterId = "61E9F240-DCC1-4244-924B-01C71F2248F0";
layerId = "F40E2F94-F4B3-4D3C-AA5D-04A91D7A3D3E";
paths = (
{
closed = 1;
nodes = (
"229 0 LINE",
"229 448 LINE",
"318 448 LINE",
"318 518 LINE",
"230 518 LINE",
"230 575 OFFCURVE",
"232 608 OFFCURVE",
"239 624 CURVE",
"247 639 OFFCURVE",
"259 646 OFFCURVE",
"286 646 CURVE SMOOTH",
"297 646 LINE SMOOTH",
"302 646 OFFCURVE",
"309 645 OFFCURVE",
"318 644 CURVE",
"318 724 LINE",
"309 725 OFFCURVE",
"303 724 OFFCURVE",
"297 726 CURVE",
"291 727 OFFCURVE",
"286 726 OFFCURVE",
"279 726 CURVE SMOOTH",
"221 726 OFFCURVE",
"182 710 OFFCURVE",
"162 680 CURVE SMOOTH",
"151 664 OFFCURVE",
"145 637 OFFCURVE",
"143 599 CURVE",
"143 518 LINE",
"70 518 LINE",
"70 448 LINE",
"143 448 LINE",
"143 0 LINE"
);
}
);
width = 388;
}
);
note = f;
unicode = 0066;
},
{
glyphname = g;
lastChange = "2018-10-24 01:43:01 +0000";
layers = (
{
layerId = "61E9F240-DCC1-4244-924B-01C71F2248F0";
paths = (
{
closed = 1;
nodes = (
"247 -189 OFFCURVE",
"289 -155 OFFCURVE",
"312 -86 CURVE SMOOTH",
"330 -32 OFFCURVE",
"330 25 OFFCURVE",
"330 66 CURVE SMOOTH",
"330 527 LINE",
"281 527 LINE",
"281 465 LINE",
"266 490 OFFCURVE",
"264 499 OFFCURVE",
"250 514 CURVE SMOOTH",
"231 534 OFFCURVE",
"212 541 OFFCURVE",
"185 541 CURVE SMOOTH",
"151 541 OFFCURVE",
"115 518 OFFCURVE",
"91 472 CURVE SMOOTH",
"65 423 OFFCURVE",
"50 355 OFFCURVE",
"50 272 CURVE SMOOTH",
"50 183 OFFCURVE",
"63 120 OFFCURVE",
"90 78 CURVE SMOOTH",
"115 38 OFFCURVE",
"147 19 OFFCURVE",
"180 19 CURVE SMOOTH",
"206 19 OFFCURVE",
"225 26 OFFCURVE",
"239 39 CURVE SMOOTH",
"252 51 OFFCURVE",
"267 70 OFFCURVE",
"279 98 CURVE",
"280 23 OFFCURVE",
"276 -21 OFFCURVE",
"269 -48 CURVE SMOOTH",
"258 -90 OFFCURVE",
"234 -119 OFFCURVE",
"187 -119 CURVE SMOOTH",
"160 -119 OFFCURVE",
"143 -110 OFFCURVE",
"130 -88 CURVE",
"121 -75 OFFCURVE",
"117 -56 OFFCURVE",
"114 -35 CURVE",
"61 -35 LINE",
"62 -87 OFFCURVE",
"79 -133 OFFCURVE",
"99 -153 CURVE SMOOTH",
"119 -173 OFFCURVE",
"152 -189 OFFCURVE",
"187 -189 CURVE SMOOTH"
);
},
{
closed = 1;
nodes = (
"164 90 OFFCURVE",
"142 103 OFFCURVE",
"127 134 CURVE SMOOTH",
"117 155 OFFCURVE",
"105 201 OFFCURVE",
"105 266 CURVE SMOOTH",
"105 315 OFFCURVE",
"108 350 OFFCURVE",
"117 382 CURVE SMOOTH",
"132 436 OFFCURVE",
"156 468 OFFCURVE",
"193 468 CURVE SMOOTH",
"219 468 OFFCURVE",
"238 451 OFFCURVE",
"256 423 CURVE SMOOTH",
"275 392 OFFCURVE",
"281 345 OFFCURVE",
"281 283 CURVE SMOOTH",
"281 242 OFFCURVE",
"276 200 OFFCURVE",
"269 173 CURVE SMOOTH",
"253 112 OFFCURVE",
"221 90 OFFCURVE",
"187 90 CURVE SMOOTH"
);
}
);
width = 380;
},
{
layerId = "994FE389-9D54-4FAA-B055-C46A67020E78";
paths = (
{
closed = 1;
nodes = (
"385 -189 OFFCURVE",
"450 -154 OFFCURVE",
"486 -84 CURVE SMOOTH",
"514 -30 OFFCURVE",
"514 25 OFFCURVE",
"514 66 CURVE SMOOTH",
"514 527 LINE",
"436 527 LINE",
"436 465 LINE",
"418 485 OFFCURVE",
"404 504 OFFCURVE",
"388 514 CURVE SMOOTH",
"358 533 OFFCURVE",
"322 541 OFFCURVE",
"284 541 CURVE SMOOTH",
"225 541 OFFCURVE",
"174 518 OFFCURVE",
"134 471 CURVE SMOOTH",
"94 423 OFFCURVE",
"70 356 OFFCURVE",
"70 272 CURVE SMOOTH",
"70 181 OFFCURVE",
"91 120 OFFCURVE",
"134 78 CURVE SMOOTH",
"174 38 OFFCURVE",
"222 19 OFFCURVE",
"276 19 CURVE SMOOTH",
"316 19 OFFCURVE",
"348 26 OFFCURVE",
"370 39 CURVE SMOOTH",
"393 53 OFFCURVE",
"416 72 OFFCURVE",
"434 98 CURVE",
"435 26 OFFCURVE",
"428 -21 OFFCURVE",
"417 -48 CURVE SMOOTH",
"398 -94 OFFCURVE",
"354 -119 OFFCURVE",
"286 -119 CURVE SMOOTH",
"247 -119 OFFCURVE",
"216 -110 OFFCURVE",
"196 -88 CURVE",
"185 -77 OFFCURVE",
"178 -60 OFFCURVE",
"173 -35 CURVE",
"87 -35 LINE",
"90 -88 OFFCURVE",
"112 -129 OFFCURVE",
"148 -152 CURVE SMOOTH",
"185 -175 OFFCURVE",
"229 -189 OFFCURVE",
"286 -189 CURVE SMOOTH"
);
},
{
closed = 1;
nodes = (
"247 90 OFFCURVE",
"215 104 OFFCURVE",
"193 133 CURVE SMOOTH",
"171 163 OFFCURVE",
"156 204 OFFCURVE",
"156 266 CURVE SMOOTH",
"156 313 OFFCURVE",
"163 353 OFFCURVE",
"176 382 CURVE SMOOTH",
"200 436 OFFCURVE",
"239 468 OFFCURVE",
"298 468 CURVE SMOOTH",
"337 468 OFFCURVE",
"369 451 OFFCURVE",
"398 421 CURVE SMOOTH",
"426 392 OFFCURVE",
"436 345 OFFCURVE",
"436 283 CURVE SMOOTH",
"436 241 OFFCURVE",
"429 203 OFFCURVE",
"416 172 CURVE SMOOTH",
"393 115 OFFCURVE",
"347 90 OFFCURVE",
"286 90 CURVE SMOOTH"
);
}
);
width = 584;
},
{
associatedMasterId = "61E9F240-DCC1-4244-924B-01C71F2248F0";
layerId = "F40E2F94-F4B3-4D3C-AA5D-04A91D7A3D3E";
paths = (
{
closed = 1;
nodes = (
"385 -189 OFFCURVE",
"450 -154 OFFCURVE",
"486 -84 CURVE SMOOTH",
"514 -30 OFFCURVE",
"514 25 OFFCURVE",
"514 66 CURVE SMOOTH",
"514 527 LINE",
"436 527 LINE",
"436 465 LINE",
"418 485 OFFCURVE",
"404 504 OFFCURVE",
"388 514 CURVE SMOOTH",
"358 533 OFFCURVE",
"322 541 OFFCURVE",
"284 541 CURVE SMOOTH",
"225 541 OFFCURVE",
"174 518 OFFCURVE",
"134 471 CURVE SMOOTH",
"94 423 OFFCURVE",
"70 356 OFFCURVE",
"70 272 CURVE SMOOTH",
"70 181 OFFCURVE",
"91 120 OFFCURVE",
"134 78 CURVE SMOOTH",
"174 38 OFFCURVE",
"222 19 OFFCURVE",
"276 19 CURVE SMOOTH",
"316 19 OFFCURVE",
"348 26 OFFCURVE",
"370 39 CURVE SMOOTH",
"393 53 OFFCURVE",
"416 72 OFFCURVE",
"434 98 CURVE",
"435 26 OFFCURVE",
"428 -21 OFFCURVE",
"417 -48 CURVE SMOOTH",
"398 -94 OFFCURVE",
"354 -119 OFFCURVE",
"286 -119 CURVE SMOOTH",
"247 -119 OFFCURVE",
"216 -110 OFFCURVE",
"196 -88 CURVE",
"185 -77 OFFCURVE",
"178 -60 OFFCURVE",
"173 -35 CURVE",
"87 -35 LINE",
"90 -88 OFFCURVE",
"112 -129 OFFCURVE",
"148 -152 CURVE SMOOTH",
"185 -175 OFFCURVE",
"229 -189 OFFCURVE",
"286 -189 CURVE SMOOTH"
);
},
{
closed = 1;
nodes = (
"247 90 OFFCURVE",
"215 104 OFFCURVE",
"193 133 CURVE SMOOTH",
"171 163 OFFCURVE",
"156 204 OFFCURVE",
"156 266 CURVE SMOOTH",
"156 313 OFFCURVE",
"163 353 OFFCURVE",
"176 382 CURVE SMOOTH",
"200 436 OFFCURVE",
"239 468 OFFCURVE",
"298 468 CURVE SMOOTH",
"337 468 OFFCURVE",
"369 451 OFFCURVE",
"398 421 CURVE SMOOTH",
"426 392 OFFCURVE",
"436 345 OFFCURVE",
"436 283 CURVE SMOOTH",
"436 241 OFFCURVE",
"429 203 OFFCURVE",
"416 172 CURVE SMOOTH",
"393 115 OFFCURVE",
"347 90 OFFCURVE",
"286 90 CURVE SMOOTH"
);
}
);
width = 584;
}
);
leftKerningGroup = o;
note = g;
unicode = 0067;
},
{
glyphname = h;
lastChange = "2018-10-24 01:43:01 +0000";
layers = (
{
layerId = "61E9F240-DCC1-4244-924B-01C71F2248F0";
paths = (
{
closed = 1;
nodes = (
"105 1 LINE",
"105 280 LINE SMOOTH",
"105 344 OFFCURVE",
"114 397 OFFCURVE",
"134 423 CURVE SMOOTH",
"152 446 OFFCURVE",
"177 461 OFFCURVE",
"196 461 CURVE SMOOTH",
"226 461 OFFCURVE",
"246 445 OFFCURVE",
"254 417 CURVE SMOOTH",
"264 383 OFFCURVE",
"264 372 OFFCURVE",
"264 334 CURVE SMOOTH",
"264 1 LINE",
"320 1 LINE",
"320 339 LINE SMOOTH",
"320 377 OFFCURVE",
"320 421 OFFCURVE",
"307 461 CURVE SMOOTH",
"289 517 OFFCURVE",
"254 540 OFFCURVE",
"210 540 CURVE SMOOTH",
"185 540 OFFCURVE",
"164 533 OFFCURVE",
"141 514 CURVE SMOOTH",
"129 504 OFFCURVE",
"114 476 OFFCURVE",
"105 456 CURVE",
"105 727 LINE",
"50 727 LINE",
"50 1 LINE"
);
}
);
width = 370;
},
{
layerId = "994FE389-9D54-4FAA-B055-C46A67020E78";
paths = (
{
closed = 1;
nodes = (
"158 1 LINE",
"158 280 LINE SMOOTH",
"158 352 OFFCURVE",
"173 398 OFFCURVE",
"204 423 CURVE SMOOTH",
"234 446 OFFCURVE",
"265 461 OFFCURVE",
"303 461 CURVE SMOOTH",
"347 461 OFFCURVE",
"380 445 OFFCURVE",
"394 417 CURVE SMOOTH",
"404 398 OFFCURVE",
"409 372 OFFCURVE",
"409 334 CURVE SMOOTH",
"409 1 LINE",
"499 1 LINE",
"499 339 LINE SMOOTH",
"499 380 OFFCURVE",
"495 425 OFFCURVE",
"477 460 CURVE SMOOTH",
"448 516 OFFCURVE",
"397 540 OFFCURVE",
"322 540 CURVE SMOOTH",
"279 540 OFFCURVE",
"244 530 OFFCURVE",
"214 514 CURVE SMOOTH",
"198 505 OFFCURVE",
"179 483 OFFCURVE",
"158 456 CURVE",
"158 727 LINE",
"70 727 LINE",
"70 1 LINE"
);
}
);
width = 569;
},
{
associatedMasterId = "61E9F240-DCC1-4244-924B-01C71F2248F0";
layerId = "F40E2F94-F4B3-4D3C-AA5D-04A91D7A3D3E";
paths = (
{
closed = 1;
nodes = (
"158 1 LINE",
"158 280 LINE SMOOTH",
"158 352 OFFCURVE",
"173 398 OFFCURVE",
"204 423 CURVE SMOOTH",
"234 446 OFFCURVE",
"265 461 OFFCURVE",
"303 461 CURVE SMOOTH",
"347 461 OFFCURVE",
"380 445 OFFCURVE",
"394 417 CURVE SMOOTH",
"404 398 OFFCURVE",
"409 372 OFFCURVE",
"409 334 CURVE SMOOTH",
"409 1 LINE",
"499 1 LINE",
"499 339 LINE SMOOTH",
"499 380 OFFCURVE",
"495 425 OFFCURVE",
"477 460 CURVE SMOOTH",
"448 516 OFFCURVE",
"397 540 OFFCURVE",
"322 540 CURVE SMOOTH",
"279 540 OFFCURVE",
"244 530 OFFCURVE",
"214 514 CURVE SMOOTH",
"198 505 OFFCURVE",
"179 483 OFFCURVE",
"158 456 CURVE",
"158 727 LINE",
"70 727 LINE",
"70 1 LINE"
);
}
);
width = 569;
}
);
note = h;
unicode = 0068;
},
{
glyphname = i;
lastChange = "2018-10-24 01:43:01 +0000";
layers = (
{
layerId = "61E9F240-DCC1-4244-924B-01C71F2248F0";
paths = (
{
closed = 1;
nodes = (
"107 -1 LINE",
"107 526 LINE",
"50 526 LINE",
"50 -1 LINE"
);
},
{
closed = 1;
nodes = (
"107 626 LINE",
"107 727 LINE",
"50 727 LINE",
"50 626 LINE"
);
}
);
width = 157;
},
{
layerId = "994FE389-9D54-4FAA-B055-C46A67020E78";
paths = (
{
closed = 1;
nodes = (
"160 -1 LINE",
"160 526 LINE",
"70 526 LINE",
"70 -1 LINE"
);
},
{
closed = 1;
nodes = (
"160 626 LINE",
"160 727 LINE",
"70 727 LINE",
"70 626 LINE"
);
}
);
width = 230;
},
{
associatedMasterId = "61E9F240-DCC1-4244-924B-01C71F2248F0";
layerId = "F40E2F94-F4B3-4D3C-AA5D-04A91D7A3D3E";
paths = (
{
closed = 1;
nodes = (
"160 -1 LINE",
"160 526 LINE",
"70 526 LINE",
"70 -1 LINE"
);
},
{
closed = 1;
nodes = (
"160 626 LINE",
"160 727 LINE",
"70 727 LINE",
"70 626 LINE"
);
}
);
width = 230;
}
);
leftKerningGroup = b;
note = i;
rightKerningGroup = b;
unicode = 0069;
},
{
glyphname = j;
lastChange = "2018-10-24 01:43:01 +0000";
layers = (
{
layerId = "61E9F240-DCC1-4244-924B-01C71F2248F0";
paths = (
{
closed = 1;
nodes = (
"107 -182 OFFCURVE",
"131 -167 OFFCURVE",
"144 -133 CURVE SMOOTH",
"150 -116 OFFCURVE",
"155 -92 OFFCURVE",
"155 -50 CURVE SMOOTH",
"155 535 LINE",
"101 535 LINE",
"101 -42 LINE SMOOTH",
"101 -75 OFFCURVE",
"98 -89 OFFCURVE",
"94 -94 CURVE",
"90 -100 OFFCURVE",
"72 -104 OFFCURVE",
"50 -104 CURVE",
"50 -179 LINE",
"56 -180 OFFCURVE",
"61 -181 OFFCURVE",
"65 -181 CURVE SMOOTH",
"67 -181 OFFCURVE",
"71 -182 OFFCURVE",
"73 -182 CURVE SMOOTH"
);
},
{
closed = 1;
nodes = (
"155 627 LINE",
"155 727 LINE",
"101 727 LINE",
"101 627 LINE"
);
}
);
width = 205;
},
{
layerId = "994FE389-9D54-4FAA-B055-C46A67020E78";
paths = (
{
closed = 1;
nodes = (
"161 -182 OFFCURVE",
"199 -165 OFFCURVE",
"219 -134 CURVE SMOOTH",
"231 -114 OFFCURVE",
"238 -89 OFFCURVE",
"238 -50 CURVE SMOOTH",
"238 535 LINE",
"151 535 LINE",
"151 -42 LINE SMOOTH",
"151 -72 OFFCURVE",
"148 -89 OFFCURVE",
"140 -94 CURVE",
"132 -100 OFFCURVE",
"109 -104 OFFCURVE",
"70 -104 CURVE",
"70 -179 LINE",
"80 -180 OFFCURVE",
"88 -181 OFFCURVE",
"92 -181 CURVE SMOOTH",
"98 -181 OFFCURVE",
"102 -182 OFFCURVE",
"106 -182 CURVE SMOOTH"
);
},
{
closed = 1;
nodes = (
"238 627 LINE",
"238 727 LINE",
"151 727 LINE",
"151 627 LINE"
);
}
);
width = 308;
},
{
associatedMasterId = "61E9F240-DCC1-4244-924B-01C71F2248F0";
layerId = "F40E2F94-F4B3-4D3C-AA5D-04A91D7A3D3E";
paths = (
{
closed = 1;
nodes = (
"161 -182 OFFCURVE",
"199 -165 OFFCURVE",
"219 -134 CURVE SMOOTH",
"231 -114 OFFCURVE",
"238 -89 OFFCURVE",
"238 -50 CURVE SMOOTH",
"238 535 LINE",
"151 535 LINE",
"151 -42 LINE SMOOTH",
"151 -72 OFFCURVE",
"148 -89 OFFCURVE",
"140 -94 CURVE",
"132 -100 OFFCURVE",
"109 -104 OFFCURVE",
"70 -104 CURVE",
"70 -179 LINE",
"80 -180 OFFCURVE",
"88 -181 OFFCURVE",
"92 -181 CURVE SMOOTH",
"98 -181 OFFCURVE",
"102 -182 OFFCURVE",
"106 -182 CURVE SMOOTH"
);
},
{
closed = 1;
nodes = (
"238 627 LINE",
"238 727 LINE",
"151 727 LINE",
"151 627 LINE"
);
}
);
width = 308;
}
);
note = j;
unicode = 006A;
},
{
glyphname = k;
lastChange = "2018-10-24 01:43:01 +0000";
layers = (
{
layerId = "61E9F240-DCC1-4244-924B-01C71F2248F0";
paths = (
{
closed = 1;
nodes = (
"105 0 LINE",
"105 199 LINE",
"152 268 LINE",
"255 0 LINE",
"327 0 LINE",
"192 332 LINE",
"319 530 LINE",
"249 530 LINE",
"105 305 LINE",
"105 727 LINE",
"50 727 LINE",
"50 0 LINE"
);
}
);
width = 377;
},
{
layerId = "994FE389-9D54-4FAA-B055-C46A67020E78";
paths = (
{
closed = 1;
nodes = (
"156 0 LINE",
"156 199 LINE",
"231 268 LINE",
"395 0 LINE",
"509 0 LINE",
"295 332 LINE",
"498 530 LINE",
"385 530 LINE",
"156 305 LINE",
"156 727 LINE",
"70 727 LINE",
"70 0 LINE"
);
}
);
width = 579;
},
{
associatedMasterId = "61E9F240-DCC1-4244-924B-01C71F2248F0";
layerId = "F40E2F94-F4B3-4D3C-AA5D-04A91D7A3D3E";
paths = (
{
closed = 1;
nodes = (
"156 0 LINE",
"156 199 LINE",
"231 268 LINE",
"395 0 LINE",
"509 0 LINE",
"295 332 LINE",
"498 530 LINE",
"385 530 LINE",
"156 305 LINE",
"156 727 LINE",
"70 727 LINE",
"70 0 LINE"
);
}
);
width = 579;
}
);
note = k;
rightKerningGroup = k;
unicode = 006B;
},
{
glyphname = l;
lastChange = "2018-10-24 01:43:01 +0000";
layers = (
{
layerId = "61E9F240-DCC1-4244-924B-01C71F2248F0";
paths = (
{
closed = 1;
nodes = (
"106 0 LINE",
"106 722 LINE",
"50 722 LINE",
"50 0 LINE"
);
}
);
width = 156;
},
{
layerId = "994FE389-9D54-4FAA-B055-C46A67020E78";
paths = (
{
closed = 1;
nodes = (
"159 0 LINE",
"159 722 LINE",
"70 722 LINE",
"70 0 LINE"
);
}
);
width = 229;
},
{
associatedMasterId = "61E9F240-DCC1-4244-924B-01C71F2248F0";
layerId = "F40E2F94-F4B3-4D3C-AA5D-04A91D7A3D3E";
paths = (
{
closed = 1;
nodes = (
"159 0 LINE",
"159 722 LINE",
"70 722 LINE",
"70 0 LINE"
);
}
);
width = 229;
}
);
leftKerningGroup = b;
note = l;
unicode = 006C;
},
{
glyphname = m;
lastChange = "2018-10-24 01:43:01 +0000";
layers = (
{
layerId = "61E9F240-DCC1-4244-924B-01C71F2248F0";
paths = (
{
closed = 1;
nodes = (
"105 0 LINE",
"105 279 LINE SMOOTH",
"105 346 OFFCURVE",
"115 394 OFFCURVE",
"132 420 CURVE SMOOTH",
"150 446 OFFCURVE",
"167 459 OFFCURVE",
"190 459 CURVE SMOOTH",
"214 459 OFFCURVE",
"230 443 OFFCURVE",
"237 422 CURVE SMOOTH",
"242 408 OFFCURVE",
"245 374 OFFCURVE",
"245 344 CURVE SMOOTH",
"245 0 LINE",
"302 0 LINE",
"302 306 LINE SMOOTH",
"302 365 OFFCURVE",
"310 400 OFFCURVE",
"325 422 CURVE SMOOTH",
"342 446 OFFCURVE",
"358 458 OFFCURVE",
"382 458 CURVE SMOOTH",
"398 458 OFFCURVE",
"411 451 OFFCURVE",
"422 438 CURVE",
"433 426 OFFCURVE",
"439 399 OFFCURVE",
"439 366 CURVE SMOOTH",
"439 0 LINE",
"496 0 LINE",
"496 351 LINE SMOOTH",
"496 401 OFFCURVE",
"492 436 OFFCURVE",
"484 460 CURVE SMOOTH",
"467 510 OFFCURVE",
"444 538 OFFCURVE",
"392 538 CURVE SMOOTH",
"372 538 OFFCURVE",
"353 532 OFFCURVE",
"336 518 CURVE",
"320 505 OFFCURVE",
"309 488 OFFCURVE",
"292 456 CURVE",
"285 478 OFFCURVE",
"278 494 OFFCURVE",
"268 507 CURVE",
"252 528 OFFCURVE",
"230 538 OFFCURVE",
"204 538 CURVE SMOOTH",
"184 538 OFFCURVE",
"159 528 OFFCURVE",
"140 508 CURVE SMOOTH",
"134 502 OFFCURVE",
"112 470 OFFCURVE",
"106 452 CURVE",
"106 526 LINE",
"50 526 LINE",
"50 0 LINE"
);
}
);
width = 546;
},
{
layerId = "994FE389-9D54-4FAA-B055-C46A67020E78";
paths = (
{
closed = 1;
nodes = (
"158 0 LINE",
"158 279 LINE SMOOTH",
"158 347 OFFCURVE",
"173 394 OFFCURVE",
"200 420 CURVE SMOOTH",
"227 446 OFFCURVE",
"257 459 OFFCURVE",
"291 459 CURVE SMOOTH",
"327 459 OFFCURVE",
"353 446 OFFCURVE",
"366 422 CURVE SMOOTH",
"375 406 OFFCURVE",
"379 379 OFFCURVE",
"379 344 CURVE SMOOTH",
"379 0 LINE",
"469 0 LINE",
"469 306 LINE SMOOTH",
"469 361 OFFCURVE",
"481 400 OFFCURVE",
"506 423 CURVE SMOOTH",
"532 446 OFFCURVE",
"561 458 OFFCURVE",
"596 458 CURVE SMOOTH",
"621 458 OFFCURVE",
"643 451 OFFCURVE",
"660 438 CURVE",
"677 426 OFFCURVE",
"686 401 OFFCURVE",
"686 366 CURVE SMOOTH",
"686 0 LINE",
"778 0 LINE",
"778 351 LINE SMOOTH",
"778 397 OFFCURVE",
"772 435 OFFCURVE",
"757 462 CURVE SMOOTH",
"729 514 OFFCURVE",
"683 538 OFFCURVE",
"613 538 CURVE SMOOTH",
"580 538 OFFCURVE",
"550 532 OFFCURVE",
"524 518 CURVE",
"497 505 OFFCURVE",
"474 484 OFFCURVE",
"454 456 CURVE",
"443 478 OFFCURVE",
"430 496 OFFCURVE",
"415 507 CURVE",
"390 528 OFFCURVE",
"355 538 OFFCURVE",
"314 538 CURVE SMOOTH",
"277 538 OFFCURVE",
"244 528 OFFCURVE",
"214 508 CURVE SMOOTH",
"198 497 OFFCURVE",
"181 481 OFFCURVE",
"157 452 CURVE",
"157 526 LINE",
"70 526 LINE",
"70 0 LINE"
);
}
);
width = 848;
},
{
associatedMasterId = "61E9F240-DCC1-4244-924B-01C71F2248F0";
layerId = "F40E2F94-F4B3-4D3C-AA5D-04A91D7A3D3E";
paths = (
{
closed = 1;
nodes = (
"158 0 LINE",
"158 279 LINE SMOOTH",
"158 347 OFFCURVE",
"173 394 OFFCURVE",
"200 420 CURVE SMOOTH",
"227 446 OFFCURVE",
"257 459 OFFCURVE",
"291 459 CURVE SMOOTH",
"327 459 OFFCURVE",
"353 446 OFFCURVE",
"366 422 CURVE SMOOTH",
"375 406 OFFCURVE",
"379 379 OFFCURVE",
"379 344 CURVE SMOOTH",
"379 0 LINE",
"469 0 LINE",
"469 306 LINE SMOOTH",
"469 361 OFFCURVE",
"481 400 OFFCURVE",
"506 423 CURVE SMOOTH",
"532 446 OFFCURVE",
"561 458 OFFCURVE",
"596 458 CURVE SMOOTH",
"621 458 OFFCURVE",
"643 451 OFFCURVE",
"660 438 CURVE",
"677 426 OFFCURVE",
"686 401 OFFCURVE",
"686 366 CURVE SMOOTH",
"686 0 LINE",
"778 0 LINE",
"778 351 LINE SMOOTH",
"778 397 OFFCURVE",
"772 435 OFFCURVE",
"757 462 CURVE SMOOTH",
"729 514 OFFCURVE",
"683 538 OFFCURVE",
"613 538 CURVE SMOOTH",
"580 538 OFFCURVE",
"550 532 OFFCURVE",
"524 518 CURVE",
"497 505 OFFCURVE",
"474 484 OFFCURVE",
"454 456 CURVE",
"443 478 OFFCURVE",
"430 496 OFFCURVE",
"415 507 CURVE",
"390 528 OFFCURVE",
"355 538 OFFCURVE",
"314 538 CURVE SMOOTH",
"277 538 OFFCURVE",
"244 528 OFFCURVE",
"214 508 CURVE SMOOTH",
"198 497 OFFCURVE",
"181 481 OFFCURVE",
"157 452 CURVE",
"157 526 LINE",
"70 526 LINE",
"70 0 LINE"
);
}
);
width = 848;
}
);
note = m;
unicode = 006D;
},
{
glyphname = n;
lastChange = "2018-10-24 01:43:01 +0000";
layers = (
{
layerId = "61E9F240-DCC1-4244-924B-01C71F2248F0";
paths = (
{
closed = 1;
nodes = (
"105 0 LINE",
"105 276 LINE SMOOTH",
"105 317 OFFCURVE",
"108 337 OFFCURVE",
"110 356 CURVE",
"113 374 OFFCURVE",
"117 388 OFFCURVE",
"129 410 CURVE SMOOTH",
"142 435 OFFCURVE",
"158 447 OFFCURVE",
"168 453 CURVE",
"177 456 OFFCURVE",
"189 459 OFFCURVE",
"200 459 CURVE SMOOTH",
"230 459 OFFCURVE",
"244 443 OFFCURVE",
"254 410 CURVE SMOOTH",
"262 385 OFFCURVE",
"264 365 OFFCURVE",
"264 332 CURVE SMOOTH",
"264 0 LINE",
"320 0 LINE",
"320 338 LINE SMOOTH",
"320 390 OFFCURVE",
"316 430 OFFCURVE",
"307 459 CURVE SMOOTH",
"290 512 OFFCURVE",
"260 538 OFFCURVE",
"212 538 CURVE SMOOTH",
"190 538 OFFCURVE",
"171 532 OFFCURVE",
"153 518 CURVE",
"135 505 OFFCURVE",
"118 482 OFFCURVE",
"103 452 CURVE",
"103 526 LINE",
"50 526 LINE",
"50 0 LINE"
);
}
);
width = 370;
},
{
layerId = "994FE389-9D54-4FAA-B055-C46A67020E78";
paths = (
{
closed = 1;
nodes = (
"158 0 LINE",
"158 276 LINE SMOOTH",
"158 310 OFFCURVE",
"161 337 OFFCURVE",
"165 356 CURVE",
"170 374 OFFCURVE",
"179 392 OFFCURVE",
"194 409 CURVE SMOOTH",
"213 431 OFFCURVE",
"234 446 OFFCURVE",
"258 453 CURVE",
"271 456 OFFCURVE",
"288 459 OFFCURVE",
"309 459 CURVE SMOOTH",
"351 459 OFFCURVE",
"378 443 OFFCURVE",
"394 410 CURVE SMOOTH",
"404 390 OFFCURVE",
"409 365 OFFCURVE",
"409 332 CURVE SMOOTH",
"409 0 LINE",
"499 0 LINE",
"499 338 LINE SMOOTH",
"499 389 OFFCURVE",
"493 429 OFFCURVE",
"477 460 CURVE SMOOTH",
"450 513 OFFCURVE",
"401 538 OFFCURVE",
"326 538 CURVE SMOOTH",
"292 538 OFFCURVE",
"261 532 OFFCURVE",
"234 518 CURVE",
"205 505 OFFCURVE",
"179 483 OFFCURVE",
"154 452 CURVE",
"154 526 LINE",
"70 526 LINE",
"70 0 LINE"
);
}
);
width = 569;
},
{
associatedMasterId = "61E9F240-DCC1-4244-924B-01C71F2248F0";
layerId = "F40E2F94-F4B3-4D3C-AA5D-04A91D7A3D3E";
paths = (
{
closed = 1;
nodes = (
"158 0 LINE",
"158 276 LINE SMOOTH",
"158 310 OFFCURVE",
"161 337 OFFCURVE",
"165 356 CURVE",
"170 374 OFFCURVE",
"179 392 OFFCURVE",
"194 409 CURVE SMOOTH",
"213 431 OFFCURVE",
"234 446 OFFCURVE",
"258 453 CURVE",
"271 456 OFFCURVE",
"288 459 OFFCURVE",
"309 459 CURVE SMOOTH",
"351 459 OFFCURVE",
"378 443 OFFCURVE",
"394 410 CURVE SMOOTH",
"404 390 OFFCURVE",
"409 365 OFFCURVE",
"409 332 CURVE SMOOTH",
"409 0 LINE",
"499 0 LINE",
"499 338 LINE SMOOTH",
"499 389 OFFCURVE",
"493 429 OFFCURVE",
"477 460 CURVE SMOOTH",
"450 513 OFFCURVE",
"401 538 OFFCURVE",
"326 538 CURVE SMOOTH",
"292 538 OFFCURVE",
"261 532 OFFCURVE",
"234 518 CURVE",
"205 505 OFFCURVE",
"179 483 OFFCURVE",
"154 452 CURVE",
"154 526 LINE",
"70 526 LINE",
"70 0 LINE"
);
}
);
width = 569;
}
);
note = n;
unicode = 006E;
},
{
glyphname = o;
lastChange = "2018-10-24 01:43:01 +0000";
layers = (
{
layerId = "61E9F240-DCC1-4244-924B-01C71F2248F0";
paths = (
{
closed = 1;
nodes = (
"258 -18 OFFCURVE",
"296 14 OFFCURVE",
"320 66 CURVE SMOOTH",
"345 119 OFFCURVE",
"359 189 OFFCURVE",
"359 276 CURVE SMOOTH",
"359 365 OFFCURVE",
"344 430 OFFCURVE",
"315 475 CURVE SMOOTH",
"287 518 OFFCURVE",
"250 543 OFFCURVE",
"206 543 CURVE SMOOTH",
"159 543 OFFCURVE",
"120 516 OFFCURVE",
"91 463 CURVE SMOOTH",
"63 412 OFFCURVE",
"50 334 OFFCURVE",
"50 253 CURVE SMOOTH",
"50 165 OFFCURVE",
"64 105 OFFCURVE",
"91 55 CURVE SMOOTH",
"117 6 OFFCURVE",
"153 -18 OFFCURVE",
"199 -18 CURVE SMOOTH"
);
},
{
closed = 1;
nodes = (
"168 58 OFFCURVE",
"145 79 OFFCURVE",
"129 117 CURVE SMOOTH",
"116 148 OFFCURVE",
"108 195 OFFCURVE",
"108 255 CURVE SMOOTH",
"108 313 OFFCURVE",
"114 362 OFFCURVE",
"131 406 CURVE SMOOTH",
"147 447 OFFCURVE",
"174 466 OFFCURVE",
"205 466 CURVE SMOOTH",
"241 466 OFFCURVE",
"270 441 OFFCURVE",
"286 394 CURVE SMOOTH",
"297 362 OFFCURVE",
"301 317 OFFCURVE",
"301 273 CURVE SMOOTH",
"301 220 OFFCURVE",
"295 169 OFFCURVE",
"280 124 CURVE SMOOTH",
"266 80 OFFCURVE",
"242 58 OFFCURVE",
"204 58 CURVE SMOOTH"
);
}
);
width = 409;
},
{
layerId = "994FE389-9D54-4FAA-B055-C46A67020E78";
paths = (
{
closed = 1;
nodes = (
"392 -18 OFFCURVE",
"457 10 OFFCURVE",
"499 67 CURVE SMOOTH",
"539 120 OFFCURVE",
"560 193 OFFCURVE",
"560 276 CURVE SMOOTH",
"560 366 OFFCURVE",
"534 433 OFFCURVE",
"490 475 CURVE SMOOTH",
"444 519 OFFCURVE",
"385 543 OFFCURVE",
"318 543 CURVE SMOOTH",
"245 543 OFFCURVE",
"182 517 OFFCURVE",
"137 465 CURVE SMOOTH",
"91 412 OFFCURVE",
"70 337 OFFCURVE",
"70 253 CURVE SMOOTH",
"70 170 OFFCURVE",
"91 105 OFFCURVE",
"133 56 CURVE SMOOTH",
"176 6 OFFCURVE",
"233 -18 OFFCURVE",
"306 -18 CURVE SMOOTH"
);
},
{
closed = 1;
nodes = (
"261 58 OFFCURVE",
"222 77 OFFCURVE",
"197 115 CURVE SMOOTH",
"172 152 OFFCURVE",
"161 198 OFFCURVE",
"161 255 CURVE SMOOTH",
"161 313 OFFCURVE",
"172 363 OFFCURVE",
"197 404 CURVE SMOOTH",
"222 445 OFFCURVE",
"262 466 OFFCURVE",
"315 466 CURVE SMOOTH",
"376 466 OFFCURVE",
"419 441 OFFCURVE",
"444 393 CURVE SMOOTH",
"461 362 OFFCURVE",
"468 322 OFFCURVE",
"468 273 CURVE SMOOTH",
"468 218 OFFCURVE",
"457 169 OFFCURVE",
"435 125 CURVE SMOOTH",
"413 80 OFFCURVE",
"372 58 OFFCURVE",
"314 58 CURVE SMOOTH"
);
}
);
width = 630;
},
{
associatedMasterId = "61E9F240-DCC1-4244-924B-01C71F2248F0";
layerId = "F40E2F94-F4B3-4D3C-AA5D-04A91D7A3D3E";
paths = (
{
closed = 1;
nodes = (
"392 -18 OFFCURVE",
"457 10 OFFCURVE",
"499 67 CURVE SMOOTH",
"539 120 OFFCURVE",
"560 193 OFFCURVE",
"560 276 CURVE SMOOTH",
"560 366 OFFCURVE",
"534 433 OFFCURVE",
"490 475 CURVE SMOOTH",
"444 519 OFFCURVE",
"385 543 OFFCURVE",
"318 543 CURVE SMOOTH",
"245 543 OFFCURVE",
"182 517 OFFCURVE",
"137 465 CURVE SMOOTH",
"91 412 OFFCURVE",
"70 337 OFFCURVE",
"70 253 CURVE SMOOTH",
"70 170 OFFCURVE",
"91 105 OFFCURVE",
"133 56 CURVE SMOOTH",
"176 6 OFFCURVE",
"233 -18 OFFCURVE",
"306 -18 CURVE SMOOTH"
);
},
{
closed = 1;
nodes = (
"261 58 OFFCURVE",
"222 77 OFFCURVE",
"197 115 CURVE SMOOTH",
"172 152 OFFCURVE",
"161 198 OFFCURVE",
"161 255 CURVE SMOOTH",
"161 313 OFFCURVE",
"172 363 OFFCURVE",
"197 404 CURVE SMOOTH",
"222 445 OFFCURVE",
"262 466 OFFCURVE",
"315 466 CURVE SMOOTH",
"376 466 OFFCURVE",
"419 441 OFFCURVE",
"444 393 CURVE SMOOTH",
"461 362 OFFCURVE",
"468 322 OFFCURVE",
"468 273 CURVE SMOOTH",
"468 218 OFFCURVE",
"457 169 OFFCURVE",
"435 125 CURVE SMOOTH",
"413 80 OFFCURVE",
"372 58 OFFCURVE",
"314 58 CURVE SMOOTH"
);
}
);
width = 630;
}
);
leftKerningGroup = o;
note = o;
unicode = 006F;
},
{
glyphname = p;
lastChange = "2018-10-24 01:43:01 +0000";
layers = (
{
layerId = "61E9F240-DCC1-4244-924B-01C71F2248F0";
paths = (
{
closed = 1;
nodes = (
"105 -182 LINE",
"105 77 LINE",
"117 55 OFFCURVE",
"126 39 OFFCURVE",
"139 28 CURVE SMOOTH",
"152 16 OFFCURVE",
"175 4 OFFCURVE",
"196 4 CURVE SMOOTH",
"226 4 OFFCURVE",
"255 20 OFFCURVE",
"278 49 CURVE SMOOTH",
"314 96 OFFCURVE",
"333 175 OFFCURVE",
"333 286 CURVE SMOOTH",
"333 366 OFFCURVE",
"321 428 OFFCURVE",
"294 477 CURVE SMOOTH",
"268 524 OFFCURVE",
"234 542 OFFCURVE",
"202 542 CURVE SMOOTH",
"175 542 OFFCURVE",
"152 530 OFFCURVE",
"136 514 CURVE SMOOTH",
"129 507 OFFCURVE",
"112 483 OFFCURVE",
"102 461 CURVE",
"102 528 LINE",
"50 528 LINE",
"50 -182 LINE"
);
},
{
closed = 1;
nodes = (
"153 78 OFFCURVE",
"126 106 OFFCURVE",
"112 158 CURVE SMOOTH",
"104 186 OFFCURVE",
"102 230 OFFCURVE",
"102 258 CURVE SMOOTH",
"102 296 OFFCURVE",
"104 343 OFFCURVE",
"112 377 CURVE SMOOTH",
"126 437 OFFCURVE",
"153 467 OFFCURVE",
"190 467 CURVE SMOOTH",
"226 467 OFFCURVE",
"252 439 OFFCURVE",
"266 385 CURVE SMOOTH",
"275 351 OFFCURVE",
"278 316 OFFCURVE",
"278 278 CURVE SMOOTH",
"278 221 OFFCURVE",
"270 163 OFFCURVE",
"253 129 CURVE SMOOTH",
"236 96 OFFCURVE",
"213 78 OFFCURVE",
"190 78 CURVE SMOOTH"
);
}
);
width = 383;
},
{
layerId = "994FE389-9D54-4FAA-B055-C46A67020E78";
paths = (
{
closed = 1;
nodes = (
"156 -182 LINE",
"156 77 LINE",
"175 56 OFFCURVE",
"191 38 OFFCURVE",
"207 30 CURVE SMOOTH",
"233 16 OFFCURVE",
"265 4 OFFCURVE",
"303 4 CURVE SMOOTH",
"351 4 OFFCURVE",
"395 20 OFFCURVE",
"431 49 CURVE SMOOTH",
"489 96 OFFCURVE",
"517 176 OFFCURVE",
"517 286 CURVE SMOOTH",
"517 369 OFFCURVE",
"497 432 OFFCURVE",
"457 476 CURVE SMOOTH",
"417 521 OFFCURVE",
"368 542 OFFCURVE",
"311 542 CURVE SMOOTH",
"271 542 OFFCURVE",
"238 533 OFFCURVE",
"209 515 CURVE SMOOTH",
"188 502 OFFCURVE",
"171 483 OFFCURVE",
"153 461 CURVE",
"153 528 LINE",
"70 528 LINE",
"70 -182 LINE"
);
},
{
closed = 1;
nodes = (
"233 78 OFFCURVE",
"190 106 OFFCURVE",
"169 157 CURVE SMOOTH",
"158 185 OFFCURVE",
"152 219 OFFCURVE",
"152 258 CURVE SMOOTH",
"152 306 OFFCURVE",
"158 347 OFFCURVE",
"169 378 CURVE SMOOTH",
"190 437 OFFCURVE",
"233 467 OFFCURVE",
"291 467 CURVE SMOOTH",
"350 467 OFFCURVE",
"390 439 OFFCURVE",
"413 383 CURVE SMOOTH",
"425 354 OFFCURVE",
"431 318 OFFCURVE",
"431 278 CURVE SMOOTH",
"431 213 OFFCURVE",
"417 163 OFFCURVE",
"391 129 CURVE SMOOTH",
"365 96 OFFCURVE",
"331 78 OFFCURVE",
"291 78 CURVE SMOOTH"
);
}
);
width = 587;
},
{
associatedMasterId = "61E9F240-DCC1-4244-924B-01C71F2248F0";
layerId = "F40E2F94-F4B3-4D3C-AA5D-04A91D7A3D3E";
paths = (
{
closed = 1;
nodes = (
"156 -182 LINE",
"156 77 LINE",
"175 56 OFFCURVE",
"191 38 OFFCURVE",
"207 30 CURVE SMOOTH",
"233 16 OFFCURVE",
"265 4 OFFCURVE",
"303 4 CURVE SMOOTH",
"351 4 OFFCURVE",
"395 20 OFFCURVE",
"431 49 CURVE SMOOTH",
"489 96 OFFCURVE",
"517 176 OFFCURVE",
"517 286 CURVE SMOOTH",
"517 369 OFFCURVE",
"497 432 OFFCURVE",
"457 476 CURVE SMOOTH",
"417 521 OFFCURVE",
"368 542 OFFCURVE",
"311 542 CURVE SMOOTH",
"271 542 OFFCURVE",
"238 533 OFFCURVE",
"209 515 CURVE SMOOTH",
"188 502 OFFCURVE",
"171 483 OFFCURVE",
"153 461 CURVE",
"153 528 LINE",
"70 528 LINE",
"70 -182 LINE"
);
},
{
closed = 1;
nodes = (
"233 78 OFFCURVE",
"190 106 OFFCURVE",
"169 157 CURVE SMOOTH",
"158 185 OFFCURVE",
"152 219 OFFCURVE",
"152 258 CURVE SMOOTH",
"152 306 OFFCURVE",
"158 347 OFFCURVE",
"169 378 CURVE SMOOTH",
"190 437 OFFCURVE",
"233 467 OFFCURVE",
"291 467 CURVE SMOOTH",
"350 467 OFFCURVE",
"390 439 OFFCURVE",
"413 383 CURVE SMOOTH",
"425 354 OFFCURVE",
"431 318 OFFCURVE",
"431 278 CURVE SMOOTH",
"431 213 OFFCURVE",
"417 163 OFFCURVE",
"391 129 CURVE SMOOTH",
"365 96 OFFCURVE",
"331 78 OFFCURVE",
"291 78 CURVE SMOOTH"
);
}
);
width = 587;
}
);
leftKerningGroup = b;
note = p;
rightKerningGroup = o;
unicode = 0070;
},
{
glyphname = q;
lastChange = "2018-10-24 01:43:01 +0000";
layers = (
{
layerId = "61E9F240-DCC1-4244-924B-01C71F2248F0";
paths = (
{
closed = 1;
nodes = (
"335 -182 LINE",
"335 531 LINE",
"284 531 LINE",
"284 461 LINE",
"271 490 OFFCURVE",
"269 492 OFFCURVE",
"254 511 CURVE SMOOTH",
"237 533 OFFCURVE",
"214 543 OFFCURVE",
"188 543 CURVE SMOOTH",
"145 543 OFFCURVE",
"113 516 OFFCURVE",
"89 465 CURVE SMOOTH",
"65 413 OFFCURVE",
"50 352 OFFCURVE",
"50 263 CURVE SMOOTH",
"50 172 OFFCURVE",
"65 112 OFFCURVE",
"91 69 CURVE SMOOTH",
"117 26 OFFCURVE",
"150 6 OFFCURVE",
"183 6 CURVE SMOOTH",
"207 6 OFFCURVE",
"227 13 OFFCURVE",
"243 26 CURVE",
"259 38 OFFCURVE",
"270 58 OFFCURVE",
"280 80 CURVE",
"280 -182 LINE"
);
},
{
closed = 1;
nodes = (
"157 79 OFFCURVE",
"131 106 OFFCURVE",
"118 159 CURVE SMOOTH",
"111 189 OFFCURVE",
"107 221 OFFCURVE",
"107 269 CURVE SMOOTH",
"107 335 OFFCURVE",
"116 386 OFFCURVE",
"132 418 CURVE SMOOTH",
"149 452 OFFCURVE",
"168 466 OFFCURVE",
"192 466 CURVE SMOOTH",
"231 466 OFFCURVE",
"255 441 OFFCURVE",
"270 389 CURVE SMOOTH",
"276 368 OFFCURVE",
"283 327 OFFCURVE",
"283 281 CURVE SMOOTH",
"283 233 OFFCURVE",
"280 200 OFFCURVE",
"270 163 CURVE SMOOTH",
"255 107 OFFCURVE",
"229 79 OFFCURVE",
"192 79 CURVE SMOOTH"
);
}
);
width = 385;
},
{
layerId = "994FE389-9D54-4FAA-B055-C46A67020E78";
paths = (
{
closed = 1;
nodes = (
"521 -182 LINE",
"521 531 LINE",
"440 531 LINE",
"440 461 LINE",
"425 483 OFFCURVE",
"409 499 OFFCURVE",
"394 511 CURVE SMOOTH",
"365 533 OFFCURVE",
"329 543 OFFCURVE",
"287 543 CURVE SMOOTH",
"223 543 OFFCURVE",
"170 516 OFFCURVE",
"131 465 CURVE SMOOTH",
"92 413 OFFCURVE",
"70 346 OFFCURVE",
"70 263 CURVE SMOOTH",
"70 176 OFFCURVE",
"92 112 OFFCURVE",
"135 69 CURVE SMOOTH",
"178 26 OFFCURVE",
"226 6 OFFCURVE",
"281 6 CURVE SMOOTH",
"319 6 OFFCURVE",
"350 13 OFFCURVE",
"375 26 CURVE",
"401 38 OFFCURVE",
"420 57 OFFCURVE",
"435 80 CURVE",
"435 -182 LINE"
);
},
{
closed = 1;
nodes = (
"239 79 OFFCURVE",
"199 106 OFFCURVE",
"178 159 CURVE SMOOTH",
"166 189 OFFCURVE",
"160 226 OFFCURVE",
"160 269 CURVE SMOOTH",
"160 336 OFFCURVE",
"175 386 OFFCURVE",
"200 418 CURVE SMOOTH",
"226 452 OFFCURVE",
"258 466 OFFCURVE",
"295 466 CURVE SMOOTH",
"354 466 OFFCURVE",
"395 442 OFFCURVE",
"417 391 CURVE SMOOTH",
"430 362 OFFCURVE",
"439 325 OFFCURVE",
"439 281 CURVE SMOOTH",
"439 234 OFFCURVE",
"434 199 OFFCURVE",
"419 164 CURVE SMOOTH",
"395 107 OFFCURVE",
"355 79 OFFCURVE",
"295 79 CURVE SMOOTH"
);
}
);
width = 591;
},
{
associatedMasterId = "61E9F240-DCC1-4244-924B-01C71F2248F0";
layerId = "F40E2F94-F4B3-4D3C-AA5D-04A91D7A3D3E";
paths = (
{
closed = 1;
nodes = (
"521 -182 LINE",
"521 531 LINE",
"440 531 LINE",
"440 461 LINE",
"425 483 OFFCURVE",
"409 499 OFFCURVE",
"394 511 CURVE SMOOTH",
"365 533 OFFCURVE",
"329 543 OFFCURVE",
"287 543 CURVE SMOOTH",
"223 543 OFFCURVE",
"170 516 OFFCURVE",
"131 465 CURVE SMOOTH",
"92 413 OFFCURVE",
"70 346 OFFCURVE",
"70 263 CURVE SMOOTH",
"70 176 OFFCURVE",
"92 112 OFFCURVE",
"135 69 CURVE SMOOTH",
"178 26 OFFCURVE",
"226 6 OFFCURVE",
"281 6 CURVE SMOOTH",
"319 6 OFFCURVE",
"350 13 OFFCURVE",
"375 26 CURVE",
"401 38 OFFCURVE",
"420 57 OFFCURVE",
"435 80 CURVE",
"435 -182 LINE"
);
},
{
closed = 1;
nodes = (
"239 79 OFFCURVE",
"199 106 OFFCURVE",
"178 159 CURVE SMOOTH",
"166 189 OFFCURVE",
"160 226 OFFCURVE",
"160 269 CURVE SMOOTH",
"160 336 OFFCURVE",
"175 386 OFFCURVE",
"200 418 CURVE SMOOTH",
"226 452 OFFCURVE",
"258 466 OFFCURVE",
"295 466 CURVE SMOOTH",
"354 466 OFFCURVE",
"395 442 OFFCURVE",
"417 391 CURVE SMOOTH",
"430 362 OFFCURVE",
"439 325 OFFCURVE",
"439 281 CURVE SMOOTH",
"439 234 OFFCURVE",
"434 199 OFFCURVE",
"419 164 CURVE SMOOTH",
"395 107 OFFCURVE",
"355 79 OFFCURVE",
"295 79 CURVE SMOOTH"
);
}
);
width = 591;
}
);
leftKerningGroup = o;
note = q;
unicode = 0071;
},
{
glyphname = r;
lastChange = "2018-10-24 01:43:01 +0000";
layers = (
{
layerId = "61E9F240-DCC1-4244-924B-01C71F2248F0";
paths = (
{
closed = 1;
nodes = (
"105 0 LINE",
"105 305 LINE SMOOTH",
"105 341 OFFCURVE",
"113 376 OFFCURVE",
"129 405 CURVE SMOOTH",
"143 432 OFFCURVE",
"167 448 OFFCURVE",
"193 448 CURVE",
"203 447 LINE",
"206 447 OFFCURVE",
"209 446 OFFCURVE",
"213 446 CURVE",
"213 539 LINE",
"207 540 OFFCURVE",
"202 540 OFFCURVE",
"199 541 CURVE",
"197 542 OFFCURVE",
"195 541 OFFCURVE",
"193 541 CURVE SMOOTH",
"175 541 OFFCURVE",
"151 528 OFFCURVE",
"135 504 CURVE SMOOTH",
"123 486 OFFCURVE",
"105 453 OFFCURVE",
"102 437 CURVE",
"102 529 LINE",
"50 529 LINE",
"50 0 LINE"
);
}
);
width = 263;
},
{
layerId = "994FE389-9D54-4FAA-B055-C46A67020E78";
paths = (
{
closed = 1;
nodes = (
"158 0 LINE",
"158 305 LINE SMOOTH",
"158 342 OFFCURVE",
"170 376 OFFCURVE",
"194 404 CURVE SMOOTH",
"219 432 OFFCURVE",
"253 448 OFFCURVE",
"298 448 CURVE",
"312 447 LINE",
"316 447 OFFCURVE",
"321 446 OFFCURVE",
"327 446 CURVE",
"327 539 LINE",
"317 540 OFFCURVE",
"311 540 OFFCURVE",
"306 541 CURVE",
"302 542 OFFCURVE",
"300 541 OFFCURVE",
"298 541 CURVE SMOOTH",
"263 541 OFFCURVE",
"231 528 OFFCURVE",
"204 503 CURVE SMOOTH",
"185 485 OFFCURVE",
"161 456 OFFCURVE",
"153 437 CURVE",
"153 529 LINE",
"70 529 LINE",
"70 0 LINE"
);
}
);
width = 397;
},
{
associatedMasterId = "61E9F240-DCC1-4244-924B-01C71F2248F0";
layerId = "F40E2F94-F4B3-4D3C-AA5D-04A91D7A3D3E";
paths = (
{
closed = 1;
nodes = (
"158 0 LINE",
"158 305 LINE SMOOTH",
"158 342 OFFCURVE",
"170 376 OFFCURVE",
"194 404 CURVE SMOOTH",
"219 432 OFFCURVE",
"253 448 OFFCURVE",
"298 448 CURVE",
"312 447 LINE",
"316 447 OFFCURVE",
"321 446 OFFCURVE",
"327 446 CURVE",
"327 539 LINE",
"317 540 OFFCURVE",
"311 540 OFFCURVE",
"306 541 CURVE",
"302 542 OFFCURVE",
"300 541 OFFCURVE",
"298 541 CURVE SMOOTH",
"263 541 OFFCURVE",
"231 528 OFFCURVE",
"204 503 CURVE SMOOTH",
"185 485 OFFCURVE",
"161 456 OFFCURVE",
"153 437 CURVE",
"153 529 LINE",
"70 529 LINE",
"70 0 LINE"
);
}
);
width = 397;
}
);
note = r;
unicode = 0072;
},
{
glyphname = s;
lastChange = "2018-10-24 01:43:01 +0000";
layers = (
{
layerId = "61E9F240-DCC1-4244-924B-01C71F2248F0";
paths = (
{
closed = 1;
nodes = (
"235 -9 OFFCURVE",
"265 11 OFFCURVE",
"287 41 CURVE SMOOTH",
"310 73 OFFCURVE",
"318 118 OFFCURVE",
"318 160 CURVE SMOOTH",
"318 207 OFFCURVE",
"308 242 OFFCURVE",
"288 265 CURVE",
"272 280 OFFCURVE",
"254 287 OFFCURVE",
"207 307 CURVE SMOOTH",
"171 322 LINE SMOOTH",
"157 328 OFFCURVE",
"145 339 OFFCURVE",
"137 344 CURVE",
"122 358 OFFCURVE",
"114 376 OFFCURVE",
"114 396 CURVE SMOOTH",
"114 419 OFFCURVE",
"120 435 OFFCURVE",
"132 448 CURVE SMOOTH",
"142 460 OFFCURVE",
"157 466 OFFCURVE",
"177 466 CURVE SMOOTH",
"207 466 OFFCURVE",
"231 455 OFFCURVE",
"245 432 CURVE",
"251 414 OFFCURVE",
"255 396 OFFCURVE",
"256 379 CURVE",
"308 379 LINE",
"309 413 OFFCURVE",
"302 442 OFFCURVE",
"286 477 CURVE SMOOTH",
"267 519 OFFCURVE",
"229 540 OFFCURVE",
"181 540 CURVE SMOOTH",
"141 540 OFFCURVE",
"115 525 OFFCURVE",
"93 495 CURVE SMOOTH",
"71 466 OFFCURVE",
"60 430 OFFCURVE",
"60 377 CURVE SMOOTH",
"60 338 OFFCURVE",
"71 303 OFFCURVE",
"93 279 CURVE SMOOTH",
"104 267 OFFCURVE",
"128 252 OFFCURVE",
"155 242 CURVE SMOOTH",
"200 225 LINE SMOOTH",
"237 211 OFFCURVE",
"241 206 OFFCURVE",
"247 201 CURVE",
"259 189 OFFCURVE",
"264 171 OFFCURVE",
"264 150 CURVE SMOOTH",
"264 115 OFFCURVE",
"256 100 OFFCURVE",
"241 86 CURVE SMOOTH",
"228 74 OFFCURVE",
"215 64 OFFCURVE",
"188 64 CURVE SMOOTH",
"155 64 OFFCURVE",
"130 78 OFFCURVE",
"117 105 CURVE SMOOTH",
"109 121 OFFCURVE",
"106 135 OFFCURVE",
"102 173 CURVE",
"50 173 LINE",
"52 121 OFFCURVE",
"60 82 OFFCURVE",
"83 43 CURVE SMOOTH",
"106 5 OFFCURVE",
"142 -9 OFFCURVE",
"186 -9 CURVE SMOOTH"
);
}
);
width = 368;
},
{
layerId = "994FE389-9D54-4FAA-B055-C46A67020E78";
paths = (
{
closed = 1;
nodes = (
"356 -9 OFFCURVE",
"408 8 OFFCURVE",
"444 40 CURVE SMOOTH",
"481 73 OFFCURVE",
"495 115 OFFCURVE",
"495 160 CURVE SMOOTH",
"495 208 OFFCURVE",
"479 242 OFFCURVE",
"446 265 CURVE",
"424 279 OFFCURVE",
"383 290 OFFCURVE",
"319 307 CURVE SMOOTH",
"263 322 LINE SMOOTH",
"237 329 OFFCURVE",
"229 331 OFFCURVE",
"207 344 CURVE",
"184 358 OFFCURVE",
"173 376 OFFCURVE",
"173 396 CURVE SMOOTH",
"173 417 OFFCURVE",
"181 435 OFFCURVE",
"198 447 CURVE SMOOTH",
"216 460 OFFCURVE",
"239 466 OFFCURVE",
"273 466 CURVE SMOOTH",
"321 466 OFFCURVE",
"356 455 OFFCURVE",
"377 432 CURVE",
"388 416 OFFCURVE",
"396 397 OFFCURVE",
"398 379 CURVE",
"479 379 LINE",
"480 411 OFFCURVE",
"469 443 OFFCURVE",
"447 474 CURVE SMOOTH",
"414 519 OFFCURVE",
"357 540 OFFCURVE",
"279 540 CURVE SMOOTH",
"218 540 OFFCURVE",
"172 525 OFFCURVE",
"137 495 CURVE SMOOTH",
"102 466 OFFCURVE",
"85 425 OFFCURVE",
"85 377 CURVE SMOOTH",
"85 335 OFFCURVE",
"104 303 OFFCURVE",
"139 279 CURVE SMOOTH",
"160 265 OFFCURVE",
"198 252 OFFCURVE",
"238 242 CURVE SMOOTH",
"308 225 LINE SMOOTH",
"350 215 OFFCURVE",
"362 209 OFFCURVE",
"381 201 CURVE",
"401 189 OFFCURVE",
"409 172 OFFCURVE",
"409 150 CURVE SMOOTH",
"409 121 OFFCURVE",
"398 100 OFFCURVE",
"374 86 CURVE SMOOTH",
"349 71 OFFCURVE",
"320 64 OFFCURVE",
"289 64 CURVE SMOOTH",
"234 64 OFFCURVE",
"198 78 OFFCURVE",
"175 106 CURVE SMOOTH",
"162 122 OFFCURVE",
"156 144 OFFCURVE",
"153 173 CURVE",
"70 173 LINE",
"72 121 OFFCURVE",
"89 78 OFFCURVE",
"122 43 CURVE SMOOTH",
"153 9 OFFCURVE",
"208 -9 OFFCURVE",
"285 -9 CURVE SMOOTH"
);
}
);
width = 565;
},
{
associatedMasterId = "61E9F240-DCC1-4244-924B-01C71F2248F0";
layerId = "F40E2F94-F4B3-4D3C-AA5D-04A91D7A3D3E";
paths = (
{
closed = 1;
nodes = (
"356 -9 OFFCURVE",
"408 8 OFFCURVE",
"444 40 CURVE SMOOTH",
"481 73 OFFCURVE",
"495 115 OFFCURVE",
"495 160 CURVE SMOOTH",
"495 208 OFFCURVE",
"479 242 OFFCURVE",
"446 265 CURVE",
"424 279 OFFCURVE",
"383 290 OFFCURVE",
"319 307 CURVE SMOOTH",
"263 322 LINE SMOOTH",
"237 329 OFFCURVE",
"229 331 OFFCURVE",
"207 344 CURVE",
"184 358 OFFCURVE",
"173 376 OFFCURVE",
"173 396 CURVE SMOOTH",
"173 417 OFFCURVE",
"181 435 OFFCURVE",
"198 447 CURVE SMOOTH",
"216 460 OFFCURVE",
"239 466 OFFCURVE",
"273 466 CURVE SMOOTH",
"321 466 OFFCURVE",
"356 455 OFFCURVE",
"377 432 CURVE",
"388 416 OFFCURVE",
"396 397 OFFCURVE",
"398 379 CURVE",
"479 379 LINE",
"480 411 OFFCURVE",
"469 443 OFFCURVE",
"447 474 CURVE SMOOTH",
"414 519 OFFCURVE",
"357 540 OFFCURVE",
"279 540 CURVE SMOOTH",
"218 540 OFFCURVE",
"172 525 OFFCURVE",
"137 495 CURVE SMOOTH",
"102 466 OFFCURVE",
"85 425 OFFCURVE",
"85 377 CURVE SMOOTH",
"85 335 OFFCURVE",
"104 303 OFFCURVE",
"139 279 CURVE SMOOTH",
"160 265 OFFCURVE",
"198 252 OFFCURVE",
"238 242 CURVE SMOOTH",
"308 225 LINE SMOOTH",
"353 214 OFFCURVE",
"362 209 OFFCURVE",
"381 201 CURVE",
"401 189 OFFCURVE",
"409 172 OFFCURVE",
"409 150 CURVE SMOOTH",
"409 121 OFFCURVE",
"398 100 OFFCURVE",
"374 86 CURVE SMOOTH",
"349 71 OFFCURVE",
"320 64 OFFCURVE",
"289 64 CURVE SMOOTH",
"234 64 OFFCURVE",
"198 78 OFFCURVE",
"175 106 CURVE SMOOTH",
"162 122 OFFCURVE",
"156 144 OFFCURVE",
"153 173 CURVE",
"70 173 LINE",
"72 121 OFFCURVE",
"89 78 OFFCURVE",
"122 43 CURVE SMOOTH",
"153 9 OFFCURVE",
"208 -9 OFFCURVE",
"285 -9 CURVE SMOOTH"
);
}
);
width = 565;
}
);
note = s;
rightKerningGroup = o;
unicode = 0073;
},
{
glyphname = t;
lastChange = "2018-10-24 01:43:01 +0000";
layers = (
{
layerId = "61E9F240-DCC1-4244-924B-01C71F2248F0";
paths = (
{
closed = 1;
nodes = (
"173 -14 OFFCURVE",
"178 -13 OFFCURVE",
"188 -12 CURVE SMOOTH",
"198 -11 OFFCURVE",
"200 -7 OFFCURVE",
"206 -4 CURVE",
"206 66 LINE",
"197 66 LINE SMOOTH",
"194 66 OFFCURVE",
"191 65 OFFCURVE",
"188 65 CURVE SMOOTH",
"174 65 OFFCURVE",
"169 66 OFFCURVE",
"166 69 CURVE",
"156 76 OFFCURVE",
"154 89 OFFCURVE",
"154 108 CURVE SMOOTH",
"154 458 LINE",
"206 458 LINE",
"206 531 LINE",
"154 531 LINE",
"154 682 LINE",
"96 682 LINE",
"96 531 LINE",
"50 531 LINE",
"50 458 LINE",
"96 458 LINE",
"96 103 LINE SMOOTH",
"96 71 OFFCURVE",
"100 41 OFFCURVE",
"110 19 CURVE",
"118 -4 OFFCURVE",
"140 -14 OFFCURVE",
"164 -14 CURVE SMOOTH"
);
}
);
width = 256;
},
{
layerId = "994FE389-9D54-4FAA-B055-C46A67020E78";
paths = (
{
closed = 1;
nodes = (
"263 -14 OFFCURVE",
"275 -13 OFFCURVE",
"289 -12 CURVE SMOOTH",
"300 -11 OFFCURVE",
"310 -7 OFFCURVE",
"318 -4 CURVE",
"318 66 LINE",
"302 66 LINE SMOOTH",
"297 66 OFFCURVE",
"292 65 OFFCURVE",
"289 65 CURVE SMOOTH",
"271 65 OFFCURVE",
"259 66 OFFCURVE",
"252 69 CURVE",
"239 76 OFFCURVE",
"235 89 OFFCURVE",
"235 108 CURVE SMOOTH",
"235 458 LINE",
"318 458 LINE",
"318 531 LINE",
"235 531 LINE",
"235 682 LINE",
"144 682 LINE",
"144 531 LINE",
"70 531 LINE",
"70 458 LINE",
"144 458 LINE",
"144 103 LINE SMOOTH",
"144 67 OFFCURVE",
"150 41 OFFCURVE",
"165 19 CURVE",
"179 -4 OFFCURVE",
"209 -14 OFFCURVE",
"250 -14 CURVE SMOOTH"
);
}
);
width = 388;
},
{
associatedMasterId = "61E9F240-DCC1-4244-924B-01C71F2248F0";
layerId = "F40E2F94-F4B3-4D3C-AA5D-04A91D7A3D3E";
paths = (
{
closed = 1;
nodes = (
"263 -14 OFFCURVE",
"275 -13 OFFCURVE",
"289 -12 CURVE SMOOTH",
"300 -11 OFFCURVE",
"310 -7 OFFCURVE",
"318 -4 CURVE",
"318 66 LINE",
"302 66 LINE SMOOTH",
"297 66 OFFCURVE",
"292 65 OFFCURVE",
"289 65 CURVE SMOOTH",
"271 65 OFFCURVE",
"259 66 OFFCURVE",
"252 69 CURVE",
"239 76 OFFCURVE",
"235 89 OFFCURVE",
"235 108 CURVE SMOOTH",
"235 458 LINE",
"318 458 LINE",
"318 531 LINE",
"235 531 LINE",
"235 682 LINE",
"144 682 LINE",
"144 531 LINE",
"70 531 LINE",
"70 458 LINE",
"144 458 LINE",
"144 103 LINE SMOOTH",
"144 67 OFFCURVE",
"150 41 OFFCURVE",
"165 19 CURVE",
"179 -4 OFFCURVE",
"209 -14 OFFCURVE",
"250 -14 CURVE SMOOTH"
);
}
);
width = 388;
}
);
note = t;
unicode = 0074;
},
{
glyphname = u;
lastChange = "2018-10-24 01:43:01 +0000";
layers = (
{
layerId = "61E9F240-DCC1-4244-924B-01C71F2248F0";
paths = (
{
closed = 1;
nodes = (
"190 -14 OFFCURVE",
"218 -2 OFFCURVE",
"241 27 CURVE SMOOTH",
"250 38 OFFCURVE",
"262 66 OFFCURVE",
"266 78 CURVE",
"266 1 LINE",
"320 1 LINE",
"320 531 LINE",
"263 531 LINE",
"263 270 LINE SMOOTH",
"263 220 OFFCURVE",
"260 180 OFFCURVE",
"251 148 CURVE SMOOTH",
"237 100 OFFCURVE",
"215 66 OFFCURVE",
"171 66 CURVE SMOOTH",
"142 66 OFFCURVE",
"127 81 OFFCURVE",
"117 112 CURVE SMOOTH",
"111 130 OFFCURVE",
"109 150 OFFCURVE",
"109 179 CURVE SMOOTH",
"109 531 LINE",
"50 531 LINE",
"50 171 LINE SMOOTH",
"50 124 OFFCURVE",
"55 88 OFFCURVE",
"64 62 CURVE SMOOTH",
"82 12 OFFCURVE",
"112 -14 OFFCURVE",
"162 -14 CURVE SMOOTH"
);
}
);
width = 370;
},
{
layerId = "994FE389-9D54-4FAA-B055-C46A67020E78";
paths = (
{
closed = 1;
nodes = (
"296 -14 OFFCURVE",
"336 -1 OFFCURVE",
"372 27 CURVE SMOOTH",
"390 42 OFFCURVE",
"401 60 OFFCURVE",
"413 78 CURVE",
"413 1 LINE",
"497 1 LINE",
"497 531 LINE",
"408 531 LINE",
"408 270 LINE SMOOTH",
"408 218 OFFCURVE",
"402 177 OFFCURVE",
"389 149 CURVE SMOOTH",
"364 95 OFFCURVE",
"325 66 OFFCURVE",
"263 66 CURVE SMOOTH",
"219 66 OFFCURVE",
"192 80 OFFCURVE",
"175 113 CURVE SMOOTH",
"167 129 OFFCURVE",
"162 151 OFFCURVE",
"162 179 CURVE SMOOTH",
"162 531 LINE",
"70 531 LINE",
"70 171 LINE SMOOTH",
"70 126 OFFCURVE",
"77 88 OFFCURVE",
"93 61 CURVE SMOOTH",
"121 11 OFFCURVE",
"173 -14 OFFCURVE",
"247 -14 CURVE SMOOTH"
);
}
);
width = 567;
},
{
associatedMasterId = "61E9F240-DCC1-4244-924B-01C71F2248F0";
layerId = "F40E2F94-F4B3-4D3C-AA5D-04A91D7A3D3E";
paths = (
{
closed = 1;
nodes = (
"296 -14 OFFCURVE",
"336 -1 OFFCURVE",
"372 27 CURVE SMOOTH",
"390 42 OFFCURVE",
"401 60 OFFCURVE",
"413 78 CURVE",
"413 1 LINE",
"497 1 LINE",
"497 531 LINE",
"408 531 LINE",
"408 270 LINE SMOOTH",
"408 218 OFFCURVE",
"402 177 OFFCURVE",
"389 149 CURVE SMOOTH",
"364 95 OFFCURVE",
"325 66 OFFCURVE",
"263 66 CURVE SMOOTH",
"219 66 OFFCURVE",
"192 80 OFFCURVE",
"175 113 CURVE SMOOTH",
"167 129 OFFCURVE",
"162 151 OFFCURVE",
"162 179 CURVE SMOOTH",
"162 531 LINE",
"70 531 LINE",
"70 171 LINE SMOOTH",
"70 126 OFFCURVE",
"77 88 OFFCURVE",
"93 61 CURVE SMOOTH",
"121 11 OFFCURVE",
"173 -14 OFFCURVE",
"247 -14 CURVE SMOOTH"
);
}
);
width = 567;
}
);
note = u;
unicode = 0075;
},
{
glyphname = v;
lastChange = "2018-10-24 01:43:01 +0000";
layers = (
{
layerId = "61E9F240-DCC1-4244-924B-01C71F2248F0";
paths = (
{
closed = 1;
nodes = (
"233 -1 LINE",
"359 531 LINE",
"297 531 LINE",
"204 98 LINE",
"114 531 LINE",
"50 531 LINE",
"173 -1 LINE"
);
}
);
width = 409;
},
{
layerId = "994FE389-9D54-4FAA-B055-C46A67020E78";
paths = (
{
closed = 1;
nodes = (
"360 -1 LINE",
"560 531 LINE",
"463 531 LINE",
"314 98 LINE",
"173 531 LINE",
"70 531 LINE",
"265 -1 LINE"
);
}
);
width = 630;
},
{
associatedMasterId = "61E9F240-DCC1-4244-924B-01C71F2248F0";
layerId = "F40E2F94-F4B3-4D3C-AA5D-04A91D7A3D3E";
paths = (
{
closed = 1;
nodes = (
"360 -1 LINE",
"560 531 LINE",
"463 531 LINE",
"314 98 LINE",
"173 531 LINE",
"70 531 LINE",
"265 -1 LINE"
);
}
);
width = 630;
}
);
note = v;
unicode = 0076;
},
{
glyphname = w;
lastChange = "2018-10-24 01:43:01 +0000";
layers = (
{
layerId = "61E9F240-DCC1-4244-924B-01C71F2248F0";
paths = (
{
closed = 1;
nodes = (
"205 0 LINE",
"269 409 LINE",
"339 0 LINE",
"396 0 LINE",
"494 529 LINE",
"437 529 LINE",
"370 116 LINE",
"304 529 LINE",
"240 529 LINE",
"174 113 LINE",
"112 529 LINE",
"50 529 LINE",
"146 0 LINE"
);
}
);
width = 544;
},
{
layerId = "994FE389-9D54-4FAA-B055-C46A67020E78";
paths = (
{
closed = 1;
nodes = (
"315 0 LINE",
"418 409 LINE",
"527 0 LINE",
"619 0 LINE",
"772 529 LINE",
"684 529 LINE",
"576 116 LINE",
"472 529 LINE",
"371 529 LINE",
"268 113 LINE",
"167 529 LINE",
"70 529 LINE",
"223 0 LINE"
);
}
);
width = 842;
},
{
associatedMasterId = "61E9F240-DCC1-4244-924B-01C71F2248F0";
layerId = "F40E2F94-F4B3-4D3C-AA5D-04A91D7A3D3E";
paths = (
{
closed = 1;
nodes = (
"315 0 LINE",
"418 409 LINE",
"527 0 LINE",
"619 0 LINE",
"772 529 LINE",
"684 529 LINE",
"576 116 LINE",
"472 529 LINE",
"371 529 LINE",
"268 113 LINE",
"167 529 LINE",
"70 529 LINE",
"223 0 LINE"
);
}
);
width = 842;
}
);
note = w;
unicode = 0077;
},
{
glyphname = x;
lastChange = "2018-10-24 01:43:01 +0000";
layers = (
{
layerId = "61E9F240-DCC1-4244-924B-01C71F2248F0";
paths = (
{
closed = 1;
nodes = (
"122 1 LINE",
"202 201 LINE",
"285 1 LINE",
"358 1 LINE",
"240 274 LINE",
"353 531 LINE",
"285 533 LINE",
"206 346 LINE",
"130 533 LINE",
"56 533 LINE",
"168 274 LINE",
"50 1 LINE"
);
}
);
width = 408;
},
{
layerId = "994FE389-9D54-4FAA-B055-C46A67020E78";
paths = (
{
closed = 1;
nodes = (
"184 1 LINE",
"311 201 LINE",
"443 1 LINE",
"559 1 LINE",
"371 274 LINE",
"550 531 LINE",
"441 533 LINE",
"318 346 LINE",
"196 533 LINE",
"80 533 LINE",
"258 274 LINE",
"70 1 LINE"
);
}
);
width = 629;
},
{
associatedMasterId = "61E9F240-DCC1-4244-924B-01C71F2248F0";
layerId = "F40E2F94-F4B3-4D3C-AA5D-04A91D7A3D3E";
paths = (
{
closed = 1;
nodes = (
"184 1 LINE",
"311 201 LINE",
"443 1 LINE",
"559 1 LINE",
"371 274 LINE",
"550 531 LINE",
"441 533 LINE",
"318 346 LINE",
"196 533 LINE",
"80 533 LINE",
"258 274 LINE",
"70 1 LINE"
);
}
);
width = 629;
}
);
note = x;
unicode = 0078;
},
{
glyphname = y;
lastChange = "2018-10-24 01:43:01 +0000";
layers = (
{
layerId = "61E9F240-DCC1-4244-924B-01C71F2248F0";
paths = (
{
closed = 1;
nodes = (
"146 -189 OFFCURVE",
"165 -175 OFFCURVE",
"179 -144 CURVE SMOOTH",
"186 -127 OFFCURVE",
"215 -52 OFFCURVE",
"238 89 CURVE SMOOTH",
"244 125 OFFCURVE",
"286 263 OFFCURVE",
"295 308 CURVE SMOOTH",
"321 432 OFFCURVE",
"338 498 OFFCURVE",
"345 531 CURVE",
"286 531 LINE",
"198 116 LINE",
"112 531 LINE",
"50 531 LINE",
"169 6 LINE",
"166 -18 OFFCURVE",
"161 -28 OFFCURVE",
"156 -47 CURVE SMOOTH",
"149 -73 OFFCURVE",
"146 -83 OFFCURVE",
"145 -86 CURVE",
"142 -94 OFFCURVE",
"136 -101 OFFCURVE",
"133 -105 CURVE",
"128 -110 OFFCURVE",
"121 -114 OFFCURVE",
"111 -114 CURVE SMOOTH",
"109 -114 OFFCURVE",
"104 -113 OFFCURVE",
"99 -112 CURVE SMOOTH",
"94 -111 OFFCURVE",
"86 -107 OFFCURVE",
"80 -104 CURVE",
"80 -182 LINE",
"94 -187 LINE",
"99 -188 OFFCURVE",
"106 -189 OFFCURVE",
"111 -189 CURVE SMOOTH"
);
}
);
width = 395;
},
{
layerId = "994FE389-9D54-4FAA-B055-C46A67020E78";
paths = (
{
closed = 1;
nodes = (
"218 -189 OFFCURVE",
"253 -175 OFFCURVE",
"273 -146 CURVE SMOOTH",
"293 -117 OFFCURVE",
"329 -38 OFFCURVE",
"378 92 CURVE SMOOTH",
"379 95 OFFCURVE",
"433 237 OFFCURVE",
"457 306 CURVE SMOOTH",
"480 373 OFFCURVE",
"526 498 OFFCURVE",
"537 531 CURVE",
"442 531 LINE",
"305 116 LINE",
"167 531 LINE",
"70 531 LINE",
"259 6 LINE",
"254 -6 OFFCURVE",
"254 -9 OFFCURVE",
"238 -47 CURVE SMOOTH",
"230 -67 OFFCURVE",
"222 -84 OFFCURVE",
"220 -86 CURVE",
"215 -94 OFFCURVE",
"209 -100 OFFCURVE",
"201 -105 CURVE",
"194 -110 OFFCURVE",
"182 -114 OFFCURVE",
"166 -114 CURVE SMOOTH",
"162 -114 OFFCURVE",
"156 -113 OFFCURVE",
"149 -112 CURVE SMOOTH",
"142 -111 OFFCURVE",
"132 -108 OFFCURVE",
"117 -104 CURVE",
"117 -182 LINE",
"140 -187 LINE",
"147 -188 OFFCURVE",
"157 -189 OFFCURVE",
"168 -189 CURVE SMOOTH"
);
}
);
width = 607;
},
{
associatedMasterId = "61E9F240-DCC1-4244-924B-01C71F2248F0";
layerId = "F40E2F94-F4B3-4D3C-AA5D-04A91D7A3D3E";
paths = (
{
closed = 1;
nodes = (
"218 -189 OFFCURVE",
"253 -175 OFFCURVE",
"273 -146 CURVE SMOOTH",
"293 -117 OFFCURVE",
"329 -38 OFFCURVE",
"378 92 CURVE SMOOTH",
"379 95 OFFCURVE",
"433 237 OFFCURVE",
"457 306 CURVE SMOOTH",
"482 379 OFFCURVE",
"526 498 OFFCURVE",
"537 531 CURVE",
"442 531 LINE",
"305 116 LINE",
"167 531 LINE",
"70 531 LINE",
"259 6 LINE",
"254 -6 OFFCURVE",
"254 -9 OFFCURVE",
"238 -47 CURVE SMOOTH",
"230 -67 OFFCURVE",
"222 -84 OFFCURVE",
"220 -86 CURVE",
"215 -94 OFFCURVE",
"209 -100 OFFCURVE",
"201 -105 CURVE",
"194 -110 OFFCURVE",
"182 -114 OFFCURVE",
"166 -114 CURVE SMOOTH",
"162 -114 OFFCURVE",
"156 -113 OFFCURVE",
"149 -112 CURVE SMOOTH",
"142 -111 OFFCURVE",
"132 -108 OFFCURVE",
"117 -104 CURVE",
"117 -182 LINE",
"140 -187 LINE",
"147 -188 OFFCURVE",
"157 -189 OFFCURVE",
"168 -189 CURVE SMOOTH"
);
}
);
width = 607;
}
);
note = y;
unicode = 0079;
},
{
glyphname = z;
lastChange = "2018-10-24 01:43:01 +0000";
layers = (
{
layerId = "61E9F240-DCC1-4244-924B-01C71F2248F0";
paths = (
{
closed = 1;
nodes = (
"332 -1 LINE",
"332 79 LINE",
"127 79 LINE",
"327 458 LINE",
"327 531 LINE",
"65 531 LINE",
"65 451 LINE",
"250 451 LINE",
"50 69 LINE",
"50 -1 LINE"
);
}
);
width = 382;
},
{
layerId = "994FE389-9D54-4FAA-B055-C46A67020E78";
paths = (
{
closed = 1;
nodes = (
"516 -1 LINE",
"516 79 LINE",
"193 79 LINE",
"507 458 LINE",
"507 531 LINE",
"94 531 LINE",
"94 451 LINE",
"386 451 LINE",
"70 69 LINE",
"70 -1 LINE"
);
}
);
width = 586;
},
{
associatedMasterId = "61E9F240-DCC1-4244-924B-01C71F2248F0";
layerId = "F40E2F94-F4B3-4D3C-AA5D-04A91D7A3D3E";
paths = (
{
closed = 1;
nodes = (
"516 -1 LINE",
"516 79 LINE",
"193 79 LINE",
"507 458 LINE",
"507 531 LINE",
"94 531 LINE",
"94 451 LINE",
"386 451 LINE",
"70 69 LINE",
"70 -1 LINE"
);
}
);
width = 586;
}
);
note = z;
unicode = 007A;
},
{
glyphname = A_W.liga;
lastChange = "2018-10-24 01:43:01 +0000";
layers = (
{
layerId = "61E9F240-DCC1-4244-924B-01C71F2248F0";
paths = (
{
closed = 1;
nodes = (
"544 0 LINE",
"644 566 LINE",
"745 0 LINE",
"805 0 LINE",
"919 684 LINE",
"856 684 LINE",
"775 128 LINE",
"677 684 LINE",
"614 684 LINE",
"516 128 LINE",
"434 684 LINE",
"371 684 LINE",
"483 0 LINE"
);
},
{
closed = 1;
nodes = (
"109 0 LINE",
"155 203 LINE",
"326 203 LINE",
"371 0 LINE",
"434 0 LINE",
"278 682 LINE",
"212 682 LINE",
"50 0 LINE"
);
},
{
closed = 1;
nodes = (
"244 579 LINE",
"307 278 LINE",
"172 278 LINE"
);
}
);
width = 969;
},
{
layerId = "994FE389-9D54-4FAA-B055-C46A67020E78";
paths = (
{
closed = 1;
nodes = (
"854 0 LINE",
"1013 566 LINE",
"1171 0 LINE",
"1268 0 LINE",
"1448 684 LINE",
"1346 684 LINE",
"1217 128 LINE",
"1064 684 LINE",
"962 684 LINE",
"809 128 LINE",
"679 684 LINE",
"579 684 LINE",
"758 0 LINE"
);
},
{
closed = 1;
nodes = (
"164 0 LINE",
"238 203 LINE",
"508 203 LINE",
"577 0 LINE",
"679 0 LINE",
"431 682 LINE",
"326 682 LINE",
"70 0 LINE"
);
},
{
closed = 1;
nodes = (
"376 579 LINE",
"478 278 LINE",
"264 278 LINE"
);
}
);
width = 1518;
},
{
associatedMasterId = "61E9F240-DCC1-4244-924B-01C71F2248F0";
layerId = "F40E2F94-F4B3-4D3C-AA5D-04A91D7A3D3E";
paths = (
{
closed = 1;
nodes = (
"854 0 LINE",
"1013 566 LINE",
"1171 0 LINE",
"1268 0 LINE",
"1448 684 LINE",
"1346 684 LINE",
"1217 128 LINE",
"1064 684 LINE",
"962 684 LINE",
"809 128 LINE",
"679 684 LINE",
"579 684 LINE",
"758 0 LINE"
);
},
{
closed = 1;
nodes = (
"164 0 LINE",
"238 203 LINE",
"508 203 LINE",
"577 0 LINE",
"679 0 LINE",
"431 682 LINE",
"326 682 LINE",
"70 0 LINE"
);
},
{
closed = 1;
nodes = (
"376 579 LINE",
"478 278 LINE",
"264 278 LINE"
);
}
);
width = 1518;
}
);
},
{
glyphname = W_A.liga;
lastChange = "2018-10-24 01:43:01 +0000";
layers = (
{
layerId = "61E9F240-DCC1-4244-924B-01C71F2248F0";
paths = (
{
closed = 1;
nodes = (
"224 0 LINE",
"324 566 LINE",
"424 0 LINE",
"484 0 LINE",
"598 684 LINE",
"535 684 LINE",
"452 128 LINE",
"356 684 LINE",
"291 684 LINE",
"195 128 LINE",
"113 684 LINE",
"50 684 LINE",
"163 0 LINE"
);
},
{
closed = 1;
nodes = (
"600 0 LINE",
"647 203 LINE",
"818 203 LINE",
"862 0 LINE",
"926 0 LINE",
"769 682 LINE",
"703 682 LINE",
"540 0 LINE"
);
},
{
closed = 1;
nodes = (
"735 579 LINE",
"799 278 LINE",
"663 278 LINE"
);
}
);
width = 976;
},
{
layerId = "994FE389-9D54-4FAA-B055-C46A67020E78";
paths = (
{
closed = 1;
nodes = (
"345 0 LINE",
"504 566 LINE",
"662 0 LINE",
"759 0 LINE",
"939 684 LINE",
"837 684 LINE",
"708 128 LINE",
"555 684 LINE",
"453 684 LINE",
"300 128 LINE",
"170 684 LINE",
"70 684 LINE",
"249 0 LINE"
);
},
{
closed = 1;
nodes = (
"943 0 LINE",
"1016 203 LINE",
"1286 203 LINE",
"1356 0 LINE",
"1457 0 LINE",
"1209 682 LINE",
"1105 682 LINE",
"848 0 LINE"
);
},
{
closed = 1;
nodes = (
"1155 579 LINE",
"1256 278 LINE",
"1043 278 LINE"
);
}
);
width = 1527;
},
{
associatedMasterId = "61E9F240-DCC1-4244-924B-01C71F2248F0";
layerId = "F40E2F94-F4B3-4D3C-AA5D-04A91D7A3D3E";
paths = (
{
closed = 1;
nodes = (
"345 0 LINE",
"504 566 LINE",
"662 0 LINE",
"759 0 LINE",
"939 684 LINE",
"837 684 LINE",
"708 128 LINE",
"555 684 LINE",
"453 684 LINE",
"300 128 LINE",
"170 684 LINE",
"70 684 LINE",
"249 0 LINE"
);
},
{
closed = 1;
nodes = (
"943 0 LINE",
"1016 203 LINE",
"1286 203 LINE",
"1356 0 LINE",
"1457 0 LINE",
"1209 682 LINE",
"1105 682 LINE",
"848 0 LINE"
);
},
{
closed = 1;
nodes = (
"1155 579 LINE",
"1256 278 LINE",
"1043 278 LINE"
);
}
);
width = 1527;
}
);
},
{
glyphname = "ra_xa-ethiopic.liga";
lastChange = "2018-10-24 01:43:01 +0000";
layers = (
{
layerId = "61E9F240-DCC1-4244-924B-01C71F2248F0";
paths = (
{
closed = 1;
nodes = (
"511 0 LINE",
"511 439 LINE SMOOTH",
"511 531 OFFCURVE",
"511 531 OFFCURVE",
"446 531 CURVE SMOOTH",
"301 531 LINE",
"301 727 LINE",
"245 727 LINE",
"245 654 LINE",
"161 654 LINE",
"161 571 LINE",
"245 571 LINE",
"245 505 LINE SMOOTH",
"245 478 OFFCURVE",
"254 458 OFFCURVE",
"272 458 CURVE SMOOTH",
"417 458 LINE SMOOTH",
"454 458 OFFCURVE",
"454 458 OFFCURVE",
"454 278 CURVE SMOOTH",
"454 0 LINE"
);
},
{
closed = 1;
nodes = (
"319 79 LINE",
"162 78 LINE SMOOTH",
"116 78 OFFCURVE",
"105 80 OFFCURVE",
"105 212 CURVE SMOOTH",
"105 312 OFFCURVE",
"106 478 OFFCURVE",
"106 531 CURVE",
"50 531 LINE",
"50 134 LINE SMOOTH",
"50 49 OFFCURVE",
"75 0 OFFCURVE",
"109 0 CURVE SMOOTH",
"320 -1 LINE"
);
}
);
width = 561;
},
{
layerId = "994FE389-9D54-4FAA-B055-C46A67020E78";
paths = (
{
closed = 1;
nodes = (
"800 0 LINE",
"800 439 LINE SMOOTH",
"800 531 OFFCURVE",
"800 531 OFFCURVE",
"697 531 CURVE SMOOTH",
"468 531 LINE",
"468 727 LINE",
"377 727 LINE",
"377 654 LINE",
"246 654 LINE",
"246 571 LINE",
"377 571 LINE",
"377 505 LINE SMOOTH",
"377 477 OFFCURVE",
"394 458 OFFCURVE",
"423 458 CURVE SMOOTH",
"651 458 LINE SMOOTH",
"710 458 OFFCURVE",
"710 458 OFFCURVE",
"710 278 CURVE SMOOTH",
"710 0 LINE"
);
},
{
closed = 1;
nodes = (
"498 79 LINE",
"249 78 LINE SMOOTH",
"172 78 OFFCURVE",
"156 85 OFFCURVE",
"156 212 CURVE SMOOTH",
"156 312 OFFCURVE",
"159 478 OFFCURVE",
"159 531 CURVE",
"70 531 LINE",
"70 134 LINE SMOOTH",
"70 49 OFFCURVE",
"110 0 OFFCURVE",
"162 0 CURVE SMOOTH",
"497 -1 LINE"
);
}
);
width = 870;
},
{
associatedMasterId = "61E9F240-DCC1-4244-924B-01C71F2248F0";
layerId = "F40E2F94-F4B3-4D3C-AA5D-04A91D7A3D3E";
paths = (
{
closed = 1;
nodes = (
"800 0 LINE",
"800 439 LINE SMOOTH",
"800 531 OFFCURVE",
"800 531 OFFCURVE",
"697 531 CURVE SMOOTH",
"468 531 LINE",
"468 727 LINE",
"377 727 LINE",
"377 654 LINE",
"246 654 LINE",
"246 571 LINE",
"377 571 LINE",
"377 505 LINE SMOOTH",
"377 477 OFFCURVE",
"394 458 OFFCURVE",
"423 458 CURVE SMOOTH",
"651 458 LINE SMOOTH",
"710 458 OFFCURVE",
"710 458 OFFCURVE",
"710 278 CURVE SMOOTH",
"710 0 LINE"
);
},
{
closed = 1;
nodes = (
"498 79 LINE",
"249 78 LINE SMOOTH",
"172 78 OFFCURVE",
"156 85 OFFCURVE",
"156 212 CURVE SMOOTH",
"156 312 OFFCURVE",
"159 478 OFFCURVE",
"159 531 CURVE",
"70 531 LINE",
"70 134 LINE SMOOTH",
"70 48 OFFCURVE",
"110 0 OFFCURVE",
"162 0 CURVE SMOOTH",
"497 -1 LINE"
);
}
);
width = 870;
}
);
note = uni1280;
},
{
glyphname = "ra_xu-ethiopic.liga";
lastChange = "2018-10-24 01:43:01 +0000";
layers = (
{
layerId = "61E9F240-DCC1-4244-924B-01C71F2248F0";
paths = (
{
closed = 1;
nodes = (
"482 0 LINE",
"482 246 LINE",
"544 246 LINE",
"544 346 LINE",
"482 346 LINE",
"482 439 LINE SMOOTH",
"482 531 OFFCURVE",
"482 531 OFFCURVE",
"418 531 CURVE SMOOTH",
"273 531 LINE",
"273 727 LINE",
"216 727 LINE",
"216 654 LINE",
"133 654 LINE",
"133 571 LINE",
"216 571 LINE",
"216 505 LINE SMOOTH",
"216 478 OFFCURVE",
"226 458 OFFCURVE",
"244 458 CURVE SMOOTH",
"389 458 LINE SMOOTH",
"424 458 OFFCURVE",
"424 458 OFFCURVE",
"424 278 CURVE SMOOTH",
"424 0 LINE"
);
},
{
closed = 1;
nodes = (
"319 79 LINE",
"162 78 LINE SMOOTH",
"116 78 OFFCURVE",
"105 80 OFFCURVE",
"105 212 CURVE SMOOTH",
"105 312 OFFCURVE",
"106 478 OFFCURVE",
"106 531 CURVE",
"50 531 LINE",
"50 134 LINE SMOOTH",
"50 48 OFFCURVE",
"76 0 OFFCURVE",
"109 0 CURVE SMOOTH",
"320 -1 LINE"
);
}
);
width = 594;
},
{
layerId = "994FE389-9D54-4FAA-B055-C46A67020E78";
paths = (
{
closed = 1;
nodes = (
"755 0 LINE",
"755 246 LINE",
"854 246 LINE",
"854 346 LINE",
"755 346 LINE",
"755 439 LINE SMOOTH",
"755 531 OFFCURVE",
"755 531 OFFCURVE",
"652 531 CURVE SMOOTH",
"422 531 LINE",
"422 727 LINE",
"332 727 LINE",
"332 654 LINE",
"201 654 LINE",
"201 571 LINE",
"332 571 LINE",
"332 505 LINE SMOOTH",
"332 477 OFFCURVE",
"349 458 OFFCURVE",
"378 458 CURVE SMOOTH",
"606 458 LINE SMOOTH",
"664 458 OFFCURVE",
"664 458 OFFCURVE",
"664 278 CURVE SMOOTH",
"664 0 LINE"
);
},
{
closed = 1;
nodes = (
"498 79 LINE",
"249 78 LINE SMOOTH",
"172 78 OFFCURVE",
"156 85 OFFCURVE",
"156 212 CURVE SMOOTH",
"156 312 OFFCURVE",
"159 478 OFFCURVE",
"159 531 CURVE",
"70 531 LINE",
"70 134 LINE SMOOTH",
"70 49 OFFCURVE",
"111 0 OFFCURVE",
"162 0 CURVE SMOOTH",
"497 -1 LINE"
);
}
);
width = 924;
},
{
associatedMasterId = "61E9F240-DCC1-4244-924B-01C71F2248F0";
layerId = "F40E2F94-F4B3-4D3C-AA5D-04A91D7A3D3E";
paths = (
{
closed = 1;
nodes = (
"755 0 LINE",
"755 246 LINE",
"854 246 LINE",
"854 346 LINE",
"755 346 LINE",
"755 439 LINE SMOOTH",
"755 531 OFFCURVE",
"755 531 OFFCURVE",
"652 531 CURVE SMOOTH",
"422 531 LINE",
"422 727 LINE",
"332 727 LINE",
"332 654 LINE",
"201 654 LINE",
"201 571 LINE",
"332 571 LINE",
"332 505 LINE SMOOTH",
"332 477 OFFCURVE",
"349 458 OFFCURVE",
"378 458 CURVE SMOOTH",
"606 458 LINE SMOOTH",
"664 458 OFFCURVE",
"664 458 OFFCURVE",
"664 278 CURVE SMOOTH",
"664 0 LINE"
);
},
{
closed = 1;
nodes = (
"498 79 LINE",
"249 78 LINE SMOOTH",
"172 78 OFFCURVE",
"156 85 OFFCURVE",
"156 212 CURVE SMOOTH",
"156 312 OFFCURVE",
"159 478 OFFCURVE",
"159 531 CURVE",
"70 531 LINE",
"70 134 LINE SMOOTH",
"70 48 OFFCURVE",
"111 0 OFFCURVE",
"162 0 CURVE SMOOTH",
"497 -1 LINE"
);
}
);
width = 924;
}
);
note = uni1281;
},
{
glyphname = "ra_xi-ethiopic.liga";
lastChange = "2018-10-24 01:43:01 +0000";
layers = (
{
layerId = "61E9F240-DCC1-4244-924B-01C71F2248F0";
paths = (
{
closed = 1;
nodes = (
"552 0 LINE",
"552 100 LINE",
"489 100 LINE",
"489 439 LINE SMOOTH",
"489 531 OFFCURVE",
"489 531 OFFCURVE",
"423 531 CURVE SMOOTH",
"279 531 LINE",
"279 727 LINE",
"221 727 LINE",
"221 654 LINE",
"138 654 LINE",
"138 571 LINE",
"221 571 LINE",
"221 505 LINE SMOOTH",
"221 478 OFFCURVE",
"232 458 OFFCURVE",
"251 458 CURVE SMOOTH",
"395 458 LINE SMOOTH",
"431 458 OFFCURVE",
"431 458 OFFCURVE",
"431 278 CURVE SMOOTH",
"431 0 LINE"
);
},
{
closed = 1;
nodes = (
"319 79 LINE",
"162 78 LINE SMOOTH",
"118 78 OFFCURVE",
"105 77 OFFCURVE",
"105 212 CURVE SMOOTH",
"105 312 OFFCURVE",
"106 478 OFFCURVE",
"106 531 CURVE",
"50 531 LINE",
"50 134 LINE SMOOTH",
"50 48 OFFCURVE",
"76 0 OFFCURVE",
"108 0 CURVE SMOOTH",
"320 -1 LINE"
);
}
);
width = 602;
},
{
layerId = "994FE389-9D54-4FAA-B055-C46A67020E78";
paths = (
{
closed = 1;
nodes = (
"865 0 LINE",
"865 100 LINE",
"765 100 LINE",
"765 439 LINE SMOOTH",
"765 531 OFFCURVE",
"765 531 OFFCURVE",
"661 531 CURVE SMOOTH",
"432 531 LINE",
"432 727 LINE",
"341 727 LINE",
"341 654 LINE",
"210 654 LINE",
"210 571 LINE",
"341 571 LINE",
"341 505 LINE SMOOTH",
"341 477 OFFCURVE",
"358 458 OFFCURVE",
"387 458 CURVE SMOOTH",
"616 458 LINE SMOOTH",
"674 458 OFFCURVE",
"674 458 OFFCURVE",
"674 278 CURVE SMOOTH",
"674 0 LINE"
);
},
{
closed = 1;
nodes = (
"498 79 LINE",
"249 78 LINE SMOOTH",
"173 78 OFFCURVE",
"156 85 OFFCURVE",
"156 212 CURVE SMOOTH",
"156 312 OFFCURVE",
"159 478 OFFCURVE",
"159 531 CURVE",
"70 531 LINE",
"70 134 LINE SMOOTH",
"70 49 OFFCURVE",
"111 0 OFFCURVE",
"163 0 CURVE SMOOTH",
"497 -1 LINE"
);
}
);
width = 935;
},
{
associatedMasterId = "61E9F240-DCC1-4244-924B-01C71F2248F0";
layerId = "F40E2F94-F4B3-4D3C-AA5D-04A91D7A3D3E";
paths = (
{
closed = 1;
nodes = (
"865 0 LINE",
"865 100 LINE",
"765 100 LINE",
"765 439 LINE SMOOTH",
"765 531 OFFCURVE",
"765 531 OFFCURVE",
"661 531 CURVE SMOOTH",
"432 531 LINE",
"432 727 LINE",
"341 727 LINE",
"341 654 LINE",
"210 654 LINE",
"210 571 LINE",
"341 571 LINE",
"341 505 LINE SMOOTH",
"341 477 OFFCURVE",
"358 458 OFFCURVE",
"387 458 CURVE SMOOTH",
"616 458 LINE SMOOTH",
"674 458 OFFCURVE",
"674 458 OFFCURVE",
"674 278 CURVE SMOOTH",
"674 0 LINE"
);
},
{
closed = 1;
nodes = (
"498 79 LINE",
"249 78 LINE SMOOTH",
"173 78 OFFCURVE",
"156 85 OFFCURVE",
"156 212 CURVE SMOOTH",
"156 312 OFFCURVE",
"159 478 OFFCURVE",
"159 531 CURVE",
"70 531 LINE",
"70 134 LINE SMOOTH",
"70 48 OFFCURVE",
"111 0 OFFCURVE",
"163 0 CURVE SMOOTH",
"497 -1 LINE"
);
}
);
width = 935;
}
);
note = uni1282;
},
{
glyphname = "ra_xee-ethiopic.liga";
lastChange = "2018-10-24 01:43:01 +0000";
layers = (
{
layerId = "61E9F240-DCC1-4244-924B-01C71F2248F0";
paths = (
{
closed = 1;
nodes = (
"543 0 LINE SMOOTH",
"572 0 OFFCURVE",
"591 13 OFFCURVE",
"604 47 CURVE SMOOTH",
"611 65 OFFCURVE",
"614 87 OFFCURVE",
"614 103 CURVE SMOOTH",
"614 134 OFFCURVE",
"607 155 OFFCURVE",
"596 170 CURVE SMOOTH",
"583 188 OFFCURVE",
"569 200 OFFCURVE",
"544 200 CURVE SMOOTH",
"537 200 LINE",
"537 439 LINE SMOOTH",
"537 531 OFFCURVE",
"537 531 OFFCURVE",
"471 531 CURVE SMOOTH",
"327 531 LINE",
"327 727 LINE",
"269 727 LINE",
"269 654 LINE",
"188 654 LINE",
"188 571 LINE",
"269 571 LINE",
"269 505 LINE SMOOTH",
"269 478 OFFCURVE",
"280 458 OFFCURVE",
"298 458 CURVE SMOOTH",
"443 458 LINE SMOOTH",
"479 458 OFFCURVE",
"479 458 OFFCURVE",
"479 278 CURVE SMOOTH",
"479 0 LINE"
);
},
{
closed = 1;
nodes = (
"319 79 LINE",
"162 78 LINE SMOOTH",
"116 78 OFFCURVE",
"105 80 OFFCURVE",
"105 212 CURVE SMOOTH",
"105 312 OFFCURVE",
"106 478 OFFCURVE",
"106 531 CURVE",
"50 531 LINE",
"50 134 LINE SMOOTH",
"50 49 OFFCURVE",
"75 0 OFFCURVE",
"109 0 CURVE SMOOTH",
"320 -1 LINE"
);
},
{
closed = 1;
nodes = (
"537 176 LINE",
"546 175 OFFCURVE",
"560 165 OFFCURVE",
"564 157 CURVE SMOOTH",
"569 148 OFFCURVE",
"575 125 OFFCURVE",
"575 99 CURVE SMOOTH",
"575 93 OFFCURVE",
"574 87 OFFCURVE",
"573 78 CURVE",
"569 56 OFFCURVE",
"566 54 OFFCURVE",
"563 46 CURVE",
"561 38 OFFCURVE",
"550 29 OFFCURVE",
"542 26 CURVE",
"541 25 OFFCURVE",
"538 25 OFFCURVE",
"537 24 CURVE"
);
}
);
width = 664;
},
{
layerId = "994FE389-9D54-4FAA-B055-C46A67020E78";
paths = (
{
closed = 1;
nodes = (
"851 0 LINE SMOOTH",
"897 0 OFFCURVE",
"929 16 OFFCURVE",
"947 46 CURVE SMOOTH",
"957 63 OFFCURVE",
"962 82 OFFCURVE",
"962 103 CURVE SMOOTH",
"962 131 OFFCURVE",
"954 155 OFFCURVE",
"935 170 CURVE SMOOTH",
"913 188 OFFCURVE",
"889 200 OFFCURVE",
"852 200 CURVE SMOOTH",
"841 200 LINE",
"841 439 LINE SMOOTH",
"841 531 OFFCURVE",
"841 531 OFFCURVE",
"738 531 CURVE SMOOTH",
"509 531 LINE",
"509 727 LINE",
"418 727 LINE",
"418 654 LINE",
"287 654 LINE",
"287 571 LINE",
"418 571 LINE",
"418 505 LINE SMOOTH",
"418 477 OFFCURVE",
"435 458 OFFCURVE",
"464 458 CURVE SMOOTH",
"692 458 LINE SMOOTH",
"750 458 OFFCURVE",
"750 458 OFFCURVE",
"750 278 CURVE SMOOTH",
"750 0 LINE"
);
},
{
closed = 1;
nodes = (
"498 79 LINE",
"249 78 LINE SMOOTH",
"172 78 OFFCURVE",
"156 85 OFFCURVE",
"156 212 CURVE SMOOTH",
"156 312 OFFCURVE",
"159 478 OFFCURVE",
"159 531 CURVE",
"70 531 LINE",
"70 134 LINE SMOOTH",
"70 49 OFFCURVE",
"110 0 OFFCURVE",
"162 0 CURVE SMOOTH",
"497 -1 LINE"
);
},
{
closed = 1;
nodes = (
"841 176 LINE",
"859 173 OFFCURVE",
"873 167 OFFCURVE",
"883 157 CURVE SMOOTH",
"896 144 OFFCURVE",
"901 124 OFFCURVE",
"901 99 CURVE SMOOTH",
"901 92 OFFCURVE",
"900 86 OFFCURVE",
"899 78 CURVE",
"895 65 OFFCURVE",
"890 55 OFFCURVE",
"884 46 CURVE",
"876 36 OFFCURVE",
"864 29 OFFCURVE",
"850 26 CURVE",
"847 25 OFFCURVE",
"844 25 OFFCURVE",
"841 24 CURVE"
);
}
);
width = 1032;
},
{
associatedMasterId = "61E9F240-DCC1-4244-924B-01C71F2248F0";
layerId = "F40E2F94-F4B3-4D3C-AA5D-04A91D7A3D3E";
paths = (
{
closed = 1;
nodes = (
"851 0 LINE SMOOTH",
"897 0 OFFCURVE",
"929 16 OFFCURVE",
"947 46 CURVE SMOOTH",
"957 63 OFFCURVE",
"962 82 OFFCURVE",
"962 103 CURVE SMOOTH",
"962 131 OFFCURVE",
"954 155 OFFCURVE",
"935 170 CURVE SMOOTH",
"913 188 OFFCURVE",
"889 200 OFFCURVE",
"852 200 CURVE SMOOTH",
"841 200 LINE",
"841 439 LINE SMOOTH",
"841 531 OFFCURVE",
"841 531 OFFCURVE",
"738 531 CURVE SMOOTH",
"509 531 LINE",
"509 727 LINE",
"418 727 LINE",
"418 654 LINE",
"287 654 LINE",
"287 571 LINE",
"418 571 LINE",
"418 505 LINE SMOOTH",
"418 477 OFFCURVE",
"435 458 OFFCURVE",
"464 458 CURVE SMOOTH",
"692 458 LINE SMOOTH",
"750 458 OFFCURVE",
"750 458 OFFCURVE",
"750 278 CURVE SMOOTH",
"750 0 LINE"
);
},
{
closed = 1;
nodes = (
"498 79 LINE",
"249 78 LINE SMOOTH",
"172 78 OFFCURVE",
"156 85 OFFCURVE",
"156 212 CURVE SMOOTH",
"156 312 OFFCURVE",
"159 478 OFFCURVE",
"159 531 CURVE",
"70 531 LINE",
"70 134 LINE SMOOTH",
"70 48 OFFCURVE",
"110 0 OFFCURVE",
"162 0 CURVE SMOOTH",
"497 -1 LINE"
);
},
{
closed = 1;
nodes = (
"841 176 LINE",
"859 173 OFFCURVE",
"873 167 OFFCURVE",
"883 157 CURVE SMOOTH",
"896 144 OFFCURVE",
"901 124 OFFCURVE",
"901 99 CURVE SMOOTH",
"901 92 OFFCURVE",
"900 86 OFFCURVE",
"899 78 CURVE",
"895 65 OFFCURVE",
"890 55 OFFCURVE",
"884 46 CURVE",
"876 36 OFFCURVE",
"864 29 OFFCURVE",
"850 26 CURVE",
"847 25 OFFCURVE",
"844 25 OFFCURVE",
"841 24 CURVE"
);
}
);
width = 1032;
}
);
note = uni1284;
},
{
glyphname = "ra_xe-ethiopic.liga";
lastChange = "2018-10-24 01:43:01 +0000";
layers = (
{
layerId = "61E9F240-DCC1-4244-924B-01C71F2248F0";
paths = (
{
closed = 1;
nodes = (
"525 0 LINE",
"525 439 LINE SMOOTH",
"525 531 OFFCURVE",
"525 531 OFFCURVE",
"459 531 CURVE SMOOTH",
"315 531 LINE",
"315 727 LINE",
"257 727 LINE",
"257 638 LINE",
"178 638 LINE",
"178 635 LINE",
"175 635 LINE",
"175 482 LINE",
"216 482 LINE",
"216 568 LINE SMOOTH",
"216 581 OFFCURVE",
"224 591 OFFCURVE",
"231 591 CURVE SMOOTH",
"257 591 LINE",
"257 458 LINE",
"430 458 LINE SMOOTH",
"468 458 OFFCURVE",
"468 458 OFFCURVE",
"468 278 CURVE SMOOTH",
"468 0 LINE"
);
},
{
closed = 1;
nodes = (
"319 79 LINE",
"162 78 LINE SMOOTH",
"116 78 OFFCURVE",
"105 80 OFFCURVE",
"105 212 CURVE SMOOTH",
"105 312 OFFCURVE",
"106 478 OFFCURVE",
"106 531 CURVE",
"50 531 LINE",
"50 134 LINE SMOOTH",
"50 48 OFFCURVE",
"76 0 OFFCURVE",
"109 0 CURVE SMOOTH",
"320 -1 LINE"
);
}
);
width = 575;
},
{
layerId = "994FE389-9D54-4FAA-B055-C46A67020E78";
paths = (
{
closed = 1;
nodes = (
"822 0 LINE",
"822 439 LINE SMOOTH",
"822 531 OFFCURVE",
"822 531 OFFCURVE",
"719 531 CURVE SMOOTH",
"490 531 LINE",
"490 727 LINE",
"399 727 LINE",
"399 638 LINE",
"272 638 LINE",
"272 635 LINE",
"269 635 LINE",
"269 482 LINE",
"334 482 LINE",
"334 568 LINE SMOOTH",
"334 581 OFFCURVE",
"345 591 OFFCURVE",
"358 591 CURVE SMOOTH",
"399 591 LINE",
"399 458 LINE",
"673 458 LINE SMOOTH",
"731 458 OFFCURVE",
"731 458 OFFCURVE",
"731 278 CURVE SMOOTH",
"731 0 LINE"
);
},
{
closed = 1;
nodes = (
"498 79 LINE",
"249 78 LINE SMOOTH",
"172 78 OFFCURVE",
"156 85 OFFCURVE",
"156 212 CURVE SMOOTH",
"156 312 OFFCURVE",
"159 478 OFFCURVE",
"159 531 CURVE",
"70 531 LINE",
"70 134 LINE SMOOTH",
"70 49 OFFCURVE",
"111 0 OFFCURVE",
"162 0 CURVE SMOOTH",
"497 -1 LINE"
);
}
);
width = 892;
},
{
associatedMasterId = "61E9F240-DCC1-4244-924B-01C71F2248F0";
layerId = "F40E2F94-F4B3-4D3C-AA5D-04A91D7A3D3E";
paths = (
{
closed = 1;
nodes = (
"822 0 LINE",
"822 439 LINE SMOOTH",
"822 531 OFFCURVE",
"822 531 OFFCURVE",
"719 531 CURVE SMOOTH",
"490 531 LINE",
"490 727 LINE",
"399 727 LINE",
"399 638 LINE",
"272 638 LINE",
"272 635 LINE",
"269 635 LINE",
"269 482 LINE",
"334 482 LINE",
"334 568 LINE SMOOTH",
"334 581 OFFCURVE",
"345 591 OFFCURVE",
"358 591 CURVE SMOOTH",
"399 591 LINE",
"399 458 LINE",
"673 458 LINE SMOOTH",
"731 458 OFFCURVE",
"731 458 OFFCURVE",
"731 278 CURVE SMOOTH",
"731 0 LINE"
);
},
{
closed = 1;
nodes = (
"498 79 LINE",
"249 78 LINE SMOOTH",
"172 78 OFFCURVE",
"156 85 OFFCURVE",
"156 212 CURVE SMOOTH",
"156 312 OFFCURVE",
"159 478 OFFCURVE",
"159 531 CURVE",
"70 531 LINE",
"70 134 LINE SMOOTH",
"70 48 OFFCURVE",
"111 0 OFFCURVE",
"162 0 CURVE SMOOTH",
"497 -1 LINE"
);
}
);
width = 892;
}
);
note = uni1285;
},
{
glyphname = "ra_xwa-ethiopic.liga";
lastChange = "2018-10-24 01:43:01 +0000";
layers = (
{
layerId = "61E9F240-DCC1-4244-924B-01C71F2248F0";
paths = (
{
closed = 1;
nodes = (
"468 0 LINE",
"468 215 LINE",
"478 215 LINE SMOOTH",
"495 215 OFFCURVE",
"522 219 OFFCURVE",
"538 252 CURVE SMOOTH",
"543 262 OFFCURVE",
"549 279 OFFCURVE",
"549 300 CURVE SMOOTH",
"549 323 OFFCURVE",
"543 343 OFFCURVE",
"531 356 CURVE SMOOTH",
"517 371 OFFCURVE",
"502 380 OFFCURVE",
"479 380 CURVE SMOOTH",
"468 380 LINE",
"468 439 LINE SMOOTH",
"468 531 OFFCURVE",
"468 531 OFFCURVE",
"401 531 CURVE SMOOTH",
"333 531 LINE",
"333 727 LINE",
"275 727 LINE",
"275 605 LINE",
"223 605 LINE",
"223 531 LINE",
"275 531 LINE",
"275 458 LINE",
"374 458 LINE SMOOTH",
"410 458 OFFCURVE",
"410 458 OFFCURVE",
"410 278 CURVE SMOOTH",
"410 0 LINE"
);
},
{
closed = 1;
nodes = (
"319 79 LINE",
"162 78 LINE SMOOTH",
"116 78 OFFCURVE",
"105 80 OFFCURVE",
"105 212 CURVE SMOOTH",
"105 312 OFFCURVE",
"106 478 OFFCURVE",
"106 531 CURVE",
"50 531 LINE",
"50 134 LINE SMOOTH",
"50 49 OFFCURVE",
"75 0 OFFCURVE",
"109 0 CURVE SMOOTH",
"320 -1 LINE"
);
},
{
closed = 1;
nodes = (
"468 361 LINE",
"480 360 OFFCURVE",
"492 354 OFFCURVE",
"498 345 CURVE SMOOTH",
"506 334 OFFCURVE",
"510 318 OFFCURVE",
"510 296 CURVE SMOOTH",
"510 290 OFFCURVE",
"509 284 OFFCURVE",
"508 279 CURVE",
"504 262 OFFCURVE",
"501 257 OFFCURVE",
"499 253 CURVE",
"494 245 OFFCURVE",
"486 239 OFFCURVE",
"478 236 CURVE SMOOTH",
"475 235 OFFCURVE",
"468 234 OFFCURVE",
"468 234 CURVE"
);
}
);
width = 599;
},
{
layerId = "994FE389-9D54-4FAA-B055-C46A67020E78";
paths = (
{
closed = 1;
nodes = (
"731 0 LINE",
"731 215 LINE",
"749 215 LINE SMOOTH",
"794 215 OFFCURVE",
"826 228 OFFCURVE",
"844 253 CURVE SMOOTH",
"854 266 OFFCURVE",
"860 283 OFFCURVE",
"860 300 CURVE SMOOTH",
"860 323 OFFCURVE",
"851 343 OFFCURVE",
"832 356 CURVE SMOOTH",
"810 371 OFFCURVE",
"786 380 OFFCURVE",
"750 380 CURVE SMOOTH",
"731 380 LINE",
"731 439 LINE SMOOTH",
"731 531 OFFCURVE",
"731 531 OFFCURVE",
"628 531 CURVE SMOOTH",
"517 531 LINE",
"517 727 LINE",
"426 727 LINE",
"426 605 LINE",
"344 605 LINE",
"344 531 LINE",
"426 531 LINE",
"426 458 LINE",
"582 458 LINE SMOOTH",
"640 458 OFFCURVE",
"640 458 OFFCURVE",
"640 278 CURVE SMOOTH",
"640 0 LINE"
);
},
{
closed = 1;
nodes = (
"498 79 LINE",
"249 78 LINE SMOOTH",
"172 78 OFFCURVE",
"156 85 OFFCURVE",
"156 212 CURVE SMOOTH",
"156 312 OFFCURVE",
"159 478 OFFCURVE",
"159 531 CURVE",
"70 531 LINE",
"70 134 LINE SMOOTH",
"70 49 OFFCURVE",
"110 0 OFFCURVE",
"162 0 CURVE SMOOTH",
"497 -1 LINE"
);
},
{
closed = 1;
nodes = (
"731 361 LINE",
"753 360 OFFCURVE",
"770 354 OFFCURVE",
"780 345 CURVE SMOOTH",
"793 334 OFFCURVE",
"799 316 OFFCURVE",
"799 296 CURVE SMOOTH",
"799 291 OFFCURVE",
"798 286 OFFCURVE",
"796 279 CURVE",
"792 268 OFFCURVE",
"788 260 OFFCURVE",
"781 253 CURVE",
"773 244 OFFCURVE",
"761 239 OFFCURVE",
"747 236 CURVE SMOOTH",
"742 235 OFFCURVE",
"737 234 OFFCURVE",
"731 234 CURVE"
);
}
);
width = 930;
},
{
associatedMasterId = "61E9F240-DCC1-4244-924B-01C71F2248F0";
layerId = "F40E2F94-F4B3-4D3C-AA5D-04A91D7A3D3E";
paths = (
{
closed = 1;
nodes = (
"731 0 LINE",
"731 215 LINE",
"749 215 LINE SMOOTH",
"794 215 OFFCURVE",
"826 228 OFFCURVE",
"844 253 CURVE SMOOTH",
"854 266 OFFCURVE",
"860 283 OFFCURVE",
"860 300 CURVE SMOOTH",
"860 323 OFFCURVE",
"851 343 OFFCURVE",
"832 356 CURVE SMOOTH",
"810 371 OFFCURVE",
"786 380 OFFCURVE",
"750 380 CURVE SMOOTH",
"731 380 LINE",
"731 439 LINE SMOOTH",
"731 531 OFFCURVE",
"731 531 OFFCURVE",
"628 531 CURVE SMOOTH",
"517 531 LINE",
"517 727 LINE",
"426 727 LINE",
"426 605 LINE",
"344 605 LINE",
"344 531 LINE",
"426 531 LINE",
"426 458 LINE",
"582 458 LINE SMOOTH",
"640 458 OFFCURVE",
"640 458 OFFCURVE",
"640 278 CURVE SMOOTH",
"640 0 LINE"
);
},
{
closed = 1;
nodes = (
"498 79 LINE",
"249 78 LINE SMOOTH",
"172 78 OFFCURVE",
"156 85 OFFCURVE",
"156 212 CURVE SMOOTH",
"156 312 OFFCURVE",
"159 478 OFFCURVE",
"159 531 CURVE",
"70 531 LINE",
"70 134 LINE SMOOTH",
"70 48 OFFCURVE",
"110 0 OFFCURVE",
"162 0 CURVE SMOOTH",
"497 -1 LINE"
);
},
{
closed = 1;
nodes = (
"731 361 LINE",
"753 360 OFFCURVE",
"770 354 OFFCURVE",
"780 345 CURVE SMOOTH",
"793 334 OFFCURVE",
"799 316 OFFCURVE",
"799 296 CURVE SMOOTH",
"799 291 OFFCURVE",
"798 286 OFFCURVE",
"796 279 CURVE",
"792 268 OFFCURVE",
"788 260 OFFCURVE",
"781 253 CURVE",
"773 244 OFFCURVE",
"761 239 OFFCURVE",
"747 236 CURVE SMOOTH",
"742 235 OFFCURVE",
"737 234 OFFCURVE",
"731 234 CURVE"
);
}
);
width = 930;
}
);
},
{
glyphname = "ra_xwi-ethiopic.liga";
lastChange = "2018-10-24 01:43:01 +0000";
layers = (
{
layerId = "61E9F240-DCC1-4244-924B-01C71F2248F0";
paths = (
{
closed = 1;
nodes = (
"467 0 LINE",
"467 273 LINE",
"493 273 LINE",
"493 229 LINE",
"595 229 LINE",
"595 276 LINE",
"523 276 LINE",
"523 391 LINE",
"496 391 LINE",
"496 323 LINE",
"467 323 LINE",
"467 439 LINE SMOOTH",
"467 531 OFFCURVE",
"467 531 OFFCURVE",
"401 531 CURVE SMOOTH",
"331 531 LINE",
"331 727 LINE",
"273 727 LINE",
"273 605 LINE",
"222 605 LINE",
"222 531 LINE",
"273 531 LINE",
"273 458 LINE",
"372 458 LINE SMOOTH",
"409 458 OFFCURVE",
"409 458 OFFCURVE",
"409 278 CURVE SMOOTH",
"409 0 LINE"
);
},
{
closed = 1;
nodes = (
"319 79 LINE",
"162 78 LINE SMOOTH",
"116 78 OFFCURVE",
"105 80 OFFCURVE",
"105 212 CURVE SMOOTH",
"105 312 OFFCURVE",
"106 478 OFFCURVE",
"106 531 CURVE",
"50 531 LINE",
"50 134 LINE SMOOTH",
"50 49 OFFCURVE",
"75 0 OFFCURVE",
"109 0 CURVE SMOOTH",
"320 -1 LINE"
);
}
);
width = 645;
},
{
layerId = "994FE389-9D54-4FAA-B055-C46A67020E78";
paths = (
{
closed = 1;
nodes = (
"730 0 LINE",
"730 273 LINE",
"771 273 LINE",
"771 229 LINE",
"932 229 LINE",
"932 276 LINE",
"820 276 LINE",
"820 391 LINE",
"778 391 LINE",
"778 323 LINE",
"730 323 LINE",
"730 439 LINE SMOOTH",
"730 531 OFFCURVE",
"730 531 OFFCURVE",
"626 531 CURVE SMOOTH",
"515 531 LINE",
"515 727 LINE",
"424 727 LINE",
"424 605 LINE",
"342 605 LINE",
"342 531 LINE",
"424 531 LINE",
"424 458 LINE",
"580 458 LINE SMOOTH",
"639 458 OFFCURVE",
"639 458 OFFCURVE",
"639 278 CURVE SMOOTH",
"639 0 LINE"
);
},
{
closed = 1;
nodes = (
"498 79 LINE",
"249 78 LINE SMOOTH",
"172 78 OFFCURVE",
"156 85 OFFCURVE",
"156 212 CURVE SMOOTH",
"156 312 OFFCURVE",
"159 478 OFFCURVE",
"159 531 CURVE",
"70 531 LINE",
"70 134 LINE SMOOTH",
"70 49 OFFCURVE",
"110 0 OFFCURVE",
"162 0 CURVE SMOOTH",
"497 -1 LINE"
);
}
);
width = 1002;
},
{
associatedMasterId = "61E9F240-DCC1-4244-924B-01C71F2248F0";
layerId = "F40E2F94-F4B3-4D3C-AA5D-04A91D7A3D3E";
paths = (
{
closed = 1;
nodes = (
"730 0 LINE",
"730 273 LINE",
"771 273 LINE",
"771 229 LINE",
"932 229 LINE",
"932 276 LINE",
"820 276 LINE",
"820 391 LINE",
"778 391 LINE",
"778 323 LINE",
"730 323 LINE",
"730 439 LINE SMOOTH",
"730 531 OFFCURVE",
"730 531 OFFCURVE",
"626 531 CURVE SMOOTH",
"515 531 LINE",
"515 727 LINE",
"424 727 LINE",
"424 605 LINE",
"342 605 LINE",
"342 531 LINE",
"424 531 LINE",
"424 458 LINE",
"580 458 LINE SMOOTH",
"639 458 OFFCURVE",
"639 458 OFFCURVE",
"639 278 CURVE SMOOTH",
"639 0 LINE"
);
},
{
closed = 1;
nodes = (
"498 79 LINE",
"249 78 LINE SMOOTH",
"172 78 OFFCURVE",
"156 85 OFFCURVE",
"156 212 CURVE SMOOTH",
"156 312 OFFCURVE",
"159 478 OFFCURVE",
"159 531 CURVE",
"70 531 LINE",
"70 134 LINE SMOOTH",
"70 48 OFFCURVE",
"110 0 OFFCURVE",
"162 0 CURVE SMOOTH",
"497 -1 LINE"
);
}
);
width = 1002;
}
);
},
{
glyphname = "ra_xwaa-ethiopic.liga";
lastChange = "2018-10-24 01:43:01 +0000";
layers = (
{
layerId = "61E9F240-DCC1-4244-924B-01C71F2248F0";
paths = (
{
closed = 1;
nodes = (
"629 -182 LINE",
"629 0 LINE",
"537 0 LINE",
"537 439 LINE SMOOTH",
"537 531 OFFCURVE",
"537 531 OFFCURVE",
"472 531 CURVE SMOOTH",
"328 531 LINE",
"328 727 LINE",
"270 727 LINE",
"270 649 LINE",
"197 649 LINE",
"197 555 LINE",
"270 555 LINE",
"270 505 LINE SMOOTH",
"270 477 OFFCURVE",
"282 458 OFFCURVE",
"300 458 CURVE SMOOTH",
"443 458 LINE SMOOTH",
"481 458 OFFCURVE",
"481 458 OFFCURVE",
"481 278 CURVE SMOOTH",
"481 0 LINE",
"404 0 LINE",
"404 -56 LINE",
"569 -56 LINE",
"569 -182 LINE"
);
},
{
closed = 1;
nodes = (
"319 79 LINE",
"162 78 LINE SMOOTH",
"118 78 OFFCURVE",
"106 78 OFFCURVE",
"106 212 CURVE SMOOTH",
"106 312 OFFCURVE",
"106 478 OFFCURVE",
"106 531 CURVE",
"50 531 LINE",
"50 134 LINE SMOOTH",
"50 48 OFFCURVE",
"76 0 OFFCURVE",
"108 0 CURVE SMOOTH",
"319 -1 LINE"
);
}
);
width = 679;
},
{
layerId = "994FE389-9D54-4FAA-B055-C46A67020E78";
paths = (
{
closed = 1;
nodes = (
"988 -182 LINE",
"988 0 LINE",
"843 0 LINE",
"843 439 LINE SMOOTH",
"843 531 OFFCURVE",
"843 531 OFFCURVE",
"739 531 CURVE SMOOTH",
"510 531 LINE",
"510 727 LINE",
"419 727 LINE",
"419 649 LINE",
"302 649 LINE",
"302 555 LINE",
"419 555 LINE",
"419 505 LINE SMOOTH",
"419 477 OFFCURVE",
"437 458 OFFCURVE",
"466 458 CURVE SMOOTH",
"694 458 LINE SMOOTH",
"752 458 OFFCURVE",
"752 458 OFFCURVE",
"752 278 CURVE SMOOTH",
"752 0 LINE",
"631 0 LINE",
"631 -56 LINE",
"891 -56 LINE",
"891 -182 LINE"
);
},
{
closed = 1;
nodes = (
"498 79 LINE",
"249 78 LINE SMOOTH",
"173 78 OFFCURVE",
"157 85 OFFCURVE",
"157 212 CURVE SMOOTH",
"157 312 OFFCURVE",
"159 478 OFFCURVE",
"159 531 CURVE",
"70 531 LINE",
"70 134 LINE SMOOTH",
"70 49 OFFCURVE",
"111 0 OFFCURVE",
"163 0 CURVE SMOOTH",
"498 -1 LINE"
);
}
);
width = 1058;
},
{
associatedMasterId = "61E9F240-DCC1-4244-924B-01C71F2248F0";
layerId = "F40E2F94-F4B3-4D3C-AA5D-04A91D7A3D3E";
paths = (
{
closed = 1;
nodes = (
"988 -182 LINE",
"988 0 LINE",
"843 0 LINE",
"843 439 LINE SMOOTH",
"843 531 OFFCURVE",
"843 531 OFFCURVE",
"739 531 CURVE SMOOTH",
"510 531 LINE",
"510 727 LINE",
"419 727 LINE",
"419 649 LINE",
"302 649 LINE",
"302 555 LINE",
"419 555 LINE",
"419 505 LINE SMOOTH",
"419 477 OFFCURVE",
"437 458 OFFCURVE",
"466 458 CURVE SMOOTH",
"694 458 LINE SMOOTH",
"752 458 OFFCURVE",
"752 458 OFFCURVE",
"752 278 CURVE SMOOTH",
"752 0 LINE",
"631 0 LINE",
"631 -56 LINE",
"891 -56 LINE",
"891 -182 LINE"
);
},
{
closed = 1;
nodes = (
"498 79 LINE",
"249 78 LINE SMOOTH",
"173 78 OFFCURVE",
"157 85 OFFCURVE",
"157 212 CURVE SMOOTH",
"157 312 OFFCURVE",
"159 478 OFFCURVE",
"159 531 CURVE",
"70 531 LINE",
"70 134 LINE SMOOTH",
"70 48 OFFCURVE",
"111 0 OFFCURVE",
"163 0 CURVE SMOOTH",
"498 -1 LINE"
);
}
);
width = 1058;
}
);
},
{
glyphname = "ra_xwee-ethiopic.liga";
lastChange = "2018-10-24 01:43:01 +0000";
layers = (
{
layerId = "61E9F240-DCC1-4244-924B-01C71F2248F0";
paths = (
{
closed = 1;
nodes = (
"598 -1 LINE",
"598 6 LINE",
"602 3 OFFCURVE",
"609 0 OFFCURVE",
"613 0 CURVE SMOOTH",
"647 0 OFFCURVE",
"675 45 OFFCURVE",
"675 96 CURVE SMOOTH",
"675 151 OFFCURVE",
"648 196 OFFCURVE",
"613 196 CURVE SMOOTH",
"608 196 OFFCURVE",
"602 195 OFFCURVE",
"598 192 CURVE",
"598 439 LINE SMOOTH",
"598 531 OFFCURVE",
"598 531 OFFCURVE",
"532 531 CURVE SMOOTH",
"388 531 LINE",
"388 727 LINE",
"330 727 LINE",
"330 649 LINE",
"256 649 LINE",
"256 555 LINE",
"330 555 LINE",
"330 505 LINE SMOOTH",
"330 478 OFFCURVE",
"341 458 OFFCURVE",
"359 458 CURVE SMOOTH",
"502 458 LINE SMOOTH",
"540 458 OFFCURVE",
"540 458 OFFCURVE",
"540 278 CURVE SMOOTH",
"540 56 LINE",
"444 56 LINE",
"444 -1 LINE"
);
},
{
closed = 1;
nodes = (
"319 79 LINE",
"162 78 LINE SMOOTH",
"118 78 OFFCURVE",
"105 77 OFFCURVE",
"105 212 CURVE SMOOTH",
"105 312 OFFCURVE",
"106 478 OFFCURVE",
"106 531 CURVE",
"50 531 LINE",
"50 134 LINE SMOOTH",
"50 48 OFFCURVE",
"76 0 OFFCURVE",
"108 0 CURVE SMOOTH",
"320 -1 LINE"
);
},
{
closed = 1;
nodes = (
"608 54 OFFCURVE",
"602 56 OFFCURVE",
"598 62 CURVE",
"598 134 LINE",
"602 139 OFFCURVE",
"606 142 OFFCURVE",
"613 142 CURVE SMOOTH",
"628 142 OFFCURVE",
"642 122 OFFCURVE",
"642 99 CURVE SMOOTH",
"642 73 OFFCURVE",
"628 54 OFFCURVE",
"613 54 CURVE SMOOTH"
);
}
);
width = 725;
},
{
layerId = "994FE389-9D54-4FAA-B055-C46A67020E78";
paths = (
{
closed = 1;
nodes = (
"937 -1 LINE",
"937 6 LINE",
"945 3 OFFCURVE",
"954 0 OFFCURVE",
"963 0 CURVE SMOOTH",
"1017 0 OFFCURVE",
"1060 45 OFFCURVE",
"1060 96 CURVE SMOOTH",
"1060 151 OFFCURVE",
"1018 196 OFFCURVE",
"963 196 CURVE SMOOTH",
"954 196 OFFCURVE",
"945 195 OFFCURVE",
"937 192 CURVE",
"937 439 LINE SMOOTH",
"937 531 OFFCURVE",
"937 531 OFFCURVE",
"834 531 CURVE SMOOTH",
"605 531 LINE",
"605 727 LINE",
"514 727 LINE",
"514 649 LINE",
"396 649 LINE",
"396 555 LINE",
"514 555 LINE",
"514 505 LINE SMOOTH",
"514 477 OFFCURVE",
"531 458 OFFCURVE",
"560 458 CURVE SMOOTH",
"788 458 LINE SMOOTH",
"846 458 OFFCURVE",
"846 458 OFFCURVE",
"846 278 CURVE SMOOTH",
"846 56 LINE",
"695 56 LINE",
"695 -1 LINE"
);
},
{
closed = 1;
nodes = (
"498 79 LINE",
"249 78 LINE SMOOTH",
"173 78 OFFCURVE",
"156 85 OFFCURVE",
"156 212 CURVE SMOOTH",
"156 312 OFFCURVE",
"159 478 OFFCURVE",
"159 531 CURVE",
"70 531 LINE",
"70 134 LINE SMOOTH",
"70 49 OFFCURVE",
"111 0 OFFCURVE",
"163 0 CURVE SMOOTH",
"497 -1 LINE"
);
},
{
closed = 1;
nodes = (
"953 54 OFFCURVE",
"945 56 OFFCURVE",
"937 62 CURVE",
"937 134 LINE",
"945 139 OFFCURVE",
"953 142 OFFCURVE",
"963 142 CURVE SMOOTH",
"987 142 OFFCURVE",
"1007 122 OFFCURVE",
"1007 99 CURVE SMOOTH",
"1007 73 OFFCURVE",
"987 54 OFFCURVE",
"963 54 CURVE SMOOTH"
);
}
);
width = 1130;
},
{
associatedMasterId = "61E9F240-DCC1-4244-924B-01C71F2248F0";
layerId = "F40E2F94-F4B3-4D3C-AA5D-04A91D7A3D3E";
paths = (
{
closed = 1;
nodes = (
"937 -1 LINE",
"937 6 LINE",
"945 3 OFFCURVE",
"954 0 OFFCURVE",
"963 0 CURVE SMOOTH",
"1017 0 OFFCURVE",
"1060 45 OFFCURVE",
"1060 96 CURVE SMOOTH",
"1060 151 OFFCURVE",
"1018 196 OFFCURVE",
"963 196 CURVE SMOOTH",
"954 196 OFFCURVE",
"945 195 OFFCURVE",
"937 192 CURVE",
"937 439 LINE SMOOTH",
"937 531 OFFCURVE",
"937 531 OFFCURVE",
"834 531 CURVE SMOOTH",
"605 531 LINE",
"605 727 LINE",
"514 727 LINE",
"514 649 LINE",
"396 649 LINE",
"396 555 LINE",
"514 555 LINE",
"514 505 LINE SMOOTH",
"514 477 OFFCURVE",
"531 458 OFFCURVE",
"560 458 CURVE SMOOTH",
"788 458 LINE SMOOTH",
"846 458 OFFCURVE",
"846 458 OFFCURVE",
"846 278 CURVE SMOOTH",
"846 56 LINE",
"695 56 LINE",
"695 -1 LINE"
);
},
{
closed = 1;
nodes = (
"498 79 LINE",
"249 78 LINE SMOOTH",
"173 78 OFFCURVE",
"156 85 OFFCURVE",
"156 212 CURVE SMOOTH",
"156 312 OFFCURVE",
"159 478 OFFCURVE",
"159 531 CURVE",
"70 531 LINE",
"70 134 LINE SMOOTH",
"70 48 OFFCURVE",
"111 0 OFFCURVE",
"163 0 CURVE SMOOTH",
"497 -1 LINE"
);
},
{
closed = 1;
nodes = (
"953 54 OFFCURVE",
"945 56 OFFCURVE",
"937 62 CURVE",
"937 134 LINE",
"945 139 OFFCURVE",
"953 142 OFFCURVE",
"963 142 CURVE SMOOTH",
"987 142 OFFCURVE",
"1007 122 OFFCURVE",
"1007 99 CURVE SMOOTH",
"1007 73 OFFCURVE",
"987 54 OFFCURVE",
"963 54 CURVE SMOOTH"
);
}
);
width = 1130;
}
);
},
{
glyphname = "ra_xwe-ethiopic.liga";
lastChange = "2018-10-24 01:43:01 +0000";
layers = (
{
layerId = "61E9F240-DCC1-4244-924B-01C71F2248F0";
paths = (
{
closed = 1;
nodes = (
"660 -182 LINE",
"660 0 LINE",
"570 0 LINE",
"570 273 LINE",
"617 273 LINE",
"617 229 LINE",
"719 229 LINE",
"719 276 LINE",
"648 276 LINE",
"648 391 LINE",
"622 391 LINE",
"622 323 LINE",
"570 323 LINE",
"570 439 LINE SMOOTH",
"570 531 OFFCURVE",
"570 531 OFFCURVE",
"503 531 CURVE SMOOTH",
"358 531 LINE",
"358 727 LINE",
"301 727 LINE",
"301 649 LINE",
"228 649 LINE",
"228 555 LINE",
"301 555 LINE",
"301 505 LINE SMOOTH",
"301 477 OFFCURVE",
"313 458 OFFCURVE",
"331 458 CURVE SMOOTH",
"474 458 LINE SMOOTH",
"512 458 OFFCURVE",
"512 458 OFFCURVE",
"512 278 CURVE SMOOTH",
"512 0 LINE",
"435 0 LINE",
"435 -56 LINE",
"599 -56 LINE",
"599 -182 LINE"
);
},
{
closed = 1;
nodes = (
"320 79 LINE",
"162 78 LINE SMOOTH",
"118 78 OFFCURVE",
"106 78 OFFCURVE",
"106 212 CURVE SMOOTH",
"106 312 OFFCURVE",
"106 478 OFFCURVE",
"106 531 CURVE",
"50 531 LINE",
"50 134 LINE SMOOTH",
"50 48 OFFCURVE",
"76 0 OFFCURVE",
"108 0 CURVE SMOOTH",
"319 -1 LINE"
);
}
);
width = 769;
},
{
layerId = "994FE389-9D54-4FAA-B055-C46A67020E78";
paths = (
{
closed = 1;
nodes = (
"1038 -182 LINE",
"1038 0 LINE",
"892 0 LINE",
"892 273 LINE",
"969 273 LINE",
"969 229 LINE",
"1130 229 LINE",
"1130 276 LINE",
"1018 276 LINE",
"1018 391 LINE",
"976 391 LINE",
"976 323 LINE",
"892 323 LINE",
"892 439 LINE SMOOTH",
"892 531 OFFCURVE",
"892 531 OFFCURVE",
"789 531 CURVE SMOOTH",
"559 531 LINE",
"559 727 LINE",
"469 727 LINE",
"469 649 LINE",
"351 649 LINE",
"351 555 LINE",
"469 555 LINE",
"469 505 LINE SMOOTH",
"469 477 OFFCURVE",
"486 458 OFFCURVE",
"515 458 CURVE SMOOTH",
"743 458 LINE SMOOTH",
"801 458 OFFCURVE",
"801 458 OFFCURVE",
"801 278 CURVE SMOOTH",
"801 0 LINE",
"680 0 LINE",
"680 -56 LINE",
"940 -56 LINE",
"940 -182 LINE"
);
},
{
closed = 1;
nodes = (
"499 79 LINE",
"249 78 LINE SMOOTH",
"173 78 OFFCURVE",
"157 85 OFFCURVE",
"157 212 CURVE SMOOTH",
"157 312 OFFCURVE",
"159 478 OFFCURVE",
"159 531 CURVE",
"70 531 LINE",
"70 134 LINE SMOOTH",
"70 49 OFFCURVE",
"111 0 OFFCURVE",
"163 0 CURVE SMOOTH",
"498 -1 LINE"
);
}
);
width = 1200;
},
{
associatedMasterId = "61E9F240-DCC1-4244-924B-01C71F2248F0";
layerId = "F40E2F94-F4B3-4D3C-AA5D-04A91D7A3D3E";
paths = (
{
closed = 1;
nodes = (
"1038 -182 LINE",
"1038 0 LINE",
"892 0 LINE",
"892 273 LINE",
"969 273 LINE",
"969 229 LINE",
"1130 229 LINE",
"1130 276 LINE",
"1018 276 LINE",
"1018 391 LINE",
"976 391 LINE",
"976 323 LINE",
"892 323 LINE",
"892 439 LINE SMOOTH",
"892 531 OFFCURVE",
"892 531 OFFCURVE",
"789 531 CURVE SMOOTH",
"559 531 LINE",
"559 727 LINE",
"469 727 LINE",
"469 649 LINE",
"351 649 LINE",
"351 555 LINE",
"469 555 LINE",
"469 505 LINE SMOOTH",
"469 477 OFFCURVE",
"486 458 OFFCURVE",
"515 458 CURVE SMOOTH",
"743 458 LINE SMOOTH",
"801 458 OFFCURVE",
"801 458 OFFCURVE",
"801 278 CURVE SMOOTH",
"801 0 LINE",
"680 0 LINE",
"680 -56 LINE",
"940 -56 LINE",
"940 -182 LINE"
);
},
{
closed = 1;
nodes = (
"499 79 LINE",
"249 78 LINE SMOOTH",
"173 78 OFFCURVE",
"157 85 OFFCURVE",
"157 212 CURVE SMOOTH",
"157 312 OFFCURVE",
"159 478 OFFCURVE",
"159 531 CURVE",
"70 531 LINE",
"70 134 LINE SMOOTH",
"70 48 OFFCURVE",
"111 0 OFFCURVE",
"163 0 CURVE SMOOTH",
"498 -1 LINE"
);
}
);
width = 1200;
}
);
},
{
glyphname = "ra_na-ethiopic.liga";
lastChange = "2018-10-24 01:43:01 +0000";
layers = (
{
layerId = "61E9F240-DCC1-4244-924B-01C71F2248F0";
paths = (
{
closed = 1;
nodes = (
"460 0 LINE",
"460 439 LINE SMOOTH",
"460 531 OFFCURVE",
"460 531 OFFCURVE",
"396 531 CURVE SMOOTH",
"250 531 LINE",
"250 727 LINE",
"194 727 LINE",
"194 505 LINE SMOOTH",
"194 478 OFFCURVE",
"204 458 OFFCURVE",
"222 458 CURVE SMOOTH",
"367 458 LINE SMOOTH",
"403 458 OFFCURVE",
"403 458 OFFCURVE",
"403 278 CURVE SMOOTH",
"403 0 LINE"
);
},
{
closed = 1;
nodes = (
"319 79 LINE",
"162 78 LINE SMOOTH",
"116 78 OFFCURVE",
"105 80 OFFCURVE",
"105 212 CURVE SMOOTH",
"105 312 OFFCURVE",
"106 478 OFFCURVE",
"106 531 CURVE",
"50 531 LINE",
"50 134 LINE SMOOTH",
"50 49 OFFCURVE",
"75 0 OFFCURVE",
"109 0 CURVE SMOOTH",
"320 -1 LINE"
);
}
);
width = 510;
},
{
layerId = "994FE389-9D54-4FAA-B055-C46A67020E78";
paths = (
{
closed = 1;
nodes = (
"720 0 LINE",
"720 439 LINE SMOOTH",
"720 531 OFFCURVE",
"720 531 OFFCURVE",
"617 531 CURVE SMOOTH",
"388 531 LINE",
"388 727 LINE",
"297 727 LINE",
"297 505 LINE SMOOTH",
"297 477 OFFCURVE",
"314 458 OFFCURVE",
"343 458 CURVE SMOOTH",
"571 458 LINE SMOOTH",
"630 458 OFFCURVE",
"630 458 OFFCURVE",
"630 278 CURVE SMOOTH",
"630 0 LINE"
);
},
{
closed = 1;
nodes = (
"498 79 LINE",
"249 78 LINE SMOOTH",
"172 78 OFFCURVE",
"156 85 OFFCURVE",
"156 212 CURVE SMOOTH",
"156 312 OFFCURVE",
"159 478 OFFCURVE",
"159 531 CURVE",
"70 531 LINE",
"70 134 LINE SMOOTH",
"70 49 OFFCURVE",
"110 0 OFFCURVE",
"162 0 CURVE SMOOTH",
"497 -1 LINE"
);
}
);
width = 790;
},
{
associatedMasterId = "61E9F240-DCC1-4244-924B-01C71F2248F0";
layerId = "F40E2F94-F4B3-4D3C-AA5D-04A91D7A3D3E";
paths = (
{
closed = 1;
nodes = (
"720 0 LINE",
"720 439 LINE SMOOTH",
"720 531 OFFCURVE",
"720 531 OFFCURVE",
"617 531 CURVE SMOOTH",
"388 531 LINE",
"388 727 LINE",
"297 727 LINE",
"297 505 LINE SMOOTH",
"297 477 OFFCURVE",
"314 458 OFFCURVE",
"343 458 CURVE SMOOTH",
"571 458 LINE SMOOTH",
"630 458 OFFCURVE",
"630 458 OFFCURVE",
"630 278 CURVE SMOOTH",
"630 0 LINE"
);
},
{
closed = 1;
nodes = (
"498 79 LINE",
"249 78 LINE SMOOTH",
"172 78 OFFCURVE",
"156 85 OFFCURVE",
"156 212 CURVE SMOOTH",
"156 312 OFFCURVE",
"159 478 OFFCURVE",
"159 531 CURVE",
"70 531 LINE",
"70 134 LINE SMOOTH",
"70 48 OFFCURVE",
"110 0 OFFCURVE",
"162 0 CURVE SMOOTH",
"497 -1 LINE"
);
}
);
width = 790;
}
);
},
{
glyphname = "ra_nu-ethiopic.liga";
lastChange = "2018-10-24 01:43:01 +0000";
layers = (
{
layerId = "61E9F240-DCC1-4244-924B-01C71F2248F0";
paths = (
{
closed = 1;
nodes = (
"461 0 LINE",
"461 244 LINE",
"527 244 LINE",
"527 348 LINE",
"461 348 LINE",
"461 439 LINE SMOOTH",
"461 531 OFFCURVE",
"461 531 OFFCURVE",
"396 531 CURVE SMOOTH",
"250 531 LINE",
"250 727 LINE",
"194 727 LINE",
"194 505 LINE SMOOTH",
"194 478 OFFCURVE",
"204 458 OFFCURVE",
"222 458 CURVE SMOOTH",
"367 458 LINE SMOOTH",
"403 458 OFFCURVE",
"403 458 OFFCURVE",
"403 278 CURVE SMOOTH",
"403 0 LINE"
);
},
{
closed = 1;
nodes = (
"319 79 LINE",
"162 78 LINE SMOOTH",
"116 78 OFFCURVE",
"105 80 OFFCURVE",
"105 212 CURVE SMOOTH",
"105 312 OFFCURVE",
"106 478 OFFCURVE",
"106 531 CURVE",
"50 531 LINE",
"50 134 LINE SMOOTH",
"50 48 OFFCURVE",
"76 0 OFFCURVE",
"109 0 CURVE SMOOTH",
"320 -1 LINE"
);
}
);
width = 577;
},
{
layerId = "994FE389-9D54-4FAA-B055-C46A67020E78";
paths = (
{
closed = 1;
nodes = (
"721 0 LINE",
"721 244 LINE",
"825 244 LINE",
"825 348 LINE",
"721 348 LINE",
"721 439 LINE SMOOTH",
"721 531 OFFCURVE",
"721 531 OFFCURVE",
"617 531 CURVE SMOOTH",
"388 531 LINE",
"388 727 LINE",
"297 727 LINE",
"297 505 LINE SMOOTH",
"297 477 OFFCURVE",
"314 458 OFFCURVE",
"343 458 CURVE SMOOTH",
"571 458 LINE SMOOTH",
"630 458 OFFCURVE",
"630 458 OFFCURVE",
"630 278 CURVE SMOOTH",
"630 0 LINE"
);
},
{
closed = 1;
nodes = (
"498 79 LINE",
"249 78 LINE SMOOTH",
"172 78 OFFCURVE",
"156 85 OFFCURVE",
"156 212 CURVE SMOOTH",
"156 312 OFFCURVE",
"159 478 OFFCURVE",
"159 531 CURVE",
"70 531 LINE",
"70 134 LINE SMOOTH",
"70 49 OFFCURVE",
"111 0 OFFCURVE",
"162 0 CURVE SMOOTH",
"497 -1 LINE"
);
}
);
width = 895;
},
{
associatedMasterId = "61E9F240-DCC1-4244-924B-01C71F2248F0";
layerId = "F40E2F94-F4B3-4D3C-AA5D-04A91D7A3D3E";
paths = (
{
closed = 1;
nodes = (
"721 0 LINE",
"721 244 LINE",
"825 244 LINE",
"825 348 LINE",
"721 348 LINE",
"721 439 LINE SMOOTH",
"721 531 OFFCURVE",
"721 531 OFFCURVE",
"617 531 CURVE SMOOTH",
"388 531 LINE",
"388 727 LINE",
"297 727 LINE",
"297 505 LINE SMOOTH",
"297 477 OFFCURVE",
"314 458 OFFCURVE",
"343 458 CURVE SMOOTH",
"571 458 LINE SMOOTH",
"630 458 OFFCURVE",
"630 458 OFFCURVE",
"630 278 CURVE SMOOTH",
"630 0 LINE"
);
},
{
closed = 1;
nodes = (
"498 79 LINE",
"249 78 LINE SMOOTH",
"172 78 OFFCURVE",
"156 85 OFFCURVE",
"156 212 CURVE SMOOTH",
"156 312 OFFCURVE",
"159 478 OFFCURVE",
"159 531 CURVE",
"70 531 LINE",
"70 134 LINE SMOOTH",
"70 48 OFFCURVE",
"111 0 OFFCURVE",
"162 0 CURVE SMOOTH",
"497 -1 LINE"
);
}
);
width = 895;
}
);
},
{
glyphname = "ra_ni-ethiopic.liga";
lastChange = "2018-10-24 01:43:01 +0000";
layers = (
{
layerId = "61E9F240-DCC1-4244-924B-01C71F2248F0";
paths = (
{
closed = 1;
nodes = (
"563 0 LINE",
"563 86 LINE",
"487 86 LINE",
"487 439 LINE SMOOTH",
"487 531 OFFCURVE",
"487 531 OFFCURVE",
"421 531 CURVE SMOOTH",
"277 531 LINE",
"277 727 LINE",
"219 727 LINE",
"219 505 LINE SMOOTH",
"219 478 OFFCURVE",
"230 458 OFFCURVE",
"250 458 CURVE SMOOTH",
"393 458 LINE SMOOTH",
"431 458 OFFCURVE",
"431 458 OFFCURVE",
"431 278 CURVE SMOOTH",
"431 0 LINE"
);
},
{
closed = 1;
nodes = (
"319 79 LINE",
"162 78 LINE SMOOTH",
"118 78 OFFCURVE",
"105 77 OFFCURVE",
"105 212 CURVE SMOOTH",
"105 312 OFFCURVE",
"106 478 OFFCURVE",
"106 531 CURVE",
"50 531 LINE",
"50 134 LINE SMOOTH",
"50 48 OFFCURVE",
"76 0 OFFCURVE",
"108 0 CURVE SMOOTH",
"320 -1 LINE"
);
}
);
width = 613;
},
{
layerId = "994FE389-9D54-4FAA-B055-C46A67020E78";
paths = (
{
closed = 1;
nodes = (
"884 0 LINE",
"884 86 LINE",
"763 86 LINE",
"763 439 LINE SMOOTH",
"763 531 OFFCURVE",
"763 531 OFFCURVE",
"659 531 CURVE SMOOTH",
"430 531 LINE",
"430 727 LINE",
"339 727 LINE",
"339 505 LINE SMOOTH",
"339 477 OFFCURVE",
"356 458 OFFCURVE",
"386 458 CURVE SMOOTH",
"614 458 LINE SMOOTH",
"672 458 OFFCURVE",
"672 458 OFFCURVE",
"672 278 CURVE SMOOTH",
"672 0 LINE"
);
},
{
closed = 1;
nodes = (
"498 79 LINE",
"249 78 LINE SMOOTH",
"173 78 OFFCURVE",
"156 85 OFFCURVE",
"156 212 CURVE SMOOTH",
"156 312 OFFCURVE",
"159 478 OFFCURVE",
"159 531 CURVE",
"70 531 LINE",
"70 134 LINE SMOOTH",
"70 49 OFFCURVE",
"111 0 OFFCURVE",
"163 0 CURVE SMOOTH",
"497 -1 LINE"
);
}
);
width = 954;
},
{
associatedMasterId = "61E9F240-DCC1-4244-924B-01C71F2248F0";
layerId = "F40E2F94-F4B3-4D3C-AA5D-04A91D7A3D3E";
paths = (
{
closed = 1;
nodes = (
"884 0 LINE",
"884 86 LINE",
"763 86 LINE",
"763 439 LINE SMOOTH",
"763 531 OFFCURVE",
"763 531 OFFCURVE",
"659 531 CURVE SMOOTH",
"430 531 LINE",
"430 727 LINE",
"339 727 LINE",
"339 505 LINE SMOOTH",
"339 477 OFFCURVE",
"356 458 OFFCURVE",
"386 458 CURVE SMOOTH",
"614 458 LINE SMOOTH",
"672 458 OFFCURVE",
"672 458 OFFCURVE",
"672 278 CURVE SMOOTH",
"672 0 LINE"
);
},
{
closed = 1;
nodes = (
"498 79 LINE",
"249 78 LINE SMOOTH",
"173 78 OFFCURVE",
"156 85 OFFCURVE",
"156 212 CURVE SMOOTH",
"156 312 OFFCURVE",
"159 478 OFFCURVE",
"159 531 CURVE",
"70 531 LINE",
"70 134 LINE SMOOTH",
"70 48 OFFCURVE",
"111 0 OFFCURVE",
"163 0 CURVE SMOOTH",
"497 -1 LINE"
);
}
);
width = 954;
}
);
},
{
glyphname = "ra_nee-ethiopic.liga";
lastChange = "2018-10-24 01:43:01 +0000";
layers = (
{
layerId = "61E9F240-DCC1-4244-924B-01C71F2248F0";
paths = (
{
closed = 1;
nodes = (
"535 0 LINE SMOOTH",
"555 0 OFFCURVE",
"579 8 OFFCURVE",
"595 50 CURVE SMOOTH",
"601 67 OFFCURVE",
"605 85 OFFCURVE",
"605 112 CURVE SMOOTH",
"605 140 OFFCURVE",
"601 166 OFFCURVE",
"589 184 CURVE SMOOTH",
"573 209 OFFCURVE",
"555 217 OFFCURVE",
"536 217 CURVE SMOOTH",
"517 217 LINE",
"517 439 LINE SMOOTH",
"517 531 OFFCURVE",
"517 531 OFFCURVE",
"452 531 CURVE SMOOTH",
"308 531 LINE",
"308 727 LINE",
"250 727 LINE",
"250 505 LINE SMOOTH",
"250 478 OFFCURVE",
"261 458 OFFCURVE",
"278 458 CURVE SMOOTH",
"423 458 LINE SMOOTH",
"459 458 OFFCURVE",
"459 458 OFFCURVE",
"459 278 CURVE SMOOTH",
"459 0 LINE"
);
},
{
closed = 1;
nodes = (
"319 79 LINE",
"162 78 LINE SMOOTH",
"118 78 OFFCURVE",
"105 77 OFFCURVE",
"105 212 CURVE SMOOTH",
"105 312 OFFCURVE",
"106 478 OFFCURVE",
"106 531 CURVE",
"50 531 LINE",
"50 134 LINE SMOOTH",
"50 48 OFFCURVE",
"76 0 OFFCURVE",
"108 0 CURVE SMOOTH",
"320 -1 LINE"
);
},
{
closed = 1;
nodes = (
"517 193 LINE",
"534 192 OFFCURVE",
"549 183 OFFCURVE",
"556 171 CURVE SMOOTH",
"563 158 OFFCURVE",
"567 131 OFFCURVE",
"567 107 CURVE SMOOTH",
"567 97 OFFCURVE",
"566 95 OFFCURVE",
"565 85 CURVE",
"565 75 OFFCURVE",
"558 54 OFFCURVE",
"557 51 CURVE SMOOTH",
"553 40 OFFCURVE",
"542 31 OFFCURVE",
"535 28 CURVE SMOOTH",
"528 26 OFFCURVE",
"521 24 OFFCURVE",
"517 24 CURVE"
);
}
);
width = 655;
},
{
layerId = "994FE389-9D54-4FAA-B055-C46A67020E78";
paths = (
{
closed = 1;
nodes = (
"839 0 LINE SMOOTH",
"884 0 OFFCURVE",
"916 17 OFFCURVE",
"934 50 CURVE SMOOTH",
"944 67 OFFCURVE",
"950 89 OFFCURVE",
"950 112 CURVE SMOOTH",
"950 142 OFFCURVE",
"942 167 OFFCURVE",
"923 185 CURVE SMOOTH",
"901 205 OFFCURVE",
"876 217 OFFCURVE",
"840 217 CURVE SMOOTH",
"810 217 LINE",
"810 439 LINE SMOOTH",
"810 531 OFFCURVE",
"810 531 OFFCURVE",
"706 531 CURVE SMOOTH",
"477 531 LINE",
"477 727 LINE",
"386 727 LINE",
"386 505 LINE SMOOTH",
"386 477 OFFCURVE",
"404 458 OFFCURVE",
"433 458 CURVE SMOOTH",
"661 458 LINE SMOOTH",
"719 458 OFFCURVE",
"719 458 OFFCURVE",
"719 278 CURVE SMOOTH",
"719 0 LINE"
);
},
{
closed = 1;
nodes = (
"498 79 LINE",
"249 78 LINE SMOOTH",
"173 78 OFFCURVE",
"156 85 OFFCURVE",
"156 212 CURVE SMOOTH",
"156 312 OFFCURVE",
"159 478 OFFCURVE",
"159 531 CURVE",
"70 531 LINE",
"70 134 LINE SMOOTH",
"70 49 OFFCURVE",
"111 0 OFFCURVE",
"163 0 CURVE SMOOTH",
"497 -1 LINE"
);
},
{
closed = 1;
nodes = (
"810 193 LINE",
"838 192 OFFCURVE",
"858 185 OFFCURVE",
"871 171 CURVE SMOOTH",
"884 156 OFFCURVE",
"889 134 OFFCURVE",
"889 107 CURVE SMOOTH",
"889 100 OFFCURVE",
"888 93 OFFCURVE",
"886 85 CURVE",
"883 70 OFFCURVE",
"878 59 OFFCURVE",
"872 50 CURVE SMOOTH",
"864 38 OFFCURVE",
"852 32 OFFCURVE",
"837 28 CURVE SMOOTH",
"829 26 OFFCURVE",
"821 24 OFFCURVE",
"810 24 CURVE"
);
}
);
width = 1020;
},
{
associatedMasterId = "61E9F240-DCC1-4244-924B-01C71F2248F0";
layerId = "F40E2F94-F4B3-4D3C-AA5D-04A91D7A3D3E";
paths = (
{
closed = 1;
nodes = (
"839 0 LINE SMOOTH",
"884 0 OFFCURVE",
"916 17 OFFCURVE",
"934 50 CURVE SMOOTH",
"944 67 OFFCURVE",
"950 89 OFFCURVE",
"950 112 CURVE SMOOTH",
"950 142 OFFCURVE",
"942 167 OFFCURVE",
"923 185 CURVE SMOOTH",
"901 205 OFFCURVE",
"876 217 OFFCURVE",
"840 217 CURVE SMOOTH",
"810 217 LINE",
"810 439 LINE SMOOTH",
"810 531 OFFCURVE",
"810 531 OFFCURVE",
"706 531 CURVE SMOOTH",
"477 531 LINE",
"477 727 LINE",
"386 727 LINE",
"386 505 LINE SMOOTH",
"386 477 OFFCURVE",
"404 458 OFFCURVE",
"433 458 CURVE SMOOTH",
"661 458 LINE SMOOTH",
"719 458 OFFCURVE",
"719 458 OFFCURVE",
"719 278 CURVE SMOOTH",
"719 0 LINE"
);
},
{
closed = 1;
nodes = (
"498 79 LINE",
"249 78 LINE SMOOTH",
"173 78 OFFCURVE",
"156 85 OFFCURVE",
"156 212 CURVE SMOOTH",
"156 312 OFFCURVE",
"159 478 OFFCURVE",
"159 531 CURVE",
"70 531 LINE",
"70 134 LINE SMOOTH",
"70 48 OFFCURVE",
"111 0 OFFCURVE",
"163 0 CURVE SMOOTH",
"497 -1 LINE"
);
},
{
closed = 1;
nodes = (
"810 193 LINE",
"838 192 OFFCURVE",
"858 185 OFFCURVE",
"871 171 CURVE SMOOTH",
"884 156 OFFCURVE",
"889 134 OFFCURVE",
"889 107 CURVE SMOOTH",
"889 100 OFFCURVE",
"888 93 OFFCURVE",
"886 85 CURVE",
"883 70 OFFCURVE",
"878 59 OFFCURVE",
"872 50 CURVE SMOOTH",
"864 38 OFFCURVE",
"852 32 OFFCURVE",
"837 28 CURVE SMOOTH",
"829 26 OFFCURVE",
"821 24 OFFCURVE",
"810 24 CURVE"
);
}
);
width = 1020;
}
);
note = uni1294;
},
{
glyphname = "ra_ne-ethiopic.liga";
lastChange = "2018-10-24 01:43:01 +0000";
layers = (
{
layerId = "61E9F240-DCC1-4244-924B-01C71F2248F0";
paths = (
{
closed = 1;
nodes = (
"503 -182 LINE",
"503 211 LINE SMOOTH",
"503 239 OFFCURVE",
"500 253 OFFCURVE",
"478 253 CURVE SMOOTH",
"412 253 LINE",
"509 445 LINE SMOOTH",
"517 461 OFFCURVE",
"510 531 OFFCURVE",
"480 531 CURVE SMOOTH",
"263 531 LINE",
"263 450 LINE",
"453 450 LINE",
"361 266 LINE SMOOTH",
"332 207 OFFCURVE",
"340 191 OFFCURVE",
"355 191 CURVE SMOOTH",
"446 191 LINE",
"446 -182 LINE"
);
},
{
closed = 1;
nodes = (
"319 79 LINE",
"162 78 LINE SMOOTH",
"118 78 OFFCURVE",
"106 78 OFFCURVE",
"106 212 CURVE SMOOTH",
"106 312 OFFCURVE",
"106 478 OFFCURVE",
"106 531 CURVE",
"50 531 LINE",
"50 134 LINE SMOOTH",
"50 48 OFFCURVE",
"76 0 OFFCURVE",
"108 0 CURVE SMOOTH",
"320 -1 LINE"
);
}
);
width = 562;
},
{
layerId = "994FE389-9D54-4FAA-B055-C46A67020E78";
paths = (
{
closed = 1;
nodes = (
"787 -182 LINE",
"787 211 LINE SMOOTH",
"787 236 OFFCURVE",
"785 253 OFFCURVE",
"747 253 CURVE SMOOTH",
"644 253 LINE",
"797 445 LINE SMOOTH",
"810 461 OFFCURVE",
"799 531 OFFCURVE",
"753 531 CURVE SMOOTH",
"407 531 LINE",
"407 450 LINE",
"707 450 LINE",
"564 266 LINE SMOOTH",
"520 210 OFFCURVE",
"526 191 OFFCURVE",
"554 191 CURVE SMOOTH",
"697 191 LINE",
"697 -182 LINE"
);
},
{
closed = 1;
nodes = (
"498 79 LINE",
"249 78 LINE SMOOTH",
"173 78 OFFCURVE",
"157 85 OFFCURVE",
"157 212 CURVE SMOOTH",
"157 312 OFFCURVE",
"159 478 OFFCURVE",
"159 531 CURVE",
"70 531 LINE",
"70 134 LINE SMOOTH",
"70 49 OFFCURVE",
"111 0 OFFCURVE",
"163 0 CURVE SMOOTH",
"497 -1 LINE"
);
}
);
width = 872;
},
{
associatedMasterId = "61E9F240-DCC1-4244-924B-01C71F2248F0";
layerId = "F40E2F94-F4B3-4D3C-AA5D-04A91D7A3D3E";
paths = (
{
closed = 1;
nodes = (
"787 -182 LINE",
"787 211 LINE SMOOTH",
"787 236 OFFCURVE",
"785 253 OFFCURVE",
"747 253 CURVE SMOOTH",
"644 253 LINE",
"797 445 LINE SMOOTH",
"810 461 OFFCURVE",
"799 531 OFFCURVE",
"753 531 CURVE SMOOTH",
"407 531 LINE",
"407 450 LINE",
"707 450 LINE",
"564 266 LINE SMOOTH",
"520 210 OFFCURVE",
"526 191 OFFCURVE",
"554 191 CURVE SMOOTH",
"697 191 LINE",
"697 -182 LINE"
);
},
{
closed = 1;
nodes = (
"498 79 LINE",
"249 78 LINE SMOOTH",
"173 78 OFFCURVE",
"157 85 OFFCURVE",
"157 212 CURVE SMOOTH",
"157 312 OFFCURVE",
"159 478 OFFCURVE",
"159 531 CURVE",
"70 531 LINE",
"70 134 LINE SMOOTH",
"70 48 OFFCURVE",
"111 0 OFFCURVE",
"163 0 CURVE SMOOTH",
"497 -1 LINE"
);
}
);
width = 872;
}
);
note = uni1295;
},
{
glyphname = "ra_nya-ethiopic.liga";
lastChange = "2018-10-24 01:43:01 +0000";
layers = (
{
layerId = "61E9F240-DCC1-4244-924B-01C71F2248F0";
paths = (
{
closed = 1;
nodes = (
"536 0 LINE",
"536 439 LINE SMOOTH",
"536 531 OFFCURVE",
"536 531 OFFCURVE",
"471 531 CURVE SMOOTH",
"327 531 LINE",
"327 682 LINE",
"403 682 LINE",
"403 727 LINE",
"203 727 LINE",
"203 682 LINE",
"269 682 LINE",
"269 505 LINE SMOOTH",
"269 477 OFFCURVE",
"280 458 OFFCURVE",
"298 458 CURVE SMOOTH",
"441 458 LINE SMOOTH",
"478 458 OFFCURVE",
"478 458 OFFCURVE",
"478 278 CURVE SMOOTH",
"478 0 LINE"
);
},
{
closed = 1;
nodes = (
"320 79 LINE",
"163 78 LINE SMOOTH",
"118 78 OFFCURVE",
"106 78 OFFCURVE",
"106 212 CURVE SMOOTH",
"106 312 OFFCURVE",
"107 478 OFFCURVE",
"107 531 CURVE",
"50 531 LINE",
"50 134 LINE SMOOTH",
"50 48 OFFCURVE",
"76 0 OFFCURVE",
"108 0 CURVE SMOOTH",
"319 -1 LINE"
);
}
);
width = 586;
},
{
layerId = "994FE389-9D54-4FAA-B055-C46A67020E78";
paths = (
{
closed = 1;
nodes = (
"840 0 LINE",
"840 439 LINE SMOOTH",
"840 531 OFFCURVE",
"840 531 OFFCURVE",
"736 531 CURVE SMOOTH",
"507 531 LINE",
"507 682 LINE",
"630 682 LINE",
"630 727 LINE",
"313 727 LINE",
"313 682 LINE",
"416 682 LINE",
"416 505 LINE SMOOTH",
"416 477 OFFCURVE",
"433 458 OFFCURVE",
"462 458 CURVE SMOOTH",
"690 458 LINE SMOOTH",
"749 458 OFFCURVE",
"749 458 OFFCURVE",
"749 278 CURVE SMOOTH",
"749 0 LINE"
);
},
{
closed = 1;
nodes = (
"499 79 LINE",
"250 78 LINE SMOOTH",
"173 78 OFFCURVE",
"157 85 OFFCURVE",
"157 212 CURVE SMOOTH",
"157 312 OFFCURVE",
"160 478 OFFCURVE",
"160 531 CURVE",
"70 531 LINE",
"70 134 LINE SMOOTH",
"70 49 OFFCURVE",
"111 0 OFFCURVE",
"163 0 CURVE SMOOTH",
"498 -1 LINE"
);
}
);
width = 910;
},
{
associatedMasterId = "61E9F240-DCC1-4244-924B-01C71F2248F0";
layerId = "F40E2F94-F4B3-4D3C-AA5D-04A91D7A3D3E";
paths = (
{
closed = 1;
nodes = (
"840 0 LINE",
"840 439 LINE SMOOTH",
"840 531 OFFCURVE",
"840 531 OFFCURVE",
"736 531 CURVE SMOOTH",
"507 531 LINE",
"507 682 LINE",
"630 682 LINE",
"630 727 LINE",
"313 727 LINE",
"313 682 LINE",
"416 682 LINE",
"416 505 LINE SMOOTH",
"416 477 OFFCURVE",
"433 458 OFFCURVE",
"462 458 CURVE SMOOTH",
"690 458 LINE SMOOTH",
"749 458 OFFCURVE",
"749 458 OFFCURVE",
"749 278 CURVE SMOOTH",
"749 0 LINE"
);
},
{
closed = 1;
nodes = (
"499 79 LINE",
"250 78 LINE SMOOTH",
"173 78 OFFCURVE",
"157 85 OFFCURVE",
"157 212 CURVE SMOOTH",
"157 312 OFFCURVE",
"160 478 OFFCURVE",
"160 531 CURVE",
"70 531 LINE",
"70 134 LINE SMOOTH",
"70 48 OFFCURVE",
"111 0 OFFCURVE",
"163 0 CURVE SMOOTH",
"498 -1 LINE"
);
}
);
width = 910;
}
);
note = uni1298;
},
{
glyphname = "ra_nyu-ethiopic.liga";
lastChange = "2018-10-24 01:43:01 +0000";
layers = (
{
layerId = "61E9F240-DCC1-4244-924B-01C71F2248F0";
paths = (
{
closed = 1;
nodes = (
"547 0 LINE",
"547 246 LINE",
"610 246 LINE",
"610 346 LINE",
"547 346 LINE",
"547 439 LINE SMOOTH",
"547 531 OFFCURVE",
"547 531 OFFCURVE",
"480 531 CURVE SMOOTH",
"336 531 LINE",
"336 682 LINE",
"415 682 LINE",
"415 727 LINE",
"215 727 LINE",
"215 682 LINE",
"278 682 LINE",
"278 505 LINE SMOOTH",
"278 477 OFFCURVE",
"291 458 OFFCURVE",
"309 458 CURVE SMOOTH",
"452 458 LINE SMOOTH",
"490 458 OFFCURVE",
"490 458 OFFCURVE",
"490 278 CURVE SMOOTH",
"490 0 LINE"
);
},
{
closed = 1;
nodes = (
"319 79 LINE",
"162 78 LINE SMOOTH",
"116 78 OFFCURVE",
"105 80 OFFCURVE",
"105 212 CURVE SMOOTH",
"105 312 OFFCURVE",
"106 478 OFFCURVE",
"106 531 CURVE",
"50 531 LINE",
"50 134 LINE SMOOTH",
"50 48 OFFCURVE",
"76 0 OFFCURVE",
"109 0 CURVE SMOOTH",
"320 -1 LINE"
);
}
);
width = 660;
},
{
layerId = "994FE389-9D54-4FAA-B055-C46A67020E78";
paths = (
{
closed = 1;
nodes = (
"857 0 LINE",
"857 246 LINE",
"956 246 LINE",
"956 346 LINE",
"857 346 LINE",
"857 439 LINE SMOOTH",
"857 531 OFFCURVE",
"857 531 OFFCURVE",
"753 531 CURVE SMOOTH",
"524 531 LINE",
"524 682 LINE",
"647 682 LINE",
"647 727 LINE",
"331 727 LINE",
"331 682 LINE",
"433 682 LINE",
"433 505 LINE SMOOTH",
"433 477 OFFCURVE",
"451 458 OFFCURVE",
"480 458 CURVE SMOOTH",
"708 458 LINE SMOOTH",
"766 458 OFFCURVE",
"766 458 OFFCURVE",
"766 278 CURVE SMOOTH",
"766 0 LINE"
);
},
{
closed = 1;
nodes = (
"498 79 LINE",
"249 78 LINE SMOOTH",
"172 78 OFFCURVE",
"156 85 OFFCURVE",
"156 212 CURVE SMOOTH",
"156 312 OFFCURVE",
"159 478 OFFCURVE",
"159 531 CURVE",
"70 531 LINE",
"70 134 LINE SMOOTH",
"70 49 OFFCURVE",
"111 0 OFFCURVE",
"162 0 CURVE SMOOTH",
"497 -1 LINE"
);
}
);
width = 1026;
},
{
associatedMasterId = "61E9F240-DCC1-4244-924B-01C71F2248F0";
layerId = "F40E2F94-F4B3-4D3C-AA5D-04A91D7A3D3E";
paths = (
{
closed = 1;
nodes = (
"857 0 LINE",
"857 246 LINE",
"956 246 LINE",
"956 346 LINE",
"857 346 LINE",
"857 439 LINE SMOOTH",
"857 531 OFFCURVE",
"857 531 OFFCURVE",
"753 531 CURVE SMOOTH",
"524 531 LINE",
"524 682 LINE",
"647 682 LINE",
"647 727 LINE",
"331 727 LINE",
"331 682 LINE",
"433 682 LINE",
"433 505 LINE SMOOTH",
"433 477 OFFCURVE",
"451 458 OFFCURVE",
"480 458 CURVE SMOOTH",
"708 458 LINE SMOOTH",
"766 458 OFFCURVE",
"766 458 OFFCURVE",
"766 278 CURVE SMOOTH",
"766 0 LINE"
);
},
{
closed = 1;
nodes = (
"498 79 LINE",
"249 78 LINE SMOOTH",
"172 78 OFFCURVE",
"156 85 OFFCURVE",
"156 212 CURVE SMOOTH",
"156 312 OFFCURVE",
"159 478 OFFCURVE",
"159 531 CURVE",
"70 531 LINE",
"70 134 LINE SMOOTH",
"70 48 OFFCURVE",
"111 0 OFFCURVE",
"162 0 CURVE SMOOTH",
"497 -1 LINE"
);
}
);
width = 1026;
}
);
note = uni1299;
},
{
glyphname = "ra_nyi-ethiopic.liga";
lastChange = "2018-10-24 01:43:01 +0000";
layers = (
{
layerId = "61E9F240-DCC1-4244-924B-01C71F2248F0";
paths = (
{
closed = 1;
nodes = (
"641 0 LINE",
"641 100 LINE",
"579 100 LINE",
"579 439 LINE SMOOTH",
"579 531 OFFCURVE",
"579 531 OFFCURVE",
"512 531 CURVE SMOOTH",
"368 531 LINE",
"368 682 LINE",
"456 682 LINE",
"456 727 LINE",
"247 727 LINE",
"247 682 LINE",
"310 682 LINE",
"310 505 LINE SMOOTH",
"310 477 OFFCURVE",
"323 458 OFFCURVE",
"340 458 CURVE SMOOTH",
"483 458 LINE SMOOTH",
"521 458 OFFCURVE",
"521 458 OFFCURVE",
"521 278 CURVE SMOOTH",
"521 0 LINE"
);
},
{
closed = 1;
nodes = (
"319 79 LINE",
"162 78 LINE SMOOTH",
"116 78 OFFCURVE",
"105 80 OFFCURVE",
"105 212 CURVE SMOOTH",
"105 312 OFFCURVE",
"106 478 OFFCURVE",
"106 531 CURVE",
"50 531 LINE",
"50 134 LINE SMOOTH",
"50 48 OFFCURVE",
"76 0 OFFCURVE",
"109 0 CURVE SMOOTH",
"320 -1 LINE"
);
}
);
width = 691;
},
{
layerId = "994FE389-9D54-4FAA-B055-C46A67020E78";
paths = (
{
closed = 1;
nodes = (
"1006 0 LINE",
"1006 100 LINE",
"907 100 LINE",
"907 439 LINE SMOOTH",
"907 531 OFFCURVE",
"907 531 OFFCURVE",
"803 531 CURVE SMOOTH",
"574 531 LINE",
"574 682 LINE",
"714 682 LINE",
"714 727 LINE",
"381 727 LINE",
"381 682 LINE",
"483 682 LINE",
"483 505 LINE SMOOTH",
"483 477 OFFCURVE",
"501 458 OFFCURVE",
"530 458 CURVE SMOOTH",
"758 458 LINE SMOOTH",
"816 458 OFFCURVE",
"816 458 OFFCURVE",
"816 278 CURVE SMOOTH",
"816 0 LINE"
);
},
{
closed = 1;
nodes = (
"498 79 LINE",
"249 78 LINE SMOOTH",
"172 78 OFFCURVE",
"156 85 OFFCURVE",
"156 212 CURVE SMOOTH",
"156 312 OFFCURVE",
"159 478 OFFCURVE",
"159 531 CURVE",
"70 531 LINE",
"70 134 LINE SMOOTH",
"70 49 OFFCURVE",
"111 0 OFFCURVE",
"162 0 CURVE SMOOTH",
"497 -1 LINE"
);
}
);
width = 1076;
},
{
associatedMasterId = "61E9F240-DCC1-4244-924B-01C71F2248F0";
layerId = "F40E2F94-F4B3-4D3C-AA5D-04A91D7A3D3E";
paths = (
{
closed = 1;
nodes = (
"1006 0 LINE",
"1006 100 LINE",
"907 100 LINE",
"907 439 LINE SMOOTH",
"907 531 OFFCURVE",
"907 531 OFFCURVE",
"803 531 CURVE SMOOTH",
"574 531 LINE",
"574 682 LINE",
"714 682 LINE",
"714 727 LINE",
"381 727 LINE",
"381 682 LINE",
"483 682 LINE",
"483 505 LINE SMOOTH",
"483 477 OFFCURVE",
"501 458 OFFCURVE",
"530 458 CURVE SMOOTH",
"758 458 LINE SMOOTH",
"816 458 OFFCURVE",
"816 458 OFFCURVE",
"816 278 CURVE SMOOTH",
"816 0 LINE"
);
},
{
closed = 1;
nodes = (
"498 79 LINE",
"249 78 LINE SMOOTH",
"172 78 OFFCURVE",
"156 85 OFFCURVE",
"156 212 CURVE SMOOTH",
"156 312 OFFCURVE",
"159 478 OFFCURVE",
"159 531 CURVE",
"70 531 LINE",
"70 134 LINE SMOOTH",
"70 48 OFFCURVE",
"111 0 OFFCURVE",
"162 0 CURVE SMOOTH",
"497 -1 LINE"
);
}
);
width = 1076;
}
);
note = uni129A;
},
{
glyphname = "ra_nyee-ethiopic.liga";
lastChange = "2018-10-24 01:43:01 +0000";
layers = (
{
layerId = "61E9F240-DCC1-4244-924B-01C71F2248F0";
paths = (
{
closed = 1;
nodes = (
"570 0 LINE SMOOTH",
"597 0 OFFCURVE",
"619 16 OFFCURVE",
"631 46 CURVE",
"637 64 OFFCURVE",
"640 86 OFFCURVE",
"640 106 CURVE SMOOTH",
"640 129 OFFCURVE",
"636 158 OFFCURVE",
"622 175 CURVE",
"612 191 OFFCURVE",
"596 205 OFFCURVE",
"571 205 CURVE SMOOTH",
"541 205 LINE",
"541 439 LINE SMOOTH",
"541 531 OFFCURVE",
"541 531 OFFCURVE",
"476 531 CURVE SMOOTH",
"332 531 LINE",
"332 682 LINE",
"437 682 LINE",
"437 727 LINE",
"210 727 LINE",
"210 682 LINE",
"274 682 LINE",
"274 505 LINE SMOOTH",
"274 477 OFFCURVE",
"285 458 OFFCURVE",
"304 458 CURVE SMOOTH",
"448 458 LINE SMOOTH",
"483 458 OFFCURVE",
"483 458 OFFCURVE",
"483 278 CURVE SMOOTH",
"483 0 LINE"
);
},
{
closed = 1;
nodes = (
"320 79 LINE",
"163 78 LINE SMOOTH",
"118 78 OFFCURVE",
"106 78 OFFCURVE",
"106 212 CURVE SMOOTH",
"106 312 OFFCURVE",
"107 478 OFFCURVE",
"107 531 CURVE",
"50 531 LINE",
"50 134 LINE SMOOTH",
"50 48 OFFCURVE",
"76 0 OFFCURVE",
"108 0 CURVE SMOOTH",
"319 -1 LINE"
);
},
{
closed = 1;
nodes = (
"541 182 LINE",
"551 182 LINE SMOOTH",
"569 182 OFFCURVE",
"581 176 OFFCURVE",
"590 161 CURVE SMOOTH",
"598 147 OFFCURVE",
"601 129 OFFCURVE",
"601 101 CURVE SMOOTH",
"601 96 OFFCURVE",
"601 87 OFFCURVE",
"600 80 CURVE",
"598 69 OFFCURVE",
"594 54 OFFCURVE",
"592 47 CURVE",
"584 35 OFFCURVE",
"580 32 OFFCURVE",
"570 26 CURVE",
"563 25 OFFCURVE",
"559 23 OFFCURVE",
"550 23 CURVE SMOOTH",
"541 23 LINE"
);
}
);
width = 690;
},
{
layerId = "994FE389-9D54-4FAA-B055-C46A67020E78";
paths = (
{
closed = 1;
nodes = (
"894 0 LINE SMOOTH",
"940 0 OFFCURVE",
"971 16 OFFCURVE",
"990 46 CURVE",
"1000 64 OFFCURVE",
"1005 85 OFFCURVE",
"1005 106 CURVE SMOOTH",
"1005 134 OFFCURVE",
"997 158 OFFCURVE",
"978 175 CURVE",
"956 193 OFFCURVE",
"931 205 OFFCURVE",
"895 205 CURVE SMOOTH",
"849 205 LINE",
"849 439 LINE SMOOTH",
"849 531 OFFCURVE",
"849 531 OFFCURVE",
"745 531 CURVE SMOOTH",
"516 531 LINE",
"516 682 LINE",
"684 682 LINE",
"684 727 LINE",
"322 727 LINE",
"322 682 LINE",
"425 682 LINE",
"425 505 LINE SMOOTH",
"425 477 OFFCURVE",
"442 458 OFFCURVE",
"471 458 CURVE SMOOTH",
"700 458 LINE SMOOTH",
"758 458 OFFCURVE",
"758 458 OFFCURVE",
"758 278 CURVE SMOOTH",
"758 0 LINE"
);
},
{
closed = 1;
nodes = (
"499 79 LINE",
"250 78 LINE SMOOTH",
"173 78 OFFCURVE",
"157 85 OFFCURVE",
"157 212 CURVE SMOOTH",
"157 312 OFFCURVE",
"160 478 OFFCURVE",
"160 531 CURVE",
"70 531 LINE",
"70 134 LINE SMOOTH",
"70 49 OFFCURVE",
"111 0 OFFCURVE",
"163 0 CURVE SMOOTH",
"498 -1 LINE"
);
},
{
closed = 1;
nodes = (
"849 182 LINE",
"862 182 LINE SMOOTH",
"891 182 OFFCURVE",
"913 175 OFFCURVE",
"926 161 CURVE SMOOTH",
"939 147 OFFCURVE",
"944 126 OFFCURVE",
"944 101 CURVE SMOOTH",
"944 95 OFFCURVE",
"943 87 OFFCURVE",
"941 80 CURVE",
"938 66 OFFCURVE",
"933 56 OFFCURVE",
"927 47 CURVE",
"919 36 OFFCURVE",
"907 30 OFFCURVE",
"892 26 CURVE",
"884 25 OFFCURVE",
"875 23 OFFCURVE",
"863 23 CURVE SMOOTH",
"849 23 LINE"
);
}
);
width = 1075;
},
{
associatedMasterId = "61E9F240-DCC1-4244-924B-01C71F2248F0";
layerId = "F40E2F94-F4B3-4D3C-AA5D-04A91D7A3D3E";
paths = (
{
closed = 1;
nodes = (
"894 0 LINE SMOOTH",
"940 0 OFFCURVE",
"971 16 OFFCURVE",
"990 46 CURVE",
"1000 64 OFFCURVE",
"1005 85 OFFCURVE",
"1005 106 CURVE SMOOTH",
"1005 134 OFFCURVE",
"997 158 OFFCURVE",
"978 175 CURVE",
"956 193 OFFCURVE",
"931 205 OFFCURVE",
"895 205 CURVE SMOOTH",
"849 205 LINE",
"849 439 LINE SMOOTH",
"849 531 OFFCURVE",
"849 531 OFFCURVE",
"745 531 CURVE SMOOTH",
"516 531 LINE",
"516 682 LINE",
"684 682 LINE",
"684 727 LINE",
"322 727 LINE",
"322 682 LINE",
"425 682 LINE",
"425 505 LINE SMOOTH",
"425 477 OFFCURVE",
"442 458 OFFCURVE",
"471 458 CURVE SMOOTH",
"700 458 LINE SMOOTH",
"758 458 OFFCURVE",
"758 458 OFFCURVE",
"758 278 CURVE SMOOTH",
"758 0 LINE"
);
},
{
closed = 1;
nodes = (
"499 79 LINE",
"250 78 LINE SMOOTH",
"173 78 OFFCURVE",
"157 85 OFFCURVE",
"157 212 CURVE SMOOTH",
"157 312 OFFCURVE",
"160 478 OFFCURVE",
"160 531 CURVE",
"70 531 LINE",
"70 134 LINE SMOOTH",
"70 48 OFFCURVE",
"111 0 OFFCURVE",
"163 0 CURVE SMOOTH",
"498 -1 LINE"
);
},
{
closed = 1;
nodes = (
"849 182 LINE",
"862 182 LINE SMOOTH",
"891 182 OFFCURVE",
"913 175 OFFCURVE",
"926 161 CURVE SMOOTH",
"939 147 OFFCURVE",
"944 126 OFFCURVE",
"944 101 CURVE SMOOTH",
"944 95 OFFCURVE",
"943 87 OFFCURVE",
"941 80 CURVE",
"938 66 OFFCURVE",
"933 56 OFFCURVE",
"927 47 CURVE",
"919 36 OFFCURVE",
"907 30 OFFCURVE",
"892 26 CURVE",
"884 25 OFFCURVE",
"875 23 OFFCURVE",
"863 23 CURVE SMOOTH",
"849 23 LINE"
);
}
);
width = 1075;
}
);
note = uni129C;
},
{
glyphname = "ra_ga-ethiopic.liga";
lastChange = "2018-10-24 01:43:01 +0000";
layers = (
{
layerId = "61E9F240-DCC1-4244-924B-01C71F2248F0";
paths = (
{
closed = 1;
nodes = (
"460 0 LINE",
"460 397 LINE SMOOTH",
"460 483 OFFCURVE",
"434 531 OFFCURVE",
"402 531 CURVE SMOOTH",
"191 532 LINE",
"190 452 LINE",
"347 453 LINE SMOOTH",
"392 453 OFFCURVE",
"405 454 OFFCURVE",
"405 319 CURVE SMOOTH",
"405 219 OFFCURVE",
"403 53 OFFCURVE",
"403 0 CURVE"
);
},
{
closed = 1;
nodes = (
"319 79 LINE",
"162 78 LINE SMOOTH",
"116 78 OFFCURVE",
"105 80 OFFCURVE",
"105 212 CURVE SMOOTH",
"105 312 OFFCURVE",
"106 478 OFFCURVE",
"106 531 CURVE",
"50 531 LINE",
"50 134 LINE SMOOTH",
"50 49 OFFCURVE",
"75 0 OFFCURVE",
"109 0 CURVE SMOOTH",
"320 -1 LINE"
);
}
);
width = 510;
},
{
layerId = "994FE389-9D54-4FAA-B055-C46A67020E78";
paths = (
{
closed = 1;
nodes = (
"720 0 LINE",
"720 397 LINE SMOOTH",
"720 482 OFFCURVE",
"679 531 OFFCURVE",
"627 531 CURVE SMOOTH",
"292 532 LINE",
"291 452 LINE",
"540 453 LINE SMOOTH",
"617 453 OFFCURVE",
"633 447 OFFCURVE",
"633 319 CURVE SMOOTH",
"633 219 OFFCURVE",
"630 53 OFFCURVE",
"630 0 CURVE"
);
},
{
closed = 1;
nodes = (
"498 79 LINE",
"249 78 LINE SMOOTH",
"172 78 OFFCURVE",
"156 85 OFFCURVE",
"156 212 CURVE SMOOTH",
"156 312 OFFCURVE",
"159 478 OFFCURVE",
"159 531 CURVE",
"70 531 LINE",
"70 134 LINE SMOOTH",
"70 49 OFFCURVE",
"110 0 OFFCURVE",
"162 0 CURVE SMOOTH",
"497 -1 LINE"
);
}
);
width = 790;
},
{
associatedMasterId = "61E9F240-DCC1-4244-924B-01C71F2248F0";
layerId = "F40E2F94-F4B3-4D3C-AA5D-04A91D7A3D3E";
paths = (
{
closed = 1;
nodes = (
"720 0 LINE",
"720 397 LINE SMOOTH",
"720 483 OFFCURVE",
"679 531 OFFCURVE",
"627 531 CURVE SMOOTH",
"292 532 LINE",
"291 452 LINE",
"540 453 LINE SMOOTH",
"617 453 OFFCURVE",
"633 447 OFFCURVE",
"633 319 CURVE SMOOTH",
"633 219 OFFCURVE",
"630 53 OFFCURVE",
"630 0 CURVE"
);
},
{
closed = 1;
nodes = (
"498 79 LINE",
"249 78 LINE SMOOTH",
"172 78 OFFCURVE",
"156 85 OFFCURVE",
"156 212 CURVE SMOOTH",
"156 312 OFFCURVE",
"159 478 OFFCURVE",
"159 531 CURVE",
"70 531 LINE",
"70 134 LINE SMOOTH",
"70 48 OFFCURVE",
"110 0 OFFCURVE",
"162 0 CURVE SMOOTH",
"497 -1 LINE"
);
}
);
width = 790;
}
);
},
{
glyphname = "ra_gu-ethiopic.liga";
lastChange = "2018-10-24 01:43:01 +0000";
layers = (
{
layerId = "61E9F240-DCC1-4244-924B-01C71F2248F0";
paths = (
{
closed = 1;
nodes = (
"460 0 LINE",
"460 249 LINE",
"525 249 LINE",
"525 354 LINE",
"460 354 LINE",
"460 397 LINE SMOOTH",
"460 483 OFFCURVE",
"434 531 OFFCURVE",
"402 531 CURVE SMOOTH",
"190 532 LINE",
"191 452 LINE",
"348 453 LINE SMOOTH",
"393 453 OFFCURVE",
"405 452 OFFCURVE",
"405 319 CURVE SMOOTH",
"405 219 OFFCURVE",
"404 53 OFFCURVE",
"404 0 CURVE"
);
},
{
closed = 1;
nodes = (
"319 79 LINE",
"162 78 LINE SMOOTH",
"118 78 OFFCURVE",
"105 77 OFFCURVE",
"105 212 CURVE SMOOTH",
"105 312 OFFCURVE",
"106 478 OFFCURVE",
"106 531 CURVE",
"50 531 LINE",
"50 134 LINE SMOOTH",
"50 48 OFFCURVE",
"76 0 OFFCURVE",
"108 0 CURVE SMOOTH",
"320 -1 LINE"
);
}
);
width = 575;
},
{
layerId = "994FE389-9D54-4FAA-B055-C46A67020E78";
paths = (
{
closed = 1;
nodes = (
"720 0 LINE",
"720 249 LINE",
"823 249 LINE",
"823 354 LINE",
"720 354 LINE",
"720 397 LINE SMOOTH",
"720 482 OFFCURVE",
"679 531 OFFCURVE",
"627 531 CURVE SMOOTH",
"293 532 LINE",
"292 452 LINE",
"541 453 LINE SMOOTH",
"617 453 OFFCURVE",
"633 446 OFFCURVE",
"633 319 CURVE SMOOTH",
"633 219 OFFCURVE",
"631 53 OFFCURVE",
"631 0 CURVE"
);
},
{
closed = 1;
nodes = (
"498 79 LINE",
"249 78 LINE SMOOTH",
"173 78 OFFCURVE",
"156 85 OFFCURVE",
"156 212 CURVE SMOOTH",
"156 312 OFFCURVE",
"159 478 OFFCURVE",
"159 531 CURVE",
"70 531 LINE",
"70 134 LINE SMOOTH",
"70 49 OFFCURVE",
"111 0 OFFCURVE",
"163 0 CURVE SMOOTH",
"497 -1 LINE"
);
}
);
width = 893;
},
{
associatedMasterId = "61E9F240-DCC1-4244-924B-01C71F2248F0";
layerId = "F40E2F94-F4B3-4D3C-AA5D-04A91D7A3D3E";
paths = (
{
closed = 1;
nodes = (
"720 0 LINE",
"720 249 LINE",
"823 249 LINE",
"823 354 LINE",
"720 354 LINE",
"720 397 LINE SMOOTH",
"720 483 OFFCURVE",
"679 531 OFFCURVE",
"627 531 CURVE SMOOTH",
"293 532 LINE",
"292 452 LINE",
"541 453 LINE SMOOTH",
"617 453 OFFCURVE",
"633 446 OFFCURVE",
"633 319 CURVE SMOOTH",
"633 219 OFFCURVE",
"631 53 OFFCURVE",
"631 0 CURVE"
);
},
{
closed = 1;
nodes = (
"498 79 LINE",
"249 78 LINE SMOOTH",
"173 78 OFFCURVE",
"156 85 OFFCURVE",
"156 212 CURVE SMOOTH",
"156 312 OFFCURVE",
"159 478 OFFCURVE",
"159 531 CURVE",
"70 531 LINE",
"70 134 LINE SMOOTH",
"70 48 OFFCURVE",
"111 0 OFFCURVE",
"163 0 CURVE SMOOTH",
"497 -1 LINE"
);
}
);
width = 893;
}
);
},
